<svg version="1.1" xmlns="http://www.w3.org/2000/svg" xmlns:xlink="http://www.w3.org/1999/xlink" width="1641" height="1510"><defs/><g><g transform="translate(-1880,-530) scale(1,1)"><rect fill="#C0C0C0" stroke="none" x="1897" y="1507" width="380" height="15" opacity="0.2"/></g><g transform="translate(-1880,-530) scale(1,1)"><rect fill="#C0C0C0" stroke="none" x="1897" y="1521" width="950" height="516" opacity="0.2"/></g><g transform="translate(-1880,-530) scale(1,1)"><rect fill="#ffffff" stroke="none" x="1890" y="1515" width="950" height="515"/></g><g transform="translate(-1880,-530) scale(1,1)"><path fill="none" stroke="#000000" d="M 1890 1515 L 2840 1515 L 2840 2030 L 1890 2030 L 1890 1515 Z Z" stroke-miterlimit="10"/></g><g transform="translate(-1880,-530) scale(1,1)"><rect fill="#ffffff" stroke="none" x="1890" y="1500" width="380" height="15"/></g><g transform="translate(-1880,-530) scale(1,1)"><path fill="none" stroke="#000000" d="M 1890 1500 L 2270 1500 L 2270 1515 L 1890 1515 L 1890 1500 Z Z" stroke-miterlimit="10"/></g><g transform="translate(-1880,-530) scale(1,1)"><rect fill="#ffffff" stroke="none" x="1890" y="1514" width="950" height="516"/></g><g transform="translate(-1880,-530) scale(1,1)"><path fill="none" stroke="#000000" d="M 1890 1514 L 2840 1514 L 2840 2030 L 1890 2030 L 1890 1514 Z Z" stroke-miterlimit="10"/></g><g transform="translate(-1880,-530) scale(1,1)"><g><path fill="none" stroke="none"/><text fill="#000000" stroke="none" font-family="Arial" font-size="20px" font-style="normal" font-weight="bold" text-decoration="none" x="2300.52734375" y="1541.5">Domain Model</text></g></g><g transform="translate(-1880,-530) scale(1,1)"><rect fill="#C0C0C0" stroke="none" x="2947" y="547" width="208.4000000000001" height="15" opacity="0.2"/></g><g transform="translate(-1880,-530) scale(1,1)"><rect fill="#C0C0C0" stroke="none" x="2947" y="561" width="521" height="876" opacity="0.2"/></g><g transform="translate(-1880,-530) scale(1,1)"><rect fill="#ffffff" stroke="none" x="2940" y="555" width="521" height="875"/></g><g transform="translate(-1880,-530) scale(1,1)"><path fill="none" stroke="#000000" d="M 2940 555 L 3461 555 L 3461 1430 L 2940 1430 L 2940 555 Z Z" stroke-miterlimit="10"/></g><g transform="translate(-1880,-530) scale(1,1)"><rect fill="#ffffff" stroke="none" x="2940" y="540" width="208.4000000000001" height="15"/></g><g transform="translate(-1880,-530) scale(1,1)"><path fill="none" stroke="#000000" d="M 2940 540 L 3148.4 540 L 3148.4 555 L 2940 555 L 2940 540 Z Z" stroke-miterlimit="10"/></g><g transform="translate(-1880,-530) scale(1,1)"><rect fill="#ffffff" stroke="none" x="2940" y="554" width="521" height="876"/></g><g transform="translate(-1880,-530) scale(1,1)"><path fill="none" stroke="#000000" d="M 2940 554 L 3461 554 L 3461 1430 L 2940 1430 L 2940 554 Z Z" stroke-miterlimit="10"/></g><g transform="translate(-1880,-530) scale(1,1)"><g><path fill="none" stroke="none"/><text fill="#000000" stroke="none" font-family="Arial" font-size="20px" font-style="normal" font-weight="bold" text-decoration="none" x="3173.830078125" y="581.5">DAOs</text></g></g><g transform="translate(-1880,-530) scale(1,1)"><rect fill="#C0C0C0" stroke="none" x="1897" y="547" width="320" height="15" opacity="0.2"/></g><g transform="translate(-1880,-530) scale(1,1)"><rect fill="#C0C0C0" stroke="none" x="1897" y="561" width="800" height="876" opacity="0.2"/></g><g transform="translate(-1880,-530) scale(1,1)"><rect fill="#ffffff" stroke="none" x="1890" y="555" width="800" height="875"/></g><g transform="translate(-1880,-530) scale(1,1)"><path fill="none" stroke="#000000" d="M 1890 555 L 2690 555 L 2690 1430 L 1890 1430 L 1890 555 Z Z" stroke-miterlimit="10"/></g><g transform="translate(-1880,-530) scale(1,1)"><rect fill="#ffffff" stroke="none" x="1890" y="540" width="320" height="15"/></g><g transform="translate(-1880,-530) scale(1,1)"><path fill="none" stroke="#000000" d="M 1890 540 L 2210 540 L 2210 555 L 1890 555 L 1890 540 Z Z" stroke-miterlimit="10"/></g><g transform="translate(-1880,-530) scale(1,1)"><rect fill="#ffffff" stroke="none" x="1890" y="554" width="800" height="876"/></g><g transform="translate(-1880,-530) scale(1,1)"><path fill="none" stroke="#000000" d="M 1890 554 L 2690 554 L 2690 1430 L 1890 1430 L 1890 554 Z Z" stroke-miterlimit="10"/></g><g transform="translate(-1880,-530) scale(1,1)"><g><path fill="none" stroke="none"/><text fill="#000000" stroke="none" font-family="Arial" font-size="20px" font-style="normal" font-weight="bold" text-decoration="none" x="2222.7392578125" y="581.5">Business Logic</text></g></g><g transform="translate(-1880,-530) scale(1,1)"><rect fill="#C0C0C0" stroke="none" x="3048" y="939" width="340.2587890625" height="58" opacity="0.2"/></g><g transform="translate(-1880,-530) scale(1,1)"><rect fill="#ffffff" stroke="none" x="3041" y="932" width="340.2587890625" height="58"/></g><g transform="translate(-1880,-530) scale(1,1)"><path fill="none" stroke="#000000" d="M 3041 932 L 3381.2587890625 932 L 3381.2587890625 990 L 3041 990 L 3041 932 Z Z" stroke-miterlimit="10"/></g><g transform="translate(-1880,-530) scale(1,1)"><path fill="none" stroke="#000000" d="M 3041 957 L 3381.2587890625 957" stroke-miterlimit="10"/></g><g transform="translate(-1880,-530) scale(1,1)"><g><path fill="none" stroke="none"/><text fill="#000000" stroke="none" font-family="Arial" font-size="13px" font-style="normal" font-weight="bold" text-decoration="none" x="3185.481689453125" y="951.5">UserDao</text></g></g><g transform="translate(-1880,-530) scale(1,1)"><g><path fill="none" stroke="none"/><text fill="#000000" stroke="none" font-family="Arial" font-size="13px" font-style="normal" font-weight="normal" text-decoration="none" x="3046" y="974.5">+findById(Long id): User</text></g></g><g transform="translate(-1880,-530) scale(1,1)"><rect fill="#C0C0C0" stroke="none" x="3048" y="1045" width="340.2587890625" height="128" opacity="0.2"/></g><g transform="translate(-1880,-530) scale(1,1)"><rect fill="#ffffff" stroke="none" x="3041" y="1038" width="340.2587890625" height="128"/></g><g transform="translate(-1880,-530) scale(1,1)"><path fill="none" stroke="#000000" d="M 3041 1038 L 3381.2587890625 1038 L 3381.2587890625 1166 L 3041 1166 L 3041 1038 Z Z" stroke-miterlimit="10"/></g><g transform="translate(-1880,-530) scale(1,1)"><path fill="none" stroke="#000000" d="M 3041 1063 L 3381.2587890625 1063" stroke-miterlimit="10"/></g><g transform="translate(-1880,-530) scale(1,1)"><g><path fill="none" stroke="none"/><text fill="#000000" stroke="none" font-family="Arial" font-size="13px" font-style="normal" font-weight="bold" text-decoration="none" x="3178.258056640625" y="1057.5">WaybillDao</text></g></g><g transform="translate(-1880,-530) scale(1,1)"><g><path fill="none" stroke="none"/><text fill="#000000" stroke="none" font-family="Arial" font-size="13px" font-style="normal" font-weight="normal" text-decoration="none" x="3046" y="1080.5">+findById(Long id): Waybill</text></g></g><g transform="translate(-1880,-530) scale(1,1)"><g><path fill="none" stroke="none"/><text fill="#000000" stroke="none" font-family="Arial" font-size="13px" font-style="normal" font-weight="normal" text-decoration="none" x="3046" y="1095.5">+findProposedBySender(User u): List&lt;Waybill&gt;</text></g></g><g transform="translate(-1880,-530) scale(1,1)"><g><path fill="none" stroke="none"/><text fill="#000000" stroke="none" font-family="Arial" font-size="13px" font-style="normal" font-weight="normal" text-decoration="none" x="3046" y="1110.5">+findValidatedBySender(User u): List&lt;Waybill&gt;</text></g></g><g transform="translate(-1880,-530) scale(1,1)"><g><path fill="none" stroke="none"/><text fill="#000000" stroke="none" font-family="Arial" font-size="13px" font-style="normal" font-weight="normal" text-decoration="none" x="3046" y="1125.5">+findProposedByAgency(Agency a): List&lt;Waybill&gt;</text></g></g><g transform="translate(-1880,-530) scale(1,1)"><g><path fill="none" stroke="none"/><text fill="#000000" stroke="none" font-family="Arial" font-size="13px" font-style="normal" font-weight="normal" text-decoration="none" x="3046" y="1140.5">+findUnassignedToDriver(Agency a): List&lt;Waybill&gt;</text></g></g><g transform="translate(-1880,-530) scale(1,1)"><rect fill="#C0C0C0" stroke="none" x="3048" y="1211" width="340.2587890625" height="66" opacity="0.2"/></g><g transform="translate(-1880,-530) scale(1,1)"><rect fill="#ffffff" stroke="none" x="3041" y="1204" width="340.2587890625" height="66"/></g><g transform="translate(-1880,-530) scale(1,1)"><path fill="none" stroke="#000000" d="M 3041 1204 L 3381.2587890625 1204 L 3381.2587890625 1270 L 3041 1270 L 3041 1204 Z Z" stroke-miterlimit="10"/></g><g transform="translate(-1880,-530) scale(1,1)"><path fill="none" stroke="#000000" d="M 3041 1229 L 3381.2587890625 1229" stroke-miterlimit="10"/></g><g transform="translate(-1880,-530) scale(1,1)"><g><path fill="none" stroke="none"/><text fill="#000000" stroke="none" font-family="Arial" font-size="13px" font-style="normal" font-weight="bold" text-decoration="none" x="3177.172607421875" y="1223.5">MissionDao</text></g></g><g transform="translate(-1880,-530) scale(1,1)"><g><path fill="none" stroke="none"/><text fill="#000000" stroke="none" font-family="Arial" font-size="13px" font-style="normal" font-weight="normal" text-decoration="none" x="3046" y="1246.5">+findById(Long id): Mission</text></g></g><g transform="translate(-1880,-530) scale(1,1)"><g><path fill="none" stroke="none"/><text fill="#000000" stroke="none" font-family="Arial" font-size="13px" font-style="normal" font-weight="normal" text-decoration="none" x="3046" y="1261.5">+findByDriverAndDate(User driver, Calendar d): null</text></g></g><g transform="translate(-1880,-530) scale(1,1)"><path fill="none" stroke="#000000" d="M 2437 1040 L 2620 1040 L 2620 1120 L 3041 1120" stroke-miterlimit="10" stroke-dasharray="3"/></g><g transform="translate(-1880,-530) scale(1,1)"><path fill="none" stroke="#000000" d="M 3030.837325142376 1124.2095177560159 L 3041 1120 L 3030.837325142376 1115.7904822439841" stroke-miterlimit="10"/></g><g transform="translate(-1880,-530) scale(1,1)"><path fill="none" stroke="#000000" d="M 2437 1070 L 2570 1070 L 2570 1250 L 3041 1250" stroke-miterlimit="10" stroke-dasharray="3"/></g><g transform="translate(-1880,-530) scale(1,1)"><path fill="none" stroke="#000000" d="M 3030.837325142376 1254.2095177560159 L 3041 1250 L 3030.837325142376 1245.7904822439841" stroke-miterlimit="10"/></g><g transform="translate(-1880,-530) scale(1,1)"><path fill="none" stroke="#000000" d="M 2070 773 L 2070 750 L 2310 750 L 2310 715" stroke-miterlimit="10"/></g><g transform="translate(-1880,-530) scale(1,1)"><path fill="#FFFFFF" stroke="none" d="M 2318.4190355120318 735.3253497152483 L 2310 715 L 2301.5809644879682 735.3253497152483"/></g><g transform="translate(-1880,-530) scale(1,1)"><path fill="none" stroke="#000000" d="M 2318.4190355120318 735.3253497152483 L 2310 715 L 2301.5809644879682 735.3253497152483 L 2318.4190355120318 735.3253497152483" stroke-miterlimit="10"/></g><g transform="translate(-1880,-530) scale(1,1)"><path fill="none" stroke="#000000" d="M 2310 773 L 2310 715" stroke-miterlimit="10"/></g><g transform="translate(-1880,-530) scale(1,1)"><path fill="#FFFFFF" stroke="none" d="M 2318.4190355120318 735.3253497152483 L 2310 715 L 2301.5809644879682 735.3253497152483"/></g><g transform="translate(-1880,-530) scale(1,1)"><path fill="none" stroke="#000000" d="M 2318.4190355120318 735.3253497152483 L 2310 715 L 2301.5809644879682 735.3253497152483 L 2318.4190355120318 735.3253497152483" stroke-miterlimit="10"/></g><g transform="translate(-1880,-530) scale(1,1)"><path fill="none" stroke="#000000" d="M 2540 773 L 2540 750 L 2310 750 L 2310 715" stroke-miterlimit="10"/></g><g transform="translate(-1880,-530) scale(1,1)"><path fill="#FFFFFF" stroke="none" d="M 2318.4190355120318 735.3253497152483 L 2310 715 L 2301.5809644879682 735.3253497152483"/></g><g transform="translate(-1880,-530) scale(1,1)"><path fill="none" stroke="#000000" d="M 2318.4190355120318 735.3253497152483 L 2310 715 L 2301.5809644879682 735.3253497152483 L 2318.4190355120318 735.3253497152483" stroke-miterlimit="10"/></g><g transform="translate(-1880,-530) scale(1,1)"><rect fill="#C0C0C0" stroke="none" x="3048" y="1317" width="340.2587890625" height="60" opacity="0.2"/></g><g transform="translate(-1880,-530) scale(1,1)"><rect fill="#ffffff" stroke="none" x="3041" y="1310" width="340.2587890625" height="60"/></g><g transform="translate(-1880,-530) scale(1,1)"><path fill="none" stroke="#000000" d="M 3041 1310 L 3381.2587890625 1310 L 3381.2587890625 1370 L 3041 1370 L 3041 1310 Z Z" stroke-miterlimit="10"/></g><g transform="translate(-1880,-530) scale(1,1)"><path fill="none" stroke="#000000" d="M 3041 1335 L 3381.2587890625 1335" stroke-miterlimit="10"/></g><g transform="translate(-1880,-530) scale(1,1)"><g><path fill="none" stroke="none"/><text fill="#000000" stroke="none" font-family="Arial" font-size="13px" font-style="normal" font-weight="bold" text-decoration="none" x="3185.837158203125" y="1329.5">RoleDao</text></g></g><g transform="translate(-1880,-530) scale(1,1)"><g><path fill="none" stroke="none"/><text fill="#000000" stroke="none" font-family="Arial" font-size="13px" font-style="normal" font-weight="normal" text-decoration="none" x="3046" y="1352.5">+findById(Long Id): Role</text></g></g><g transform="translate(-1880,-530) scale(1,1)"><path fill="none" stroke="#000000" d="M 2437 1232 L 2530 1232 L 2530 1330 L 3041 1330" stroke-miterlimit="10" stroke-dasharray="3"/></g><g transform="translate(-1880,-530) scale(1,1)"><path fill="none" stroke="#000000" d="M 3030.837325142376 1334.2095177560159 L 3041 1330 L 3030.837325142376 1325.7904822439841" stroke-miterlimit="10"/></g><g transform="translate(-1880,-530) scale(1,1)"><path fill="none" stroke="#000000" d="M 2437 1350 L 3041 1350" stroke-miterlimit="10" stroke-dasharray="3"/></g><g transform="translate(-1880,-530) scale(1,1)"><path fill="none" stroke="#000000" d="M 3030.837325142376 1354.2095177560159 L 3041 1350 L 3030.837325142376 1345.7904822439841" stroke-miterlimit="10"/></g><g transform="translate(-1880,-530) scale(1,1)"><path fill="none" stroke="#000000" d="M 2487 690 L 2730 690 L 2730 1080 L 3041 1080" stroke-miterlimit="10" stroke-dasharray="3"/></g><g transform="translate(-1880,-530) scale(1,1)"><path fill="none" stroke="#000000" d="M 3030.837325142376 1084.2095177560159 L 3041 1080 L 3030.837325142376 1075.7904822439841" stroke-miterlimit="10"/></g><g transform="translate(-1880,-530) scale(1,1)"><path fill="none" stroke="#000000" d="M 2487 675 L 2870 675 L 2870 750 L 3041 750" stroke-miterlimit="10" stroke-dasharray="3"/></g><g transform="translate(-1880,-530) scale(1,1)"><path fill="none" stroke="#000000" d="M 3030.837325142376 754.209517756016 L 3041 750 L 3030.837325142376 745.790482243984" stroke-miterlimit="10"/></g><g transform="translate(-1880,-530) scale(1,1)"><path fill="none" stroke="#000000" d="M 2487 660 L 2830 660 L 2830 852 L 3041 852" stroke-miterlimit="10" stroke-dasharray="3"/></g><g transform="translate(-1880,-530) scale(1,1)"><path fill="none" stroke="#000000" d="M 3030.837325142376 856.209517756016 L 3041 852 L 3030.837325142376 847.790482243984" stroke-miterlimit="10"/></g><g transform="translate(-1880,-530) scale(1,1)"><path fill="none" stroke="#000000" d="M 2487 640 L 2810 640 L 2810 950 L 3041 950" stroke-miterlimit="10" stroke-dasharray="3"/></g><g transform="translate(-1880,-530) scale(1,1)"><path fill="none" stroke="#000000" d="M 3030.837325142376 954.209517756016 L 3041 950 L 3030.837325142376 945.790482243984" stroke-miterlimit="10"/></g><g transform="translate(-1880,-530) scale(1,1)"><path fill="none" stroke="#000000" d="M 2640 849 L 2660 849 L 2660 1220 L 3041 1220" stroke-miterlimit="10" stroke-dasharray="3"/></g><g transform="translate(-1880,-530) scale(1,1)"><path fill="none" stroke="#000000" d="M 3030.837325142376 1224.2095177560159 L 3041 1220 L 3030.837325142376 1215.7904822439841" stroke-miterlimit="10"/></g><g transform="translate(-1880,-530) scale(1,1)"><rect fill="#C0C0C0" stroke="none" x="2281" y="1905" width="180" height="96" opacity="0.2"/></g><g transform="translate(-1880,-530) scale(1,1)"><rect fill="#ffffff" stroke="none" x="2274" y="1898" width="180" height="96"/></g><g transform="translate(-1880,-530) scale(1,1)"><path fill="none" stroke="#000000" d="M 2274 1898 L 2454 1898 L 2454 1994 L 2274 1994 L 2274 1898 Z Z" stroke-miterlimit="10"/></g><g transform="translate(-1880,-530) scale(1,1)"><path fill="none" stroke="#000000" d="M 2274 1936 L 2454 1936" stroke-miterlimit="10"/></g><g transform="translate(-1880,-530) scale(1,1)"><g><path fill="none" stroke="none"/><text fill="#000000" stroke="none" font-family="Arial" font-size="13px" font-style="normal" font-weight="normal" text-decoration="none" x="2340.513671875" y="1915.5">«Entity»</text></g></g><g transform="translate(-1880,-530) scale(1,1)"><g><path fill="none" stroke="none"/><text fill="#000000" stroke="none" font-family="Arial" font-size="13px" font-style="italic" font-weight="bold" text-decoration="none" x="2350.6318359375" y="1930.5">Role</text></g></g><g transform="translate(-1880,-530) scale(1,1)"><rect fill="#C0C0C0" stroke="none" x="2566" y="1687" width="180" height="96" opacity="0.2"/></g><g transform="translate(-1880,-530) scale(1,1)"><rect fill="#ffffff" stroke="none" x="2559" y="1680" width="180" height="96"/></g><g transform="translate(-1880,-530) scale(1,1)"><path fill="none" stroke="#000000" d="M 2559 1680 L 2739 1680 L 2739 1776 L 2559 1776 L 2559 1680 Z Z" stroke-miterlimit="10"/></g><g transform="translate(-1880,-530) scale(1,1)"><path fill="none" stroke="#000000" d="M 2559 1718 L 2739 1718" stroke-miterlimit="10"/></g><g transform="translate(-1880,-530) scale(1,1)"><g><path fill="none" stroke="none"/><text fill="#000000" stroke="none" font-family="Arial" font-size="13px" font-style="normal" font-weight="normal" text-decoration="none" x="2625.513671875" y="1697.5">«Entity»</text></g></g><g transform="translate(-1880,-530) scale(1,1)"><g><path fill="none" stroke="none"/><text fill="#000000" stroke="none" font-family="Arial" font-size="13px" font-style="normal" font-weight="bold" text-decoration="none" x="2627.319580078125" y="1712.5">Agency</text></g></g><g transform="translate(-1880,-530) scale(1,1)"><rect fill="#C0C0C0" stroke="none" x="1991" y="1687" width="180" height="96" opacity="0.2"/></g><g transform="translate(-1880,-530) scale(1,1)"><rect fill="#ffffff" stroke="none" x="1984" y="1680" width="180" height="96"/></g><g transform="translate(-1880,-530) scale(1,1)"><path fill="none" stroke="#000000" d="M 1984 1680 L 2164 1680 L 2164 1776 L 1984 1776 L 1984 1680 Z Z" stroke-miterlimit="10"/></g><g transform="translate(-1880,-530) scale(1,1)"><path fill="none" stroke="#000000" d="M 1984 1718 L 2164 1718" stroke-miterlimit="10"/></g><g transform="translate(-1880,-530) scale(1,1)"><g><path fill="none" stroke="none"/><text fill="#000000" stroke="none" font-family="Arial" font-size="13px" font-style="normal" font-weight="normal" text-decoration="none" x="2050.513671875" y="1697.5">«Entity»</text></g></g><g transform="translate(-1880,-530) scale(1,1)"><g><path fill="none" stroke="none"/><text fill="#000000" stroke="none" font-family="Arial" font-size="13px" font-style="normal" font-weight="bold" text-decoration="none" x="2061.358642578125" y="1712.5">Item</text></g></g><g transform="translate(-1880,-530) scale(1,1)"><path fill="none" stroke="#000000" d="M 3381 1340 L 3400 1340 L 3400 1830 L 2370 1830 L 2370 1898" stroke-miterlimit="10" stroke-dasharray="3"/></g><g transform="translate(-1880,-530) scale(1,1)"><path fill="none" stroke="#000000" d="M 2365.790482243984 1887.837325142376 L 2370 1898 L 2374.209517756016 1887.837325142376" stroke-miterlimit="10"/></g><g transform="translate(-1880,-530) scale(1,1)"><path fill="none" stroke="#000000" d="M 3381 1227 L 3420 1227 L 3420 1610 L 2370 1610 L 2370 1680" stroke-miterlimit="10" stroke-dasharray="3"/></g><g transform="translate(-1880,-530) scale(1,1)"><path fill="none" stroke="#000000" d="M 2365.790482243984 1669.837325142376 L 2370 1680 L 2374.209517756016 1669.837325142376" stroke-miterlimit="10"/></g><g transform="translate(-1880,-530) scale(1,1)"><path fill="none" stroke="#000000" d="M 3381 1062 L 3440 1062 L 3440 1800 L 2080 1800 L 2080 1893" stroke-miterlimit="10" stroke-dasharray="3"/></g><g transform="translate(-1880,-530) scale(1,1)"><path fill="none" stroke="#000000" d="M 2075.790482243984 1882.837325142376 L 2080 1893 L 2084.209517756016 1882.837325142376" stroke-miterlimit="10"/></g><g transform="translate(-1880,-530) scale(1,1)"><path fill="none" stroke="#000000" d="M 3381 961 L 3470 961 L 3470 1860 L 2650 1860 L 2650 1894" stroke-miterlimit="10" stroke-dasharray="3"/></g><g transform="translate(-1880,-530) scale(1,1)"><path fill="none" stroke="#000000" d="M 2645.790482243984 1883.837325142376 L 2650 1894 L 2654.209517756016 1883.837325142376" stroke-miterlimit="10"/></g><g transform="translate(-1880,-530) scale(1,1)"><path fill="none" stroke="#000000" d="M 3381 842 L 3490 842 L 3490 1580 L 2080 1580 L 2080 1680" stroke-miterlimit="10" stroke-dasharray="3"/></g><g transform="translate(-1880,-530) scale(1,1)"><path fill="none" stroke="#000000" d="M 2075.790482243984 1669.837325142376 L 2080 1680 L 2084.209517756016 1669.837325142376" stroke-miterlimit="10"/></g><g transform="translate(-1880,-530) scale(1,1)"><path fill="none" stroke="#000000" d="M 3381 740 L 3510 740 L 3510 1640 L 2650 1640 L 2650 1680" stroke-miterlimit="10" stroke-dasharray="3"/></g><g transform="translate(-1880,-530) scale(1,1)"><path fill="none" stroke="#000000" d="M 2645.790482243984 1669.837325142376 L 2650 1680 L 2654.209517756016 1669.837325142376" stroke-miterlimit="10"/></g><g transform="translate(-1880,-530) scale(1,1)"><rect fill="#C0C0C0" stroke="none" x="2566" y="1901" width="180" height="96" opacity="0.2"/></g><g transform="translate(-1880,-530) scale(1,1)"><rect fill="#ffffff" stroke="none" x="2559" y="1894" width="180" height="96"/></g><g transform="translate(-1880,-530) scale(1,1)"><path fill="none" stroke="#000000" d="M 2559 1894 L 2739 1894 L 2739 1990 L 2559 1990 L 2559 1894 Z Z" stroke-miterlimit="10"/></g><g transform="translate(-1880,-530) scale(1,1)"><path fill="none" stroke="#000000" d="M 2559 1932 L 2739 1932" stroke-miterlimit="10"/></g><g transform="translate(-1880,-530) scale(1,1)"><g><path fill="none" stroke="none"/><text fill="#000000" stroke="none" font-family="Arial" font-size="13px" font-style="normal" font-weight="normal" text-decoration="none" x="2625.513671875" y="1911.5">«Entity»</text></g></g><g transform="translate(-1880,-530) scale(1,1)"><g><path fill="none" stroke="none"/><text fill="#000000" stroke="none" font-family="Arial" font-size="13px" font-style="normal" font-weight="bold" text-decoration="none" x="2635.2763671875" y="1926.5">User</text></g></g><g transform="translate(-1880,-530) scale(1,1)"><rect fill="#C0C0C0" stroke="none" x="2281" y="1687" width="180" height="96" opacity="0.2"/></g><g transform="translate(-1880,-530) scale(1,1)"><rect fill="#ffffff" stroke="none" x="2274" y="1680" width="180" height="96"/></g><g transform="translate(-1880,-530) scale(1,1)"><path fill="none" stroke="#000000" d="M 2274 1680 L 2454 1680 L 2454 1776 L 2274 1776 L 2274 1680 Z Z" stroke-miterlimit="10"/></g><g transform="translate(-1880,-530) scale(1,1)"><path fill="none" stroke="#000000" d="M 2274 1718 L 2454 1718" stroke-miterlimit="10"/></g><g transform="translate(-1880,-530) scale(1,1)"><g><path fill="none" stroke="none"/><text fill="#000000" stroke="none" font-family="Arial" font-size="13px" font-style="normal" font-weight="normal" text-decoration="none" x="2340.513671875" y="1697.5">«Entity»</text></g></g><g transform="translate(-1880,-530) scale(1,1)"><g><path fill="none" stroke="none"/><text fill="#000000" stroke="none" font-family="Arial" font-size="13px" font-style="normal" font-weight="bold" text-decoration="none" x="2341.96728515625" y="1712.5">Mission</text></g></g><g transform="translate(-1880,-530) scale(1,1)"><g><path fill="none" stroke="none"/><text fill="#000000" stroke="none" font-family="Arial" font-size="13px" font-style="normal" font-weight="normal" text-decoration="none" x="2279" y="1735.5">+addWaybill()</text></g></g><g transform="translate(-1880,-530) scale(1,1)"><rect fill="#C0C0C0" stroke="none" x="1991" y="1900" width="180" height="96" opacity="0.2"/></g><g transform="translate(-1880,-530) scale(1,1)"><rect fill="#ffffff" stroke="none" x="1984" y="1893" width="180" height="96"/></g><g transform="translate(-1880,-530) scale(1,1)"><path fill="none" stroke="#000000" d="M 1984 1893 L 2164 1893 L 2164 1989 L 1984 1989 L 1984 1893 Z Z" stroke-miterlimit="10"/></g><g transform="translate(-1880,-530) scale(1,1)"><path fill="none" stroke="#000000" d="M 1984 1931 L 2164 1931" stroke-miterlimit="10"/></g><g transform="translate(-1880,-530) scale(1,1)"><g><path fill="none" stroke="none"/><text fill="#000000" stroke="none" font-family="Arial" font-size="13px" font-style="normal" font-weight="normal" text-decoration="none" x="2050.513671875" y="1910.5">«Entity»</text></g></g><g transform="translate(-1880,-530) scale(1,1)"><g><path fill="none" stroke="none"/><text fill="#000000" stroke="none" font-family="Arial" font-size="13px" font-style="normal" font-weight="bold" text-decoration="none" x="2053.052734375" y="1925.5">Waybill</text></g></g><g transform="translate(-1880,-530) scale(1,1)"><path fill="none" stroke="#000000" d="M 2155 1240 L 1950 1240 L 1950 670 L 2138 670" stroke-miterlimit="10" stroke-dasharray="3"/></g><g transform="translate(-1880,-530) scale(1,1)"><path fill="none" stroke="#000000" d="M 2127.837325142376 674.209517756016 L 2138 670 L 2127.837325142376 665.790482243984" stroke-miterlimit="10"/></g><g transform="translate(-1880,-530) scale(1,1)"><path fill="none" stroke="#000000" d="M 2155 1340 L 1920 1340 L 1920 650 L 2138 650" stroke-miterlimit="10" stroke-dasharray="3"/></g><g transform="translate(-1880,-530) scale(1,1)"><path fill="none" stroke="#000000" d="M 2127.837325142376 654.209517756016 L 2138 650 L 2127.837325142376 645.790482243984" stroke-miterlimit="10"/></g><g transform="translate(-1880,-530) scale(1,1)"><rect fill="#C0C0C0" stroke="none" x="2162" y="987" width="281.74609375" height="160" opacity="0.2"/></g><g transform="translate(-1880,-530) scale(1,1)"><rect fill="#ffffff" stroke="none" x="2155" y="980" width="281.74609375" height="160"/></g><g transform="translate(-1880,-530) scale(1,1)"><path fill="none" stroke="#000000" d="M 2155 980 L 2436.74609375 980 L 2436.74609375 1140 L 2155 1140 L 2155 980 Z Z" stroke-miterlimit="10"/></g><g transform="translate(-1880,-530) scale(1,1)"><path fill="none" stroke="#000000" d="M 2155 1005 L 2436.74609375 1005" stroke-miterlimit="10"/></g><g transform="translate(-1880,-530) scale(1,1)"><g><path fill="none" stroke="none"/><text fill="#000000" stroke="none" font-family="Arial" font-size="13px" font-style="normal" font-weight="bold" text-decoration="none" x="2235.1767578125" y="999.5">HomePageController</text></g></g><g transform="translate(-1880,-530) scale(1,1)"><g><path fill="none" stroke="none"/><text fill="#000000" stroke="none" font-family="Arial" font-size="13px" font-style="normal" font-weight="normal" text-decoration="none" x="2160" y="1022.5">+checkIsLogged()</text></g></g><g transform="translate(-1880,-530) scale(1,1)"><g><path fill="none" stroke="none"/><text fill="#000000" stroke="none" font-family="Arial" font-size="13px" font-style="normal" font-weight="normal" text-decoration="none" x="2160" y="1037.5">+getProposedWaybillCustomer(): List&lt;Waybill&gt;</text></g></g><g transform="translate(-1880,-530) scale(1,1)"><g><path fill="none" stroke="none"/><text fill="#000000" stroke="none" font-family="Arial" font-size="13px" font-style="normal" font-weight="normal" text-decoration="none" x="2160" y="1052.5">+getValidatedWaybillCustomer(): List&lt;Waybill&gt;</text></g></g><g transform="translate(-1880,-530) scale(1,1)"><g><path fill="none" stroke="none"/><text fill="#000000" stroke="none" font-family="Arial" font-size="13px" font-style="normal" font-weight="normal" text-decoration="none" x="2160" y="1067.5">+getProposedWaybillOperator(): List&lt;Waybill&gt;</text></g></g><g transform="translate(-1880,-530) scale(1,1)"><g><path fill="none" stroke="none"/><text fill="#000000" stroke="none" font-family="Arial" font-size="13px" font-style="normal" font-weight="normal" text-decoration="none" x="2160" y="1082.5">+getUnassignedToDriver(): List &lt;Waybill&gt;</text></g></g><g transform="translate(-1880,-530) scale(1,1)"><g><path fill="none" stroke="none"/><text fill="#000000" stroke="none" font-family="Arial" font-size="13px" font-style="normal" font-weight="normal" text-decoration="none" x="2160" y="1097.5">+getTodayMission(): List&lt;Waybill&gt;</text></g></g><g transform="translate(-1880,-530) scale(1,1)"><rect fill="#C0C0C0" stroke="none" x="2162" y="1187" width="281.74609375" height="85" opacity="0.2"/></g><g transform="translate(-1880,-530) scale(1,1)"><rect fill="#ffffff" stroke="none" x="2155" y="1180" width="281.74609375" height="85"/></g><g transform="translate(-1880,-530) scale(1,1)"><path fill="none" stroke="#000000" d="M 2155 1180 L 2436.74609375 1180 L 2436.74609375 1265 L 2155 1265 L 2155 1180 Z Z" stroke-miterlimit="10"/></g><g transform="translate(-1880,-530) scale(1,1)"><path fill="none" stroke="#000000" d="M 2155 1205 L 2436.74609375 1205" stroke-miterlimit="10"/></g><g transform="translate(-1880,-530) scale(1,1)"><g><path fill="none" stroke="none"/><text fill="#000000" stroke="none" font-family="Arial" font-size="13px" font-style="normal" font-weight="bold" text-decoration="none" x="2217.4794921875" y="1199.5">ViewWaybillPageController</text></g></g><g transform="translate(-1880,-530) scale(1,1)"><g><path fill="none" stroke="none"/><text fill="#000000" stroke="none" font-family="Arial" font-size="13px" font-style="normal" font-weight="normal" text-decoration="none" x="2160" y="1222.5">#initWaybill()</text></g></g><g transform="translate(-1880,-530) scale(1,1)"><g><path fill="none" stroke="none"/><text fill="#000000" stroke="none" font-family="Arial" font-size="13px" font-style="normal" font-weight="normal" text-decoration="none" x="2160" y="1237.5">+getStrategy()</text></g></g><g transform="translate(-1880,-530) scale(1,1)"><g><path fill="none" stroke="none"/><text fill="#000000" stroke="none" font-family="Arial" font-size="13px" font-style="normal" font-weight="normal" text-decoration="none" x="2160" y="1252.5">+getWaybill()</text></g></g><g transform="translate(-1880,-530) scale(1,1)"><rect fill="#C0C0C0" stroke="none" x="2162" y="1307" width="281.74609375" height="107" opacity="0.2"/></g><g transform="translate(-1880,-530) scale(1,1)"><rect fill="#ffffff" stroke="none" x="2155" y="1300" width="281.74609375" height="107"/></g><g transform="translate(-1880,-530) scale(1,1)"><path fill="none" stroke="#000000" d="M 2155 1300 L 2436.74609375 1300 L 2436.74609375 1407 L 2155 1407 L 2155 1300 Z Z" stroke-miterlimit="10"/></g><g transform="translate(-1880,-530) scale(1,1)"><path fill="none" stroke="#000000" d="M 2155 1325 L 2436.74609375 1325" stroke-miterlimit="10"/></g><g transform="translate(-1880,-530) scale(1,1)"><g><path fill="none" stroke="none"/><text fill="#000000" stroke="none" font-family="Arial" font-size="13px" font-style="normal" font-weight="bold" text-decoration="none" x="2220.36767578125" y="1319.5">EditWaybillPageController</text></g></g><g transform="translate(-1880,-530) scale(1,1)"><g><path fill="none" stroke="none"/><text fill="#000000" stroke="none" font-family="Arial" font-size="13px" font-style="normal" font-weight="normal" text-decoration="none" x="2160" y="1342.5">#initWaybill(): void</text></g></g><g transform="translate(-1880,-530) scale(1,1)"><g><path fill="none" stroke="none"/><text fill="#000000" stroke="none" font-family="Arial" font-size="13px" font-style="normal" font-weight="normal" text-decoration="none" x="2160" y="1357.5">+getStrategy()</text></g></g><g transform="translate(-1880,-530) scale(1,1)"><g><path fill="none" stroke="none"/><text fill="#000000" stroke="none" font-family="Arial" font-size="13px" font-style="normal" font-weight="normal" text-decoration="none" x="2160" y="1372.5">+getWaybill()</text></g></g><g transform="translate(-1880,-530) scale(1,1)"><g><path fill="none" stroke="none"/><text fill="#000000" stroke="none" font-family="Arial" font-size="13px" font-style="normal" font-weight="normal" text-decoration="none" x="2160" y="1387.5">+save()</text></g></g><g transform="translate(-1880,-530) scale(1,1)"><g><path fill="none" stroke="none"/><text fill="#000000" stroke="none" font-family="Arial" font-size="13px" font-style="normal" font-weight="normal" text-decoration="none" x="2160" y="1402.5">+signAndSave()</text></g></g><g transform="translate(-1880,-530) scale(1,1)"><rect fill="#C0C0C0" stroke="none" x="1997" y="780" width="190" height="132" opacity="0.2"/></g><g transform="translate(-1880,-530) scale(1,1)"><rect fill="#ffffff" stroke="none" x="1990" y="773" width="190" height="132"/></g><g transform="translate(-1880,-530) scale(1,1)"><path fill="none" stroke="#000000" d="M 1990 773 L 2180 773 L 2180 905 L 1990 905 L 1990 773 Z Z" stroke-miterlimit="10"/></g><g transform="translate(-1880,-530) scale(1,1)"><path fill="none" stroke="#000000" d="M 1990 798 L 2180 798" stroke-miterlimit="10"/></g><g transform="translate(-1880,-530) scale(1,1)"><g><path fill="none" stroke="none"/><text fill="#000000" stroke="none" font-family="Arial" font-size="13px" font-style="normal" font-weight="bold" text-decoration="none" x="2032.619140625" y="792.5">CustomerStrategy</text></g></g><g transform="translate(-1880,-530) scale(1,1)"><g><path fill="none" stroke="none"/><text fill="#000000" stroke="none" font-family="Arial" font-size="13px" font-style="normal" font-weight="normal" text-decoration="none" x="1995" y="815.5">+checkEdit()</text></g></g><g transform="translate(-1880,-530) scale(1,1)"><g><path fill="none" stroke="none"/><text fill="#000000" stroke="none" font-family="Arial" font-size="13px" font-style="normal" font-weight="normal" text-decoration="none" x="1995" y="830.5">+setAgency(Long id)</text></g></g><g transform="translate(-1880,-530) scale(1,1)"><g><path fill="none" stroke="none"/><text fill="#000000" stroke="none" font-family="Arial" font-size="13px" font-style="normal" font-weight="normal" text-decoration="none" x="1995" y="845.5">+setNewItem(Long id)</text></g></g><g transform="translate(-1880,-530) scale(1,1)"><rect fill="#C0C0C0" stroke="none" x="2227" y="780" width="190" height="132" opacity="0.2"/></g><g transform="translate(-1880,-530) scale(1,1)"><rect fill="#ffffff" stroke="none" x="2220" y="773" width="190" height="132"/></g><g transform="translate(-1880,-530) scale(1,1)"><path fill="none" stroke="#000000" d="M 2220 773 L 2410 773 L 2410 905 L 2220 905 L 2220 773 Z Z" stroke-miterlimit="10"/></g><g transform="translate(-1880,-530) scale(1,1)"><path fill="none" stroke="#000000" d="M 2220 798 L 2410 798" stroke-miterlimit="10"/></g><g transform="translate(-1880,-530) scale(1,1)"><g><path fill="none" stroke="none"/><text fill="#000000" stroke="none" font-family="Arial" font-size="13px" font-style="normal" font-weight="bold" text-decoration="none" x="2265.142333984375" y="792.5">OperatorStrategy</text></g></g><g transform="translate(-1880,-530) scale(1,1)"><g><path fill="none" stroke="none"/><text fill="#000000" stroke="none" font-family="Arial" font-size="13px" font-style="normal" font-weight="normal" text-decoration="none" x="2225" y="815.5">+checkEdit()</text></g></g><g transform="translate(-1880,-530) scale(1,1)"><g><path fill="none" stroke="none"/><text fill="#000000" stroke="none" font-family="Arial" font-size="13px" font-style="normal" font-weight="normal" text-decoration="none" x="2225" y="830.5">+setSender(Long id)</text></g></g><g transform="translate(-1880,-530) scale(1,1)"><g><path fill="none" stroke="none"/><text fill="#000000" stroke="none" font-family="Arial" font-size="13px" font-style="normal" font-weight="normal" text-decoration="none" x="2225" y="845.5">+setAgency(Long id)</text></g></g><g transform="translate(-1880,-530) scale(1,1)"><g><path fill="none" stroke="none"/><text fill="#000000" stroke="none" font-family="Arial" font-size="13px" font-style="normal" font-weight="normal" text-decoration="none" x="2225" y="860.5">+setNewItem(Long id)</text></g></g><g transform="translate(-1880,-530) scale(1,1)"><g><path fill="none" stroke="none"/><text fill="#000000" stroke="none" font-family="Arial" font-size="13px" font-style="normal" font-weight="normal" text-decoration="none" x="2225" y="875.5">+save()</text></g></g><g transform="translate(-1880,-530) scale(1,1)"><rect fill="#C0C0C0" stroke="none" x="2457" y="780" width="190" height="132" opacity="0.2"/></g><g transform="translate(-1880,-530) scale(1,1)"><rect fill="#ffffff" stroke="none" x="2450" y="773" width="190" height="132"/></g><g transform="translate(-1880,-530) scale(1,1)"><path fill="none" stroke="#000000" d="M 2450 773 L 2640 773 L 2640 905 L 2450 905 L 2450 773 Z Z" stroke-miterlimit="10"/></g><g transform="translate(-1880,-530) scale(1,1)"><path fill="none" stroke="#000000" d="M 2450 798 L 2640 798" stroke-miterlimit="10"/></g><g transform="translate(-1880,-530) scale(1,1)"><g><path fill="none" stroke="none"/><text fill="#000000" stroke="none" font-family="Arial" font-size="13px" font-style="normal" font-weight="bold" text-decoration="none" x="2503.4609375" y="792.5">DriverStrategy</text></g></g><g transform="translate(-1880,-530) scale(1,1)"><g><path fill="none" stroke="none"/><text fill="#000000" stroke="none" font-family="Arial" font-size="13px" font-style="normal" font-weight="normal" text-decoration="none" x="2455" y="815.5">+checkEdit()</text></g></g><g transform="translate(-1880,-530) scale(1,1)"><g><path fill="none" stroke="none"/><text fill="#000000" stroke="none" font-family="Arial" font-size="13px" font-style="normal" font-weight="normal" text-decoration="none" x="2455" y="830.5">+setSignAndTracking()</text></g></g><g transform="translate(-1880,-530) scale(1,1)"><rect fill="#C0C0C0" stroke="none" x="2145" y="607" width="348.9296875" height="115" opacity="0.2"/></g><g transform="translate(-1880,-530) scale(1,1)"><rect fill="#ffffff" stroke="none" x="2138" y="600" width="348.9296875" height="115"/></g><g transform="translate(-1880,-530) scale(1,1)"><path fill="none" stroke="#000000" d="M 2138 600 L 2486.9296875 600 L 2486.9296875 715 L 2138 715 L 2138 600 Z Z" stroke-miterlimit="10"/></g><g transform="translate(-1880,-530) scale(1,1)"><path fill="none" stroke="#000000" d="M 2138 625 L 2486.9296875 625" stroke-miterlimit="10"/></g><g transform="translate(-1880,-530) scale(1,1)"><path fill="none" stroke="#000000" d="M 2138 648 L 2486.9296875 648" stroke-miterlimit="10"/></g><g transform="translate(-1880,-530) scale(1,1)"><g><path fill="none" stroke="none"/><text fill="#000000" stroke="none" font-family="Arial" font-size="13px" font-style="normal" font-weight="bold" text-decoration="none" x="2274.889892578125" y="619.5">RoleStrategy</text></g></g><g transform="translate(-1880,-530) scale(1,1)"><g><path fill="none" stroke="none"/><text fill="#000000" stroke="none" font-family="Arial" font-size="13px" font-style="normal" font-weight="normal" text-decoration="none" x="2143" y="642.5">#waybill</text></g></g><g transform="translate(-1880,-530) scale(1,1)"><g><path fill="none" stroke="none"/><text fill="#000000" stroke="none" font-family="Arial" font-size="13px" font-style="normal" font-weight="normal" text-decoration="none" x="2143" y="665.5">+getStrategyFrom(Role r, String wid, User u): RoleStrategy</text><path fill="none" stroke="#000000" d="M 2143 665.5 L 2482.9296875 665.5" stroke-miterlimit="10"/></g></g><g transform="translate(-1880,-530) scale(1,1)"><rect fill="#C0C0C0" stroke="none" x="3048" y="727" width="340.2587890625" height="60" opacity="0.2"/></g><g transform="translate(-1880,-530) scale(1,1)"><rect fill="#ffffff" stroke="none" x="3041" y="720" width="340.2587890625" height="60"/></g><g transform="translate(-1880,-530) scale(1,1)"><path fill="none" stroke="#000000" d="M 3041 720 L 3381.2587890625 720 L 3381.2587890625 780 L 3041 780 L 3041 720 Z Z" stroke-miterlimit="10"/></g><g transform="translate(-1880,-530) scale(1,1)"><path fill="none" stroke="#000000" d="M 3041 745 L 3381.2587890625 745" stroke-miterlimit="10"/></g><g transform="translate(-1880,-530) scale(1,1)"><g><path fill="none" stroke="none"/><text fill="#000000" stroke="none" font-family="Arial" font-size="13px" font-style="normal" font-weight="bold" text-decoration="none" x="3177.52490234375" y="739.5">AgencyDao</text></g></g><g transform="translate(-1880,-530) scale(1,1)"><g><path fill="none" stroke="none"/><text fill="#000000" stroke="none" font-family="Arial" font-size="13px" font-style="normal" font-weight="normal" text-decoration="none" x="3046" y="762.5">+findbyId(Long id): Agency</text></g></g><g transform="translate(-1880,-530) scale(1,1)"><rect fill="#C0C0C0" stroke="none" x="3048" y="827" width="340.2587890625" height="64" opacity="0.2"/></g><g transform="translate(-1880,-530) scale(1,1)"><rect fill="#ffffff" stroke="none" x="3041" y="820" width="340.2587890625" height="64"/></g><g transform="translate(-1880,-530) scale(1,1)"><path fill="none" stroke="#000000" d="M 3041 820 L 3381.2587890625 820 L 3381.2587890625 884 L 3041 884 L 3041 820 Z Z" stroke-miterlimit="10"/></g><g transform="translate(-1880,-530) scale(1,1)"><path fill="none" stroke="#000000" d="M 3041 845 L 3381.2587890625 845" stroke-miterlimit="10"/></g><g transform="translate(-1880,-530) scale(1,1)"><g><path fill="none" stroke="none"/><text fill="#000000" stroke="none" font-family="Arial" font-size="13px" font-style="normal" font-weight="bold" text-decoration="none" x="3186.56396484375" y="839.5">ItemDao</text></g></g><g transform="translate(-1880,-530) scale(1,1)"><g><path fill="none" stroke="none"/><text fill="#000000" stroke="none" font-family="Arial" font-size="13px" font-style="normal" font-weight="normal" text-decoration="none" x="3046" y="862.5">+findById(Long id): Item</text></g></g></g></svg>