<svg version="1.1" xmlns="http://www.w3.org/2000/svg" xmlns:xlink="http://www.w3.org/1999/xlink" width="1201" height="1010"><defs/><g><g transform="translate(-2050,-430) scale(1,1)"><rect fill="#C0C0C0" stroke="none" x="2737" y="1087" width="180" height="15" opacity="0.2"/></g><g transform="translate(-2050,-430) scale(1,1)"><rect fill="#C0C0C0" stroke="none" x="2737" y="1101" width="450" height="326" opacity="0.2"/></g><g transform="translate(-2050,-430) scale(1,1)"><rect fill="#ffffff" stroke="none" x="2730" y="1095" width="450" height="325"/></g><g transform="translate(-2050,-430) scale(1,1)"><path fill="none" stroke="#000000" d="M 2730 1095 L 3180 1095 L 3180 1420 L 2730 1420 L 2730 1095 Z Z" stroke-miterlimit="10"/></g><g transform="translate(-2050,-430) scale(1,1)"><rect fill="#ffffff" stroke="none" x="2730" y="1080" width="180" height="15"/></g><g transform="translate(-2050,-430) scale(1,1)"><path fill="none" stroke="#000000" d="M 2730 1080 L 2910 1080 L 2910 1095 L 2730 1095 L 2730 1080 Z Z" stroke-miterlimit="10"/></g><g transform="translate(-2050,-430) scale(1,1)"><rect fill="#ffffff" stroke="none" x="2730" y="1094" width="450" height="326"/></g><g transform="translate(-2050,-430) scale(1,1)"><path fill="none" stroke="#000000" d="M 2730 1094 L 3180 1094 L 3180 1420 L 2730 1420 L 2730 1094 Z Z" stroke-miterlimit="10"/></g><g transform="translate(-2050,-430) scale(1,1)"><g><path fill="none" stroke="none"/><text fill="#000000" stroke="none" font-family="Arial" font-size="20px" font-style="normal" font-weight="bold" text-decoration="none" x="2890.52734375" y="1121.5">Domain Model</text></g></g><g transform="translate(-2050,-430) scale(1,1)"><rect fill="#C0C0C0" stroke="none" x="2737" y="617" width="180" height="15" opacity="0.2"/></g><g transform="translate(-2050,-430) scale(1,1)"><rect fill="#C0C0C0" stroke="none" x="2737" y="631" width="450" height="416" opacity="0.2"/></g><g transform="translate(-2050,-430) scale(1,1)"><rect fill="#ffffff" stroke="none" x="2730" y="625" width="450" height="415"/></g><g transform="translate(-2050,-430) scale(1,1)"><path fill="none" stroke="#000000" d="M 2730 625 L 3180 625 L 3180 1040 L 2730 1040 L 2730 625 Z Z" stroke-miterlimit="10"/></g><g transform="translate(-2050,-430) scale(1,1)"><rect fill="#ffffff" stroke="none" x="2730" y="610" width="180" height="15"/></g><g transform="translate(-2050,-430) scale(1,1)"><path fill="none" stroke="#000000" d="M 2730 610 L 2910 610 L 2910 625 L 2730 625 L 2730 610 Z Z" stroke-miterlimit="10"/></g><g transform="translate(-2050,-430) scale(1,1)"><rect fill="#ffffff" stroke="none" x="2730" y="624" width="450" height="416"/></g><g transform="translate(-2050,-430) scale(1,1)"><path fill="none" stroke="#000000" d="M 2730 624 L 3180 624 L 3180 1040 L 2730 1040 L 2730 624 Z Z" stroke-miterlimit="10"/></g><g transform="translate(-2050,-430) scale(1,1)"><g><path fill="none" stroke="none"/><text fill="#000000" stroke="none" font-family="Arial" font-size="20px" font-style="normal" font-weight="bold" text-decoration="none" x="2928.330078125" y="651.5">DAOs</text></g></g><g transform="translate(-2050,-430) scale(1,1)"><rect fill="#C0C0C0" stroke="none" x="2067" y="447" width="184" height="15" opacity="0.2"/></g><g transform="translate(-2050,-430) scale(1,1)"><rect fill="#C0C0C0" stroke="none" x="2067" y="461" width="460" height="976" opacity="0.2"/></g><g transform="translate(-2050,-430) scale(1,1)"><rect fill="#ffffff" stroke="none" x="2060" y="455" width="460" height="975"/></g><g transform="translate(-2050,-430) scale(1,1)"><path fill="none" stroke="#000000" d="M 2060 455 L 2520 455 L 2520 1430 L 2060 1430 L 2060 455 Z Z" stroke-miterlimit="10"/></g><g transform="translate(-2050,-430) scale(1,1)"><rect fill="#ffffff" stroke="none" x="2060" y="440" width="184" height="15"/></g><g transform="translate(-2050,-430) scale(1,1)"><path fill="none" stroke="#000000" d="M 2060 440 L 2244 440 L 2244 455 L 2060 455 L 2060 440 Z Z" stroke-miterlimit="10"/></g><g transform="translate(-2050,-430) scale(1,1)"><rect fill="#ffffff" stroke="none" x="2060" y="454" width="460" height="976"/></g><g transform="translate(-2050,-430) scale(1,1)"><path fill="none" stroke="#000000" d="M 2060 454 L 2520 454 L 2520 1430 L 2060 1430 L 2060 454 Z Z" stroke-miterlimit="10"/></g><g transform="translate(-2050,-430) scale(1,1)"><g><path fill="none" stroke="none"/><text fill="#000000" stroke="none" font-family="Arial" font-size="20px" font-style="normal" font-weight="bold" text-decoration="none" x="2222.7392578125" y="481.5">Business Logic</text></g></g><g transform="translate(-2050,-430) scale(1,1)"><rect fill="#C0C0C0" stroke="none" x="2871" y="1242" width="180" height="70" opacity="0.2"/></g><g transform="translate(-2050,-430) scale(1,1)"><rect fill="#ffffff" stroke="none" x="2864" y="1235" width="180" height="70"/></g><g transform="translate(-2050,-430) scale(1,1)"><path fill="none" stroke="#000000" d="M 2864 1235 L 3044 1235 L 3044 1305 L 2864 1305 L 2864 1235 Z Z" stroke-miterlimit="10"/></g><g transform="translate(-2050,-430) scale(1,1)"><path fill="none" stroke="#000000" d="M 2864 1273 L 3044 1273" stroke-miterlimit="10"/></g><g transform="translate(-2050,-430) scale(1,1)"><g><path fill="none" stroke="none"/><text fill="#000000" stroke="none" font-family="Arial" font-size="13px" font-style="normal" font-weight="normal" text-decoration="none" x="2930.513671875" y="1252.5">«Entity»</text></g></g><g transform="translate(-2050,-430) scale(1,1)"><g><path fill="none" stroke="none"/><text fill="#000000" stroke="none" font-family="Arial" font-size="13px" font-style="normal" font-weight="bold" text-decoration="none" x="2940.2763671875" y="1267.5">User</text></g></g><g transform="translate(-2050,-430) scale(1,1)"><rect fill="#C0C0C0" stroke="none" x="2164" y="677" width="281.74609375" height="115" opacity="0.2"/></g><g transform="translate(-2050,-430) scale(1,1)"><rect fill="#ffffff" stroke="none" x="2157" y="670" width="281.74609375" height="115"/></g><g transform="translate(-2050,-430) scale(1,1)"><path fill="none" stroke="#000000" d="M 2157 670 L 2438.74609375 670 L 2438.74609375 785 L 2157 785 L 2157 670 Z Z" stroke-miterlimit="10"/></g><g transform="translate(-2050,-430) scale(1,1)"><path fill="none" stroke="#000000" d="M 2157 695 L 2438.74609375 695" stroke-miterlimit="10"/></g><g transform="translate(-2050,-430) scale(1,1)"><path fill="none" stroke="#000000" d="M 2157 733 L 2438.74609375 733" stroke-miterlimit="10"/></g><g transform="translate(-2050,-430) scale(1,1)"><g><path fill="none" stroke="none"/><text fill="#000000" stroke="none" font-family="Arial" font-size="13px" font-style="normal" font-weight="bold" text-decoration="none" x="2223.09130859375" y="689.5">CustomersPageController</text></g></g><g transform="translate(-2050,-430) scale(1,1)"><g><path fill="none" stroke="none"/><text fill="#000000" stroke="none" font-family="Arial" font-size="13px" font-style="normal" font-weight="normal" text-decoration="none" x="2162" y="712.5">-customers: List&lt;User&gt;</text></g></g><g transform="translate(-2050,-430) scale(1,1)"><g><path fill="none" stroke="none"/><text fill="#000000" stroke="none" font-family="Arial" font-size="13px" font-style="normal" font-weight="normal" text-decoration="none" x="2162" y="727.5">-customerBean</text></g></g><g transform="translate(-2050,-430) scale(1,1)"><g><path fill="none" stroke="none"/><text fill="#000000" stroke="none" font-family="Arial" font-size="13px" font-style="normal" font-weight="normal" text-decoration="none" x="2162" y="750.5">+getCustomers()</text></g></g><g transform="translate(-2050,-430) scale(1,1)"><g><path fill="none" stroke="none"/><text fill="#000000" stroke="none" font-family="Arial" font-size="13px" font-style="normal" font-weight="normal" text-decoration="none" x="2162" y="765.5">+selectCustomer(User u)</text></g></g><g transform="translate(-2050,-430) scale(1,1)"><g><path fill="none" stroke="none"/><text fill="#000000" stroke="none" font-family="Arial" font-size="13px" font-style="normal" font-weight="normal" text-decoration="none" x="2162" y="780.5">+createCustomer()</text></g></g><g transform="translate(-2050,-430) scale(1,1)"><rect fill="#C0C0C0" stroke="none" x="2164" y="1287" width="281.74609375" height="107" opacity="0.2"/></g><g transform="translate(-2050,-430) scale(1,1)"><rect fill="#ffffff" stroke="none" x="2157" y="1280" width="281.74609375" height="107"/></g><g transform="translate(-2050,-430) scale(1,1)"><path fill="none" stroke="#000000" d="M 2157 1280 L 2438.74609375 1280 L 2438.74609375 1387 L 2157 1387 L 2157 1280 Z Z" stroke-miterlimit="10"/></g><g transform="translate(-2050,-430) scale(1,1)"><path fill="none" stroke="#000000" d="M 2157 1305 L 2438.74609375 1305" stroke-miterlimit="10"/></g><g transform="translate(-2050,-430) scale(1,1)"><path fill="none" stroke="#000000" d="M 2157 1343 L 2438.74609375 1343" stroke-miterlimit="10"/></g><g transform="translate(-2050,-430) scale(1,1)"><g><path fill="none" stroke="none"/><text fill="#000000" stroke="none" font-family="Arial" font-size="13px" font-style="normal" font-weight="bold" text-decoration="none" x="2229.949951171875" y="1299.5">EditFarePageController</text></g></g><g transform="translate(-2050,-430) scale(1,1)"><g><path fill="none" stroke="none"/><text fill="#000000" stroke="none" font-family="Arial" font-size="13px" font-style="normal" font-weight="normal" text-decoration="none" x="2162" y="1322.5">-fare</text></g></g><g transform="translate(-2050,-430) scale(1,1)"><g><path fill="none" stroke="none"/><text fill="#000000" stroke="none" font-family="Arial" font-size="13px" font-style="normal" font-weight="normal" text-decoration="none" x="2162" y="1337.5">-customerBean</text></g></g><g transform="translate(-2050,-430) scale(1,1)"><g><path fill="none" stroke="none"/><text fill="#000000" stroke="none" font-family="Arial" font-size="13px" font-style="normal" font-weight="normal" text-decoration="none" x="2162" y="1360.5">+getFare()</text></g></g><g transform="translate(-2050,-430) scale(1,1)"><g><path fill="none" stroke="none"/><text fill="#000000" stroke="none" font-family="Arial" font-size="13px" font-style="normal" font-weight="normal" text-decoration="none" x="2162" y="1375.5">+save(): String</text></g></g><g transform="translate(-2050,-430) scale(1,1)"><rect fill="#C0C0C0" stroke="none" x="2164" y="1140" width="281.74609375" height="115" opacity="0.2"/></g><g transform="translate(-2050,-430) scale(1,1)"><rect fill="#ffffff" stroke="none" x="2157" y="1133" width="281.74609375" height="115"/></g><g transform="translate(-2050,-430) scale(1,1)"><path fill="none" stroke="#000000" d="M 2157 1133 L 2438.74609375 1133 L 2438.74609375 1248 L 2157 1248 L 2157 1133 Z Z" stroke-miterlimit="10"/></g><g transform="translate(-2050,-430) scale(1,1)"><path fill="none" stroke="#000000" d="M 2157 1158 L 2438.74609375 1158" stroke-miterlimit="10"/></g><g transform="translate(-2050,-430) scale(1,1)"><path fill="none" stroke="#000000" d="M 2157 1196 L 2438.74609375 1196" stroke-miterlimit="10"/></g><g transform="translate(-2050,-430) scale(1,1)"><g><path fill="none" stroke="none"/><text fill="#000000" stroke="none" font-family="Arial" font-size="13px" font-style="normal" font-weight="bold" text-decoration="none" x="2227.061767578125" y="1152.5">ViewFarePageController</text></g></g><g transform="translate(-2050,-430) scale(1,1)"><g><path fill="none" stroke="none"/><text fill="#000000" stroke="none" font-family="Arial" font-size="13px" font-style="normal" font-weight="normal" text-decoration="none" x="2162" y="1175.5">-fare</text></g></g><g transform="translate(-2050,-430) scale(1,1)"><g><path fill="none" stroke="none"/><text fill="#000000" stroke="none" font-family="Arial" font-size="13px" font-style="normal" font-weight="normal" text-decoration="none" x="2162" y="1190.5">-customerBean</text></g></g><g transform="translate(-2050,-430) scale(1,1)"><g><path fill="none" stroke="none"/><text fill="#000000" stroke="none" font-family="Arial" font-size="13px" font-style="normal" font-weight="normal" text-decoration="none" x="2162" y="1213.5">+getFare(): Fare</text></g></g><g transform="translate(-2050,-430) scale(1,1)"><g><path fill="none" stroke="none"/><text fill="#000000" stroke="none" font-family="Arial" font-size="13px" font-style="normal" font-weight="normal" text-decoration="none" x="2162" y="1228.5">+edit(): String</text></g></g><g transform="translate(-2050,-430) scale(1,1)"><g><path fill="none" stroke="none"/><text fill="#000000" stroke="none" font-family="Arial" font-size="13px" font-style="normal" font-weight="normal" text-decoration="none" x="2162" y="1243.5">+back(): String</text></g></g><g transform="translate(-2050,-430) scale(1,1)"><rect fill="#C0C0C0" stroke="none" x="2164" y="957" width="281.74609375" height="160" opacity="0.2"/></g><g transform="translate(-2050,-430) scale(1,1)"><rect fill="#ffffff" stroke="none" x="2157" y="950" width="281.74609375" height="160"/></g><g transform="translate(-2050,-430) scale(1,1)"><path fill="none" stroke="#000000" d="M 2157 950 L 2438.74609375 950 L 2438.74609375 1110 L 2157 1110 L 2157 950 Z Z" stroke-miterlimit="10"/></g><g transform="translate(-2050,-430) scale(1,1)"><path fill="none" stroke="#000000" d="M 2157 975 L 2438.74609375 975" stroke-miterlimit="10"/></g><g transform="translate(-2050,-430) scale(1,1)"><path fill="none" stroke="#000000" d="M 2157 998 L 2438.74609375 998" stroke-miterlimit="10"/></g><g transform="translate(-2050,-430) scale(1,1)"><g><path fill="none" stroke="none"/><text fill="#000000" stroke="none" font-family="Arial" font-size="13px" font-style="normal" font-weight="bold" text-decoration="none" x="2215.140869140625" y="969.5">EditCustomerPageController</text></g></g><g transform="translate(-2050,-430) scale(1,1)"><g><path fill="none" stroke="none"/><text fill="#000000" stroke="none" font-family="Arial" font-size="13px" font-style="normal" font-weight="normal" text-decoration="none" x="2162" y="992.5">-customerBean</text></g></g><g transform="translate(-2050,-430) scale(1,1)"><g><path fill="none" stroke="none"/><text fill="#000000" stroke="none" font-family="Arial" font-size="13px" font-style="normal" font-weight="normal" text-decoration="none" x="2162" y="1015.5">+getCustomer(): User</text></g></g><g transform="translate(-2050,-430) scale(1,1)"><g><path fill="none" stroke="none"/><text fill="#000000" stroke="none" font-family="Arial" font-size="13px" font-style="normal" font-weight="normal" text-decoration="none" x="2162" y="1030.5">+viewFare(Fare f): String</text></g></g><g transform="translate(-2050,-430) scale(1,1)"><g><path fill="none" stroke="none"/><text fill="#000000" stroke="none" font-family="Arial" font-size="13px" font-style="normal" font-weight="normal" text-decoration="none" x="2162" y="1045.5">+createFare(): String</text></g></g><g transform="translate(-2050,-430) scale(1,1)"><g><path fill="none" stroke="none"/><text fill="#000000" stroke="none" font-family="Arial" font-size="13px" font-style="normal" font-weight="normal" text-decoration="none" x="2162" y="1060.5">+blockCustomer()</text></g></g><g transform="translate(-2050,-430) scale(1,1)"><g><path fill="none" stroke="none"/><text fill="#000000" stroke="none" font-family="Arial" font-size="13px" font-style="normal" font-weight="normal" text-decoration="none" x="2162" y="1075.5">+unclockCustomer()</text></g></g><g transform="translate(-2050,-430) scale(1,1)"><g><path fill="none" stroke="none"/><text fill="#000000" stroke="none" font-family="Arial" font-size="13px" font-style="normal" font-weight="normal" text-decoration="none" x="2162" y="1090.5">+save(): String</text></g></g><g transform="translate(-2050,-430) scale(1,1)"><g><path fill="none" stroke="none"/><text fill="#000000" stroke="none" font-family="Arial" font-size="13px" font-style="normal" font-weight="normal" text-decoration="none" x="2162" y="1105.5">+removeFare(Fare f)</text></g></g><g transform="translate(-2050,-430) scale(1,1)"><rect fill="#C0C0C0" stroke="none" x="2164" y="824" width="281.74609375" height="107" opacity="0.2"/></g><g transform="translate(-2050,-430) scale(1,1)"><rect fill="#ffffff" stroke="none" x="2157" y="817" width="281.74609375" height="107"/></g><g transform="translate(-2050,-430) scale(1,1)"><path fill="none" stroke="#000000" d="M 2157 817 L 2438.74609375 817 L 2438.74609375 924 L 2157 924 L 2157 817 Z Z" stroke-miterlimit="10"/></g><g transform="translate(-2050,-430) scale(1,1)"><path fill="none" stroke="#000000" d="M 2157 842 L 2438.74609375 842" stroke-miterlimit="10"/></g><g transform="translate(-2050,-430) scale(1,1)"><path fill="none" stroke="#000000" d="M 2157 865 L 2438.74609375 865" stroke-miterlimit="10"/></g><g transform="translate(-2050,-430) scale(1,1)"><g><path fill="none" stroke="none"/><text fill="#000000" stroke="none" font-family="Arial" font-size="13px" font-style="normal" font-weight="bold" text-decoration="none" x="2212.252685546875" y="836.5">ViewCustomerPageController</text></g></g><g transform="translate(-2050,-430) scale(1,1)"><g><path fill="none" stroke="none"/><text fill="#000000" stroke="none" font-family="Arial" font-size="13px" font-style="normal" font-weight="normal" text-decoration="none" x="2162" y="859.5">-customerBean</text></g></g><g transform="translate(-2050,-430) scale(1,1)"><g><path fill="none" stroke="none"/><text fill="#000000" stroke="none" font-family="Arial" font-size="13px" font-style="normal" font-weight="normal" text-decoration="none" x="2162" y="882.5">+getCustomer(): User</text></g></g><g transform="translate(-2050,-430) scale(1,1)"><g><path fill="none" stroke="none"/><text fill="#000000" stroke="none" font-family="Arial" font-size="13px" font-style="normal" font-weight="normal" text-decoration="none" x="2162" y="897.5">+edit(): String</text></g></g><g transform="translate(-2050,-430) scale(1,1)"><g><path fill="none" stroke="none"/><text fill="#000000" stroke="none" font-family="Arial" font-size="13px" font-style="normal" font-weight="normal" text-decoration="none" x="2162" y="912.5">+exit(): String</text></g></g><g transform="translate(-2050,-430) scale(1,1)"><rect fill="#C0C0C0" stroke="none" x="2832" y="804" width="269" height="90" opacity="0.2"/></g><g transform="translate(-2050,-430) scale(1,1)"><rect fill="#ffffff" stroke="none" x="2825" y="797" width="269" height="90"/></g><g transform="translate(-2050,-430) scale(1,1)"><path fill="none" stroke="#000000" d="M 2825 797 L 3094 797 L 3094 887 L 2825 887 L 2825 797 Z Z" stroke-miterlimit="10"/></g><g transform="translate(-2050,-430) scale(1,1)"><path fill="none" stroke="#000000" d="M 2825 822 L 3094 822" stroke-miterlimit="10"/></g><g transform="translate(-2050,-430) scale(1,1)"><g><path fill="none" stroke="none"/><text fill="#000000" stroke="none" font-family="Arial" font-size="13px" font-style="normal" font-weight="bold" text-decoration="none" x="2933.852294921875" y="816.5">UserDao</text></g></g><g transform="translate(-2050,-430) scale(1,1)"><g><path fill="none" stroke="none"/><text fill="#000000" stroke="none" font-family="Arial" font-size="13px" font-style="normal" font-weight="normal" text-decoration="none" x="2830" y="839.5">+findById(): User</text></g></g><g transform="translate(-2050,-430) scale(1,1)"><rect fill="#C0C0C0" stroke="none" x="2832" y="921" width="269" height="90" opacity="0.2"/></g><g transform="translate(-2050,-430) scale(1,1)"><rect fill="#ffffff" stroke="none" x="2825" y="914" width="269" height="90"/></g><g transform="translate(-2050,-430) scale(1,1)"><path fill="none" stroke="#000000" d="M 2825 914 L 3094 914 L 3094 1004 L 2825 1004 L 2825 914 Z Z" stroke-miterlimit="10"/></g><g transform="translate(-2050,-430) scale(1,1)"><path fill="none" stroke="#000000" d="M 2825 939 L 3094 939" stroke-miterlimit="10"/></g><g transform="translate(-2050,-430) scale(1,1)"><g><path fill="none" stroke="none"/><text fill="#000000" stroke="none" font-family="Arial" font-size="13px" font-style="normal" font-weight="bold" text-decoration="none" x="2934.2109375" y="933.5">FareDao</text></g></g><g transform="translate(-2050,-430) scale(1,1)"><g><path fill="none" stroke="none"/><text fill="#000000" stroke="none" font-family="Arial" font-size="13px" font-style="normal" font-weight="normal" text-decoration="none" x="2830" y="956.5">+findbyId(): Fare</text></g></g><g transform="translate(-2050,-430) scale(1,1)"><rect fill="#C0C0C0" stroke="none" x="2832" y="687" width="269" height="90" opacity="0.2"/></g><g transform="translate(-2050,-430) scale(1,1)"><rect fill="#ffffff" stroke="none" x="2825" y="680" width="269" height="90"/></g><g transform="translate(-2050,-430) scale(1,1)"><path fill="none" stroke="#000000" d="M 2825 680 L 3094 680 L 3094 770 L 2825 770 L 2825 680 Z Z" stroke-miterlimit="10"/></g><g transform="translate(-2050,-430) scale(1,1)"><path fill="none" stroke="#000000" d="M 2825 705 L 3094 705" stroke-miterlimit="10"/></g><g transform="translate(-2050,-430) scale(1,1)"><g><path fill="none" stroke="none"/><text fill="#000000" stroke="none" font-family="Arial" font-size="13px" font-style="normal" font-weight="bold" text-decoration="none" x="2919.40185546875" y="699.5">CustomerDao</text></g></g><g transform="translate(-2050,-430) scale(1,1)"><g><path fill="none" stroke="none"/><text fill="#000000" stroke="none" font-family="Arial" font-size="13px" font-style="normal" font-weight="normal" text-decoration="none" x="2830" y="722.5">+findByOperator(User op): List&lt;Customer&gt;</text></g></g><g transform="translate(-2050,-430) scale(1,1)"><path fill="none" stroke="#000000" d="M 2439 727 L 2825 727" stroke-miterlimit="10" stroke-dasharray="3"/></g><g transform="translate(-2050,-430) scale(1,1)"><path fill="none" stroke="#000000" d="M 2814.837325142376 731.209517756016 L 2825 727 L 2814.837325142376 722.790482243984" stroke-miterlimit="10"/></g><g transform="translate(-2050,-430) scale(1,1)"><path fill="none" stroke="#000000" d="M 2439 1030 L 2590 1030 L 2590 840 L 2825 840" stroke-miterlimit="10" stroke-dasharray="3"/></g><g transform="translate(-2050,-430) scale(1,1)"><path fill="none" stroke="#000000" d="M 2814.837325142376 844.209517756016 L 2825 840 L 2814.837325142376 835.790482243984" stroke-miterlimit="10"/></g><g transform="translate(-2050,-430) scale(1,1)"><path fill="none" stroke="#000000" d="M 2439 1190 L 2630 1190 L 2630 950 L 2825 950" stroke-miterlimit="10" stroke-dasharray="3"/></g><g transform="translate(-2050,-430) scale(1,1)"><path fill="none" stroke="#000000" d="M 2814.837325142376 954.209517756016 L 2825 950 L 2814.837325142376 945.790482243984" stroke-miterlimit="10"/></g><g transform="translate(-2050,-430) scale(1,1)"><path fill="none" stroke="#000000" d="M 2439 1333 L 2670 1333 L 2670 980 L 2825 980" stroke-miterlimit="10" stroke-dasharray="3"/></g><g transform="translate(-2050,-430) scale(1,1)"><path fill="none" stroke="#000000" d="M 2814.837325142376 984.209517756016 L 2825 980 L 2814.837325142376 975.790482243984" stroke-miterlimit="10"/></g><g transform="translate(-2050,-430) scale(1,1)"><path fill="none" stroke="#000000" d="M 3094 830 L 3220 830 L 3220 1260 L 3044 1260" stroke-miterlimit="10" stroke-dasharray="3"/></g><g transform="translate(-2050,-430) scale(1,1)"><path fill="none" stroke="#000000" d="M 3054.162674857624 1255.7904822439841 L 3044 1260 L 3054.162674857624 1264.2095177560159" stroke-miterlimit="10"/></g><g transform="translate(-2050,-430) scale(1,1)"><path fill="none" stroke="#000000" d="M 3094 960 L 3240 960 L 3240 1355 L 3044 1355" stroke-miterlimit="10" stroke-dasharray="3"/></g><g transform="translate(-2050,-430) scale(1,1)"><path fill="none" stroke="#000000" d="M 3054.162674857624 1350.7904822439841 L 3044 1355 L 3054.162674857624 1359.2095177560159" stroke-miterlimit="10"/></g><g transform="translate(-2050,-430) scale(1,1)"><path fill="none" stroke="#000000" d="M 3094 720 L 3200 720 L 3200 1165 L 3044 1165" stroke-miterlimit="10" stroke-dasharray="3"/></g><g transform="translate(-2050,-430) scale(1,1)"><path fill="none" stroke="#000000" d="M 3054.162674857624 1160.7904822439841 L 3044 1165 L 3054.162674857624 1169.2095177560159" stroke-miterlimit="10"/></g><g transform="translate(-2050,-430) scale(1,1)"><rect fill="#C0C0C0" stroke="none" x="2871" y="1337" width="180" height="70" opacity="0.2"/></g><g transform="translate(-2050,-430) scale(1,1)"><rect fill="#ffffff" stroke="none" x="2864" y="1330" width="180" height="70"/></g><g transform="translate(-2050,-430) scale(1,1)"><path fill="none" stroke="#000000" d="M 2864 1330 L 3044 1330 L 3044 1400 L 2864 1400 L 2864 1330 Z Z" stroke-miterlimit="10"/></g><g transform="translate(-2050,-430) scale(1,1)"><path fill="none" stroke="#000000" d="M 2864 1368 L 3044 1368" stroke-miterlimit="10"/></g><g transform="translate(-2050,-430) scale(1,1)"><g><path fill="none" stroke="none"/><text fill="#000000" stroke="none" font-family="Arial" font-size="13px" font-style="normal" font-weight="normal" text-decoration="none" x="2930.513671875" y="1347.5">«Entity»</text></g></g><g transform="translate(-2050,-430) scale(1,1)"><g><path fill="none" stroke="none"/><text fill="#000000" stroke="none" font-family="Arial" font-size="13px" font-style="normal" font-weight="bold" text-decoration="none" x="2940.635009765625" y="1362.5">Fare</text></g></g><g transform="translate(-2050,-430) scale(1,1)"><rect fill="#C0C0C0" stroke="none" x="2871" y="1147" width="180" height="70" opacity="0.2"/></g><g transform="translate(-2050,-430) scale(1,1)"><rect fill="#ffffff" stroke="none" x="2864" y="1140" width="180" height="70"/></g><g transform="translate(-2050,-430) scale(1,1)"><path fill="none" stroke="#000000" d="M 2864 1140 L 3044 1140 L 3044 1210 L 2864 1210 L 2864 1140 Z Z" stroke-miterlimit="10"/></g><g transform="translate(-2050,-430) scale(1,1)"><path fill="none" stroke="#000000" d="M 2864 1178 L 3044 1178" stroke-miterlimit="10"/></g><g transform="translate(-2050,-430) scale(1,1)"><g><path fill="none" stroke="none"/><text fill="#000000" stroke="none" font-family="Arial" font-size="13px" font-style="normal" font-weight="normal" text-decoration="none" x="2930.513671875" y="1157.5">«Entity»</text></g></g><g transform="translate(-2050,-430) scale(1,1)"><g><path fill="none" stroke="none"/><text fill="#000000" stroke="none" font-family="Arial" font-size="13px" font-style="normal" font-weight="bold" text-decoration="none" x="2925.825927734375" y="1172.5">Customer</text></g></g><g transform="translate(-2050,-430) scale(1,1)"><rect fill="#C0C0C0" stroke="none" x="2167" y="527" width="281.74609375" height="115" opacity="0.2"/></g><g transform="translate(-2050,-430) scale(1,1)"><rect fill="#ffffff" stroke="none" x="2160" y="520" width="281.74609375" height="115"/></g><g transform="translate(-2050,-430) scale(1,1)"><path fill="none" stroke="#000000" d="M 2160 520 L 2441.74609375 520 L 2441.74609375 635 L 2160 635 L 2160 520 Z Z" stroke-miterlimit="10"/></g><g transform="translate(-2050,-430) scale(1,1)"><path fill="none" stroke="#000000" d="M 2160 545 L 2441.74609375 545" stroke-miterlimit="10"/></g><g transform="translate(-2050,-430) scale(1,1)"><path fill="none" stroke="#000000" d="M 2160 568 L 2441.74609375 568" stroke-miterlimit="10"/></g><g transform="translate(-2050,-430) scale(1,1)"><g><path fill="none" stroke="none"/><text fill="#000000" stroke="none" font-family="Arial" font-size="13px" font-style="normal" font-weight="bold" text-decoration="none" x="2257.5185546875" y="539.5">CustomerBean</text></g></g><g transform="translate(-2050,-430) scale(1,1)"><g><path fill="none" stroke="none"/><text fill="#000000" stroke="none" font-family="Arial" font-size="13px" font-style="normal" font-weight="normal" text-decoration="none" x="2165" y="562.5">-customer</text></g></g><g transform="translate(-2050,-430) scale(1,1)"><g><path fill="none" stroke="none"/><text fill="#000000" stroke="none" font-family="Arial" font-size="13px" font-style="normal" font-weight="normal" text-decoration="none" x="2165" y="585.5">+initConversation()</text></g></g><g transform="translate(-2050,-430) scale(1,1)"><g><path fill="none" stroke="none"/><text fill="#000000" stroke="none" font-family="Arial" font-size="13px" font-style="normal" font-weight="normal" text-decoration="none" x="2165" y="600.5">+endConversation()</text></g></g><g transform="translate(-2050,-430) scale(1,1)"><g><path fill="none" stroke="none"/><text fill="#000000" stroke="none" font-family="Arial" font-size="13px" font-style="normal" font-weight="normal" text-decoration="none" x="2165" y="615.5">+setCustomer()</text></g></g><g transform="translate(-2050,-430) scale(1,1)"><g><path fill="none" stroke="none"/><text fill="#000000" stroke="none" font-family="Arial" font-size="13px" font-style="normal" font-weight="normal" text-decoration="none" x="2165" y="630.5">+getCustomer(): User</text></g></g><g transform="translate(-2050,-430) scale(1,1)"><path fill="none" stroke="#000000" d="M 2157 730 L 2130 730 L 2130 600 L 2160 600" stroke-miterlimit="10" stroke-dasharray="3"/></g><g transform="translate(-2050,-430) scale(1,1)"><path fill="none" stroke="#000000" d="M 2149.837325142376 604.209517756016 L 2160 600 L 2149.837325142376 595.790482243984" stroke-miterlimit="10"/></g><g transform="translate(-2050,-430) scale(1,1)"><path fill="none" stroke="#000000" d="M 2157 870 L 2120 870 L 2120 590 L 2160 590" stroke-miterlimit="10" stroke-dasharray="3"/></g><g transform="translate(-2050,-430) scale(1,1)"><path fill="none" stroke="#000000" d="M 2149.837325142376 594.209517756016 L 2160 590 L 2149.837325142376 585.790482243984" stroke-miterlimit="10"/></g><g transform="translate(-2050,-430) scale(1,1)"><path fill="none" stroke="#000000" d="M 2157 1040 L 2110 1040 L 2110 580 L 2160 580" stroke-miterlimit="10" stroke-dasharray="3"/></g><g transform="translate(-2050,-430) scale(1,1)"><path fill="none" stroke="#000000" d="M 2149.837325142376 584.209517756016 L 2160 580 L 2149.837325142376 575.790482243984" stroke-miterlimit="10"/></g><g transform="translate(-2050,-430) scale(1,1)"><path fill="none" stroke="#000000" d="M 2157 1200 L 2100 1200 L 2100 570 L 2160 570" stroke-miterlimit="10" stroke-dasharray="3"/></g><g transform="translate(-2050,-430) scale(1,1)"><path fill="none" stroke="#000000" d="M 2149.837325142376 574.209517756016 L 2160 570 L 2149.837325142376 565.790482243984" stroke-miterlimit="10"/></g><g transform="translate(-2050,-430) scale(1,1)"><path fill="none" stroke="#000000" d="M 2157 1340 L 2080 1340 L 2080 560 L 2160 560" stroke-miterlimit="10" stroke-dasharray="3"/></g><g transform="translate(-2050,-430) scale(1,1)"><path fill="none" stroke="#000000" d="M 2149.837325142376 564.209517756016 L 2160 560 L 2149.837325142376 555.790482243984" stroke-miterlimit="10"/></g></g></svg>