<svg version="1.1" xmlns="http://www.w3.org/2000/svg" xmlns:xlink="http://www.w3.org/1999/xlink" width="942.83251953125" height="1171"><defs/><g><g transform="translate(-1919,-1248) scale(1,1)"><rect fill="#C0C0C0" stroke="none" x="2298" y="1867" width="180" height="120" opacity="0.2"/></g><g transform="translate(-1919,-1248) scale(1,1)"><rect fill="#ffffff" stroke="none" x="2291" y="1860" width="180" height="120"/></g><g transform="translate(-1919,-1248) scale(1,1)"><path fill="none" stroke="#000000" d="M 2291 1860 L 2471 1860 L 2471 1980 L 2291 1980 L 2291 1860 Z Z" stroke-miterlimit="10"/></g><g transform="translate(-1919,-1248) scale(1,1)"><path fill="none" stroke="#000000" d="M 2291 1898 L 2471 1898" stroke-miterlimit="10"/></g><g transform="translate(-1919,-1248) scale(1,1)"><path fill="none" stroke="#000000" d="M 2291 1921 L 2471 1921" stroke-miterlimit="10"/></g><g transform="translate(-1919,-1248) scale(1,1)"><g><path fill="none" stroke="none"/><text fill="#000000" stroke="none" font-family="Arial" font-size="13px" font-style="normal" font-weight="normal" text-decoration="none" x="2357.513671875" y="1877.5">«Entity»</text></g></g><g transform="translate(-1919,-1248) scale(1,1)"><g><path fill="none" stroke="none"/><text fill="#000000" stroke="none" font-family="Arial" font-size="13px" font-style="italic" font-weight="bold" text-decoration="none" x="2367.6318359375" y="1892.5">Role</text></g></g><g transform="translate(-1919,-1248) scale(1,1)"><g><path fill="none" stroke="none"/><text fill="#000000" stroke="none" font-family="Arial" font-size="13px" font-style="normal" font-weight="normal" text-decoration="none" x="2296" y="1915.5">#type</text></g></g><g transform="translate(-1919,-1248) scale(1,1)"><rect fill="#C0C0C0" stroke="none" x="2297" y="2066" width="180" height="120" opacity="0.2"/></g><g transform="translate(-1919,-1248) scale(1,1)"><rect fill="#ffffff" stroke="none" x="2290" y="2059" width="180" height="120"/></g><g transform="translate(-1919,-1248) scale(1,1)"><path fill="none" stroke="#000000" d="M 2290 2059 L 2470 2059 L 2470 2179 L 2290 2179 L 2290 2059 Z Z" stroke-miterlimit="10"/></g><g transform="translate(-1919,-1248) scale(1,1)"><path fill="none" stroke="#000000" d="M 2290 2097 L 2470 2097" stroke-miterlimit="10"/></g><g transform="translate(-1919,-1248) scale(1,1)"><path fill="none" stroke="#000000" d="M 2290 2107 L 2470 2107" stroke-miterlimit="10"/></g><g transform="translate(-1919,-1248) scale(1,1)"><g><path fill="none" stroke="none"/><text fill="#000000" stroke="none" font-family="Arial" font-size="13px" font-style="normal" font-weight="normal" text-decoration="none" x="2356.513671875" y="2076.5">«Entity»</text></g></g><g transform="translate(-1919,-1248) scale(1,1)"><g><path fill="none" stroke="none"/><text fill="#000000" stroke="none" font-family="Arial" font-size="13px" font-style="normal" font-weight="bold" text-decoration="none" x="2354.34912109375" y="2091.5">Operator</text></g></g><g transform="translate(-1919,-1248) scale(1,1)"><rect fill="#C0C0C0" stroke="none" x="2297" y="1655" width="180" height="130" opacity="0.2"/></g><g transform="translate(-1919,-1248) scale(1,1)"><rect fill="#ffffff" stroke="none" x="2290" y="1648" width="180" height="130"/></g><g transform="translate(-1919,-1248) scale(1,1)"><path fill="none" stroke="#000000" d="M 2290 1648 L 2470 1648 L 2470 1778 L 2290 1778 L 2290 1648 Z Z" stroke-miterlimit="10"/></g><g transform="translate(-1919,-1248) scale(1,1)"><path fill="none" stroke="#000000" d="M 2290 1686 L 2470 1686" stroke-miterlimit="10"/></g><g transform="translate(-1919,-1248) scale(1,1)"><path fill="none" stroke="#000000" d="M 2290 1769 L 2470 1769" stroke-miterlimit="10"/></g><g transform="translate(-1919,-1248) scale(1,1)"><g><path fill="none" stroke="none"/><text fill="#000000" stroke="none" font-family="Arial" font-size="13px" font-style="normal" font-weight="normal" text-decoration="none" x="2356.513671875" y="1665.5">«Entity»</text></g></g><g transform="translate(-1919,-1248) scale(1,1)"><g><path fill="none" stroke="none"/><text fill="#000000" stroke="none" font-family="Arial" font-size="13px" font-style="normal" font-weight="bold" text-decoration="none" x="2359.052734375" y="1680.5">Waybill</text></g></g><g transform="translate(-1919,-1248) scale(1,1)"><g><path fill="none" stroke="none"/><text fill="#000000" stroke="none" font-family="Arial" font-size="13px" font-style="normal" font-weight="normal" text-decoration="none" x="2295" y="1703.5">-acceptDate</text></g></g><g transform="translate(-1919,-1248) scale(1,1)"><g><path fill="none" stroke="none"/><text fill="#000000" stroke="none" font-family="Arial" font-size="13px" font-style="normal" font-weight="normal" text-decoration="none" x="2295" y="1718.5">-deliveryDate</text></g></g><g transform="translate(-1919,-1248) scale(1,1)"><g><path fill="none" stroke="none"/><text fill="#000000" stroke="none" font-family="Arial" font-size="13px" font-style="normal" font-weight="normal" text-decoration="none" x="2295" y="1733.5">-cost</text></g></g><g transform="translate(-1919,-1248) scale(1,1)"><g><path fill="none" stroke="none"/><text fill="#000000" stroke="none" font-family="Arial" font-size="13px" font-style="normal" font-weight="normal" text-decoration="none" x="2295" y="1748.5">-tracking</text></g></g><g transform="translate(-1919,-1248) scale(1,1)"><g><path fill="none" stroke="none"/><text fill="#000000" stroke="none" font-family="Arial" font-size="13px" font-style="normal" font-weight="normal" text-decoration="none" x="2295" y="1763.5">-signed</text></g></g><g transform="translate(-1919,-1248) scale(1,1)"><rect fill="#C0C0C0" stroke="none" x="2646" y="1406" width="180" height="120" opacity="0.2"/></g><g transform="translate(-1919,-1248) scale(1,1)"><rect fill="#ffffff" stroke="none" x="2639" y="1399" width="180" height="120"/></g><g transform="translate(-1919,-1248) scale(1,1)"><path fill="none" stroke="#000000" d="M 2639 1399 L 2819 1399 L 2819 1519 L 2639 1519 L 2639 1399 Z Z" stroke-miterlimit="10"/></g><g transform="translate(-1919,-1248) scale(1,1)"><path fill="none" stroke="#000000" d="M 2639 1437 L 2819 1437" stroke-miterlimit="10"/></g><g transform="translate(-1919,-1248) scale(1,1)"><path fill="none" stroke="#000000" d="M 2639 1460 L 2819 1460" stroke-miterlimit="10"/></g><g transform="translate(-1919,-1248) scale(1,1)"><g><path fill="none" stroke="none"/><text fill="#000000" stroke="none" font-family="Arial" font-size="13px" font-style="normal" font-weight="normal" text-decoration="none" x="2705.513671875" y="1416.5">«Entity»</text></g></g><g transform="translate(-1919,-1248) scale(1,1)"><g><path fill="none" stroke="none"/><text fill="#000000" stroke="none" font-family="Arial" font-size="13px" font-style="normal" font-weight="bold" text-decoration="none" x="2707.319580078125" y="1431.5">Agency</text></g></g><g transform="translate(-1919,-1248) scale(1,1)"><g><path fill="none" stroke="none"/><text fill="#000000" stroke="none" font-family="Arial" font-size="13px" font-style="normal" font-weight="normal" text-decoration="none" x="2644" y="1454.5">-address</text></g></g><g transform="translate(-1919,-1248) scale(1,1)"><rect fill="#C0C0C0" stroke="none" x="2427" y="1265" width="180" height="120" opacity="0.2"/></g><g transform="translate(-1919,-1248) scale(1,1)"><rect fill="#ffffff" stroke="none" x="2420" y="1258" width="180" height="120"/></g><g transform="translate(-1919,-1248) scale(1,1)"><path fill="none" stroke="#000000" d="M 2420 1258 L 2600 1258 L 2600 1378 L 2420 1378 L 2420 1258 Z Z" stroke-miterlimit="10"/></g><g transform="translate(-1919,-1248) scale(1,1)"><path fill="none" stroke="#000000" d="M 2420 1296 L 2600 1296" stroke-miterlimit="10"/></g><g transform="translate(-1919,-1248) scale(1,1)"><path fill="none" stroke="#000000" d="M 2420 1319 L 2600 1319" stroke-miterlimit="10"/></g><g transform="translate(-1919,-1248) scale(1,1)"><g><path fill="none" stroke="none"/><text fill="#000000" stroke="none" font-family="Arial" font-size="13px" font-style="normal" font-weight="normal" text-decoration="none" x="2486.513671875" y="1275.5">«Entity»</text></g></g><g transform="translate(-1919,-1248) scale(1,1)"><g><path fill="none" stroke="none"/><text fill="#000000" stroke="none" font-family="Arial" font-size="13px" font-style="normal" font-weight="bold" text-decoration="none" x="2484.352294921875" y="1290.5">Receiver</text></g></g><g transform="translate(-1919,-1248) scale(1,1)"><g><path fill="none" stroke="none"/><text fill="#000000" stroke="none" font-family="Arial" font-size="13px" font-style="normal" font-weight="normal" text-decoration="none" x="2425" y="1313.5">-address</text></g></g><g transform="translate(-1919,-1248) scale(1,1)"><rect fill="#C0C0C0" stroke="none" x="2157" y="1265" width="180" height="120" opacity="0.2"/></g><g transform="translate(-1919,-1248) scale(1,1)"><rect fill="#ffffff" stroke="none" x="2150" y="1258" width="180" height="120"/></g><g transform="translate(-1919,-1248) scale(1,1)"><path fill="none" stroke="#000000" d="M 2150 1258 L 2330 1258 L 2330 1378 L 2150 1378 L 2150 1258 Z Z" stroke-miterlimit="10"/></g><g transform="translate(-1919,-1248) scale(1,1)"><path fill="none" stroke="#000000" d="M 2150 1296 L 2330 1296" stroke-miterlimit="10"/></g><g transform="translate(-1919,-1248) scale(1,1)"><path fill="none" stroke="#000000" d="M 2150 1334 L 2330 1334" stroke-miterlimit="10"/></g><g transform="translate(-1919,-1248) scale(1,1)"><g><path fill="none" stroke="none"/><text fill="#000000" stroke="none" font-family="Arial" font-size="13px" font-style="normal" font-weight="normal" text-decoration="none" x="2196.27099609375" y="1275.5">«Embeddable»</text></g></g><g transform="translate(-1919,-1248) scale(1,1)"><g><path fill="none" stroke="none"/><text fill="#000000" stroke="none" font-family="Arial" font-size="13px" font-style="normal" font-weight="bold" text-decoration="none" x="2225.5400390625" y="1290.5">Load</text></g></g><g transform="translate(-1919,-1248) scale(1,1)"><g><path fill="none" stroke="none"/><text fill="#000000" stroke="none" font-family="Arial" font-size="13px" font-style="normal" font-weight="normal" text-decoration="none" x="2155" y="1313.5">-totalVolume</text></g></g><g transform="translate(-1919,-1248) scale(1,1)"><g><path fill="none" stroke="none"/><text fill="#000000" stroke="none" font-family="Arial" font-size="13px" font-style="normal" font-weight="normal" text-decoration="none" x="2155" y="1328.5">-totalWeight</text></g></g><g transform="translate(-1919,-1248) scale(1,1)"><g><path fill="none" stroke="none"/><text fill="#000000" stroke="none" font-family="Arial" font-size="13px" font-style="normal" font-weight="normal" text-decoration="none" x="2155" y="1351.5">+addItem()</text></g></g><g transform="translate(-1919,-1248) scale(1,1)"><g><path fill="none" stroke="none"/><text fill="#000000" stroke="none" font-family="Arial" font-size="13px" font-style="normal" font-weight="normal" text-decoration="none" x="2155" y="1366.5">+removeItem()</text></g></g><g transform="translate(-1919,-1248) scale(1,1)"><rect fill="#C0C0C0" stroke="none" x="1936" y="1406" width="180" height="120" opacity="0.2"/></g><g transform="translate(-1919,-1248) scale(1,1)"><rect fill="#ffffff" stroke="none" x="1929" y="1399" width="180" height="120"/></g><g transform="translate(-1919,-1248) scale(1,1)"><path fill="none" stroke="#000000" d="M 1929 1399 L 2109 1399 L 2109 1519 L 1929 1519 L 1929 1399 Z Z" stroke-miterlimit="10"/></g><g transform="translate(-1919,-1248) scale(1,1)"><path fill="none" stroke="#000000" d="M 1929 1437 L 2109 1437" stroke-miterlimit="10"/></g><g transform="translate(-1919,-1248) scale(1,1)"><path fill="none" stroke="#000000" d="M 1929 1475 L 2109 1475" stroke-miterlimit="10"/></g><g transform="translate(-1919,-1248) scale(1,1)"><g><path fill="none" stroke="none"/><text fill="#000000" stroke="none" font-family="Arial" font-size="13px" font-style="normal" font-weight="normal" text-decoration="none" x="1995.513671875" y="1416.5">«Entity»</text></g></g><g transform="translate(-1919,-1248) scale(1,1)"><g><path fill="none" stroke="none"/><text fill="#000000" stroke="none" font-family="Arial" font-size="13px" font-style="normal" font-weight="bold" text-decoration="none" x="2006.358642578125" y="1431.5">Item</text></g></g><g transform="translate(-1919,-1248) scale(1,1)"><g><path fill="none" stroke="none"/><text fill="#000000" stroke="none" font-family="Arial" font-size="13px" font-style="normal" font-weight="normal" text-decoration="none" x="1934" y="1454.5">-weight</text></g></g><g transform="translate(-1919,-1248) scale(1,1)"><g><path fill="none" stroke="none"/><text fill="#000000" stroke="none" font-family="Arial" font-size="13px" font-style="normal" font-weight="normal" text-decoration="none" x="1934" y="1469.5">-volume</text></g></g><g transform="translate(-1919,-1248) scale(1,1)"><rect fill="#C0C0C0" stroke="none" x="2646" y="1656" width="180" height="128" opacity="0.2"/></g><g transform="translate(-1919,-1248) scale(1,1)"><rect fill="#ffffff" stroke="none" x="2639" y="1649" width="180" height="128"/></g><g transform="translate(-1919,-1248) scale(1,1)"><path fill="none" stroke="#000000" d="M 2639 1649 L 2819 1649 L 2819 1777 L 2639 1777 L 2639 1649 Z Z" stroke-miterlimit="10"/></g><g transform="translate(-1919,-1248) scale(1,1)"><path fill="none" stroke="#000000" d="M 2639 1687 L 2819 1687" stroke-miterlimit="10"/></g><g transform="translate(-1919,-1248) scale(1,1)"><path fill="none" stroke="#000000" d="M 2639 1725 L 2819 1725" stroke-miterlimit="10"/></g><g transform="translate(-1919,-1248) scale(1,1)"><g><path fill="none" stroke="none"/><text fill="#000000" stroke="none" font-family="Arial" font-size="13px" font-style="normal" font-weight="normal" text-decoration="none" x="2705.513671875" y="1666.5">«Entity»</text></g></g><g transform="translate(-1919,-1248) scale(1,1)"><g><path fill="none" stroke="none"/><text fill="#000000" stroke="none" font-family="Arial" font-size="13px" font-style="normal" font-weight="bold" text-decoration="none" x="2715.2763671875" y="1681.5">User</text></g></g><g transform="translate(-1919,-1248) scale(1,1)"><g><path fill="none" stroke="none"/><text fill="#000000" stroke="none" font-family="Arial" font-size="13px" font-style="normal" font-weight="normal" text-decoration="none" x="2644" y="1704.5">-username</text></g></g><g transform="translate(-1919,-1248) scale(1,1)"><g><path fill="none" stroke="none"/><text fill="#000000" stroke="none" font-family="Arial" font-size="13px" font-style="normal" font-weight="normal" text-decoration="none" x="2644" y="1719.5">-password</text></g></g><g transform="translate(-1919,-1248) scale(1,1)"><rect fill="#C0C0C0" stroke="none" x="1936" y="1660" width="180" height="120" opacity="0.2"/></g><g transform="translate(-1919,-1248) scale(1,1)"><rect fill="#ffffff" stroke="none" x="1929" y="1653" width="180" height="120"/></g><g transform="translate(-1919,-1248) scale(1,1)"><path fill="none" stroke="#000000" d="M 1929 1653 L 2109 1653 L 2109 1773 L 1929 1773 L 1929 1653 Z Z" stroke-miterlimit="10"/></g><g transform="translate(-1919,-1248) scale(1,1)"><path fill="none" stroke="#000000" d="M 1929 1691 L 2109 1691" stroke-miterlimit="10"/></g><g transform="translate(-1919,-1248) scale(1,1)"><path fill="none" stroke="#000000" d="M 1929 1714 L 2109 1714" stroke-miterlimit="10"/></g><g transform="translate(-1919,-1248) scale(1,1)"><g><path fill="none" stroke="none"/><text fill="#000000" stroke="none" font-family="Arial" font-size="13px" font-style="normal" font-weight="normal" text-decoration="none" x="1995.513671875" y="1670.5">«Entity»</text></g></g><g transform="translate(-1919,-1248) scale(1,1)"><g><path fill="none" stroke="none"/><text fill="#000000" stroke="none" font-family="Arial" font-size="13px" font-style="normal" font-weight="bold" text-decoration="none" x="1996.96728515625" y="1685.5">Mission</text></g></g><g transform="translate(-1919,-1248) scale(1,1)"><g><path fill="none" stroke="none"/><text fill="#000000" stroke="none" font-family="Arial" font-size="13px" font-style="normal" font-weight="normal" text-decoration="none" x="1934" y="1708.5">-date</text></g></g><g transform="translate(-1919,-1248) scale(1,1)"><g><path fill="none" stroke="none"/><text fill="#000000" stroke="none" font-family="Arial" font-size="13px" font-style="normal" font-weight="normal" text-decoration="none" x="1934" y="1731.5">+addWaybill()</text></g></g><g transform="translate(-1919,-1248) scale(1,1)"><rect fill="#C0C0C0" stroke="none" x="2646" y="2296" width="180" height="120" opacity="0.2"/></g><g transform="translate(-1919,-1248) scale(1,1)"><rect fill="#ffffff" stroke="none" x="2639" y="2289" width="180" height="120"/></g><g transform="translate(-1919,-1248) scale(1,1)"><path fill="none" stroke="#000000" d="M 2639 2289 L 2819 2289 L 2819 2409 L 2639 2409 L 2639 2289 Z Z" stroke-miterlimit="10"/></g><g transform="translate(-1919,-1248) scale(1,1)"><path fill="none" stroke="#000000" d="M 2639 2327 L 2819 2327" stroke-miterlimit="10"/></g><g transform="translate(-1919,-1248) scale(1,1)"><path fill="none" stroke="#000000" d="M 2639 2395 L 2819 2395" stroke-miterlimit="10"/></g><g transform="translate(-1919,-1248) scale(1,1)"><g><path fill="none" stroke="none"/><text fill="#000000" stroke="none" font-family="Arial" font-size="13px" font-style="normal" font-weight="normal" text-decoration="none" x="2705.513671875" y="2306.5">«Entity»</text></g></g><g transform="translate(-1919,-1248) scale(1,1)"><g><path fill="none" stroke="none"/><text fill="#000000" stroke="none" font-family="Arial" font-size="13px" font-style="normal" font-weight="bold" text-decoration="none" x="2715.635009765625" y="2321.5">Fare</text></g></g><g transform="translate(-1919,-1248) scale(1,1)"><g><path fill="none" stroke="none"/><text fill="#000000" stroke="none" font-family="Arial" font-size="13px" font-style="normal" font-weight="normal" text-decoration="none" x="2644" y="2344.5">-startDate</text></g></g><g transform="translate(-1919,-1248) scale(1,1)"><g><path fill="none" stroke="none"/><text fill="#000000" stroke="none" font-family="Arial" font-size="13px" font-style="normal" font-weight="normal" text-decoration="none" x="2644" y="2359.5">-endDate</text></g></g><g transform="translate(-1919,-1248) scale(1,1)"><g><path fill="none" stroke="none"/><text fill="#000000" stroke="none" font-family="Arial" font-size="13px" font-style="normal" font-weight="normal" text-decoration="none" x="2644" y="2374.5">-zone</text></g></g><g transform="translate(-1919,-1248) scale(1,1)"><g><path fill="none" stroke="none"/><text fill="#000000" stroke="none" font-family="Arial" font-size="13px" font-style="normal" font-weight="normal" text-decoration="none" x="2644" y="2389.5">-functionCost</text></g></g><g transform="translate(-1919,-1248) scale(1,1)"><rect fill="#C0C0C0" stroke="none" x="1936" y="2296" width="180" height="120" opacity="0.2"/></g><g transform="translate(-1919,-1248) scale(1,1)"><rect fill="#ffffff" stroke="none" x="1929" y="2289" width="180" height="120"/></g><g transform="translate(-1919,-1248) scale(1,1)"><path fill="none" stroke="#000000" d="M 1929 2289 L 2109 2289 L 2109 2409 L 1929 2409 L 1929 2289 Z Z" stroke-miterlimit="10"/></g><g transform="translate(-1919,-1248) scale(1,1)"><path fill="none" stroke="#000000" d="M 1929 2327 L 2109 2327" stroke-miterlimit="10"/></g><g transform="translate(-1919,-1248) scale(1,1)"><path fill="none" stroke="#000000" d="M 1929 2380 L 2109 2380" stroke-miterlimit="10"/></g><g transform="translate(-1919,-1248) scale(1,1)"><g><path fill="none" stroke="none"/><text fill="#000000" stroke="none" font-family="Arial" font-size="13px" font-style="normal" font-weight="normal" text-decoration="none" x="1975.27099609375" y="2306.5">«Embeddable»</text></g></g><g transform="translate(-1919,-1248) scale(1,1)"><g><path fill="none" stroke="none"/><text fill="#000000" stroke="none" font-family="Arial" font-size="13px" font-style="normal" font-weight="bold" text-decoration="none" x="2002.75" y="2321.5">Truck</text></g></g><g transform="translate(-1919,-1248) scale(1,1)"><g><path fill="none" stroke="none"/><text fill="#000000" stroke="none" font-family="Arial" font-size="13px" font-style="normal" font-weight="normal" text-decoration="none" x="1934" y="2344.5">-volume</text></g></g><g transform="translate(-1919,-1248) scale(1,1)"><g><path fill="none" stroke="none"/><text fill="#000000" stroke="none" font-family="Arial" font-size="13px" font-style="normal" font-weight="normal" text-decoration="none" x="1934" y="2359.5">-capacity</text></g></g><g transform="translate(-1919,-1248) scale(1,1)"><g><path fill="none" stroke="none"/><text fill="#000000" stroke="none" font-family="Arial" font-size="13px" font-style="normal" font-weight="normal" text-decoration="none" x="1934" y="2374.5">-type</text></g></g><g transform="translate(-1919,-1248) scale(1,1)"><rect fill="#C0C0C0" stroke="none" x="2646" y="2066" width="180" height="120" opacity="0.2"/></g><g transform="translate(-1919,-1248) scale(1,1)"><rect fill="#ffffff" stroke="none" x="2639" y="2059" width="180" height="120"/></g><g transform="translate(-1919,-1248) scale(1,1)"><path fill="none" stroke="#000000" d="M 2639 2059 L 2819 2059 L 2819 2179 L 2639 2179 L 2639 2059 Z Z" stroke-miterlimit="10"/></g><g transform="translate(-1919,-1248) scale(1,1)"><path fill="none" stroke="#000000" d="M 2639 2097 L 2819 2097" stroke-miterlimit="10"/></g><g transform="translate(-1919,-1248) scale(1,1)"><path fill="none" stroke="#000000" d="M 2639 2135 L 2819 2135" stroke-miterlimit="10"/></g><g transform="translate(-1919,-1248) scale(1,1)"><g><path fill="none" stroke="none"/><text fill="#000000" stroke="none" font-family="Arial" font-size="13px" font-style="normal" font-weight="normal" text-decoration="none" x="2705.513671875" y="2076.5">«Entity»</text></g></g><g transform="translate(-1919,-1248) scale(1,1)"><g><path fill="none" stroke="none"/><text fill="#000000" stroke="none" font-family="Arial" font-size="13px" font-style="normal" font-weight="bold" text-decoration="none" x="2700.825927734375" y="2091.5">Customer</text></g></g><g transform="translate(-1919,-1248) scale(1,1)"><g><path fill="none" stroke="none"/><text fill="#000000" stroke="none" font-family="Arial" font-size="13px" font-style="normal" font-weight="normal" text-decoration="none" x="2644" y="2114.5">-state</text></g></g><g transform="translate(-1919,-1248) scale(1,1)"><g><path fill="none" stroke="none"/><text fill="#000000" stroke="none" font-family="Arial" font-size="13px" font-style="normal" font-weight="normal" text-decoration="none" x="2644" y="2129.5">-address</text></g></g><g transform="translate(-1919,-1248) scale(1,1)"><rect fill="#C0C0C0" stroke="none" x="1936" y="2066" width="180" height="120" opacity="0.2"/></g><g transform="translate(-1919,-1248) scale(1,1)"><rect fill="#ffffff" stroke="none" x="1929" y="2059" width="180" height="120"/></g><g transform="translate(-1919,-1248) scale(1,1)"><path fill="none" stroke="#000000" d="M 1929 2059 L 2109 2059 L 2109 2179 L 1929 2179 L 1929 2059 Z Z" stroke-miterlimit="10"/></g><g transform="translate(-1919,-1248) scale(1,1)"><path fill="none" stroke="#000000" d="M 1929 2097 L 2109 2097" stroke-miterlimit="10"/></g><g transform="translate(-1919,-1248) scale(1,1)"><path fill="none" stroke="#000000" d="M 1929 2120 L 2109 2120" stroke-miterlimit="10"/></g><g transform="translate(-1919,-1248) scale(1,1)"><g><path fill="none" stroke="none"/><text fill="#000000" stroke="none" font-family="Arial" font-size="13px" font-style="normal" font-weight="normal" text-decoration="none" x="1994.069580078125" y="2076.5">«Entiity»</text></g></g><g transform="translate(-1919,-1248) scale(1,1)"><g><path fill="none" stroke="none"/><text fill="#000000" stroke="none" font-family="Arial" font-size="13px" font-style="normal" font-weight="bold" text-decoration="none" x="2001.667724609375" y="2091.5">Driver</text></g></g><g transform="translate(-1919,-1248) scale(1,1)"><g><path fill="none" stroke="none"/><text fill="#000000" stroke="none" font-family="Arial" font-size="13px" font-style="normal" font-weight="normal" text-decoration="none" x="1934" y="2114.5">-zone</text></g></g><g transform="translate(-1919,-1248) scale(1,1)"><g><path fill="none" stroke="none"/><text fill="#000000" stroke="none" font-family="Arial" font-size="13px" font-style="normal" font-weight="normal" text-decoration="none" x="1934" y="2137.5">+addMission()</text></g></g><g transform="translate(-1919,-1248) scale(1,1)"><path fill="none" stroke="#000000" d="M 2729 2288 L 2729 2180" stroke-miterlimit="10"/></g><g transform="translate(-1919,-1248) scale(1,1)"><path fill="#FFFFFF" stroke="none" d="M 2733.209517756016 2190.162674857624 L 2729 2180 L 2724.790482243984 2190.162674857624 L 2729 2202"/></g><g transform="translate(-1919,-1248) scale(1,1)"><path fill="none" stroke="#000000" d="M 2733.209517756016 2190.162674857624 L 2729 2180 L 2724.790482243984 2190.162674857624 L 2729 2202 L 2733.209517756016 2190.162674857624" stroke-miterlimit="10"/></g><g transform="translate(-1919,-1248) scale(1,1)"><g><path fill="none" stroke="none"/><text fill="#000000" stroke="none" font-family="Arial" font-size="13px" font-style="normal" font-weight="normal" text-decoration="none" x="2738.13134765625" y="2282.5">-fares</text></g></g><g transform="translate(-1919,-1248) scale(1,1)"><g><path fill="none" stroke="none"/><text fill="#000000" stroke="none" font-family="Arial" font-size="13px" font-style="normal" font-weight="normal" text-decoration="none" x="2708.970458984375" y="2281.5">*</text></g></g><g transform="translate(-1919,-1248) scale(1,1)"><path fill="none" stroke="#000000" d="M 2019 2288 L 2019 2180" stroke-miterlimit="10"/></g><g transform="translate(-1919,-1248) scale(1,1)"><path fill="#000000" stroke="none" d="M 2023.2095177560159 2190.162674857624 L 2019 2180 L 2014.7904822439841 2190.162674857624 L 2019 2202"/></g><g transform="translate(-1919,-1248) scale(1,1)"><path fill="none" stroke="#000000" d="M 2023.2095177560159 2190.162674857624 L 2019 2180 L 2014.7904822439841 2190.162674857624 L 2019 2202 L 2023.2095177560159 2190.162674857624" stroke-miterlimit="10"/></g><g transform="translate(-1919,-1248) scale(1,1)"><g><path fill="none" stroke="none"/><text fill="#000000" stroke="none" font-family="Arial" font-size="13px" font-style="normal" font-weight="normal" text-decoration="none" x="2030.25" y="2282.5">-truck</text></g></g><g transform="translate(-1919,-1248) scale(1,1)"><g><path fill="none" stroke="none"/><text fill="#000000" stroke="none" font-family="Arial" font-size="13px" font-style="normal" font-weight="normal" text-decoration="none" x="1998.885009765625" y="2281.5">1</text></g></g><g transform="translate(-1919,-1248) scale(1,1)"><path fill="none" stroke="#000000" d="M 2490 1378 L 2490 1580 L 2400 1580 L 2400 1648" stroke-miterlimit="10"/></g><g transform="translate(-1919,-1248) scale(1,1)"><path fill="#000000" stroke="none" d="M 2395.790482243984 1637.837325142376 L 2400 1648 L 2404.209517756016 1637.837325142376 L 2400 1626"/></g><g transform="translate(-1919,-1248) scale(1,1)"><path fill="none" stroke="#000000" d="M 2395.790482243984 1637.837325142376 L 2400 1648 L 2404.209517756016 1637.837325142376 L 2400 1626 L 2395.790482243984 1637.837325142376" stroke-miterlimit="10"/></g><g transform="translate(-1919,-1248) scale(1,1)"><g><path fill="none" stroke="none"/><text fill="#000000" stroke="none" font-family="Arial" font-size="13px" font-style="normal" font-weight="normal" text-decoration="none" x="2498.71728515625" y="1412.5">-receiver</text></g></g><g transform="translate(-1919,-1248) scale(1,1)"><g><path fill="none" stroke="none"/><text fill="#000000" stroke="none" font-family="Arial" font-size="13px" font-style="normal" font-weight="normal" text-decoration="none" x="2472.885009765625" y="1412.5">1</text></g></g><g transform="translate(-1919,-1248) scale(1,1)"><path fill="none" stroke="#000000" d="M 2262 1378 L 2262 1580 L 2360 1580 L 2360 1648" stroke-miterlimit="10"/></g><g transform="translate(-1919,-1248) scale(1,1)"><path fill="#000000" stroke="none" d="M 2355.790482243984 1637.837325142376 L 2360 1648 L 2364.209517756016 1637.837325142376 L 2360 1626"/></g><g transform="translate(-1919,-1248) scale(1,1)"><path fill="none" stroke="#000000" d="M 2355.790482243984 1637.837325142376 L 2360 1648 L 2364.209517756016 1637.837325142376 L 2360 1626 L 2355.790482243984 1637.837325142376" stroke-miterlimit="10"/></g><g transform="translate(-1919,-1248) scale(1,1)"><g><path fill="none" stroke="none"/><text fill="#000000" stroke="none" font-family="Arial" font-size="13px" font-style="normal" font-weight="normal" text-decoration="none" x="2267.04638671875" y="1411.5">-load</text></g></g><g transform="translate(-1919,-1248) scale(1,1)"><g><path fill="none" stroke="none"/><text fill="#000000" stroke="none" font-family="Arial" font-size="13px" font-style="normal" font-weight="normal" text-decoration="none" x="2244.885009765625" y="1412.5">1</text></g></g><g transform="translate(-1919,-1248) scale(1,1)"><path fill="none" stroke="#000000" d="M 2289 1713 L 2110 1713" stroke-miterlimit="10"/></g><g transform="translate(-1919,-1248) scale(1,1)"><path fill="#FFFFFF" stroke="none" d="M 2120.162674857624 1708.7904822439841 L 2110 1713 L 2120.162674857624 1717.2095177560159 L 2132 1713"/></g><g transform="translate(-1919,-1248) scale(1,1)"><path fill="none" stroke="#000000" d="M 2120.162674857624 1708.7904822439841 L 2110 1713 L 2120.162674857624 1717.2095177560159 L 2132 1713 L 2120.162674857624 1708.7904822439841" stroke-miterlimit="10"/></g><g transform="translate(-1919,-1248) scale(1,1)"><g><path fill="none" stroke="none"/><text fill="#000000" stroke="none" font-family="Arial" font-size="13px" font-style="normal" font-weight="normal" text-decoration="none" x="2230.5791015625" y="1733.5">-waybills</text></g></g><g transform="translate(-1919,-1248) scale(1,1)"><g><path fill="none" stroke="none"/><text fill="#000000" stroke="none" font-family="Arial" font-size="13px" font-style="normal" font-weight="normal" text-decoration="none" x="2263.970458984375" y="1706.5">*</text></g></g><g transform="translate(-1919,-1248) scale(1,1)"><path fill="none" stroke="#000000" d="M 1980 1773 L 1980 2059" stroke-miterlimit="10"/></g><g transform="translate(-1919,-1248) scale(1,1)"><path fill="#FFFFFF" stroke="none" d="M 1975.7904822439841 2048.837325142376 L 1980 2059 L 1984.2095177560159 2048.837325142376 L 1980 2037"/></g><g transform="translate(-1919,-1248) scale(1,1)"><path fill="none" stroke="#000000" d="M 1975.7904822439841 2048.837325142376 L 1980 2059 L 1984.2095177560159 2048.837325142376 L 1980 2037 L 1975.7904822439841 2048.837325142376" stroke-miterlimit="10"/></g><g transform="translate(-1919,-1248) scale(1,1)"><g><path fill="none" stroke="none"/><text fill="#000000" stroke="none" font-family="Arial" font-size="13px" font-style="normal" font-weight="normal" text-decoration="none" x="1990.13134765625" y="1796.5">-missions</text></g></g><g transform="translate(-1919,-1248) scale(1,1)"><g><path fill="none" stroke="none"/><text fill="#000000" stroke="none" font-family="Arial" font-size="13px" font-style="normal" font-weight="normal" text-decoration="none" x="1963.970458984375" y="1800.5">*</text></g></g><g transform="translate(-1919,-1248) scale(1,1)"><path fill="none" stroke="#000000" d="M 2729 1520 L 2729 1648" stroke-miterlimit="10"/></g><g transform="translate(-1919,-1248) scale(1,1)"><path fill="#FFFFFF" stroke="none" d="M 2724.790482243984 1637.837325142376 L 2729 1648 L 2733.209517756016 1637.837325142376 L 2729 1626"/></g><g transform="translate(-1919,-1248) scale(1,1)"><path fill="none" stroke="#000000" d="M 2724.790482243984 1637.837325142376 L 2729 1648 L 2733.209517756016 1637.837325142376 L 2729 1626 L 2724.790482243984 1637.837325142376" stroke-miterlimit="10"/></g><g transform="translate(-1919,-1248) scale(1,1)"><g><path fill="none" stroke="none"/><text fill="#000000" stroke="none" font-family="Arial" font-size="13px" font-style="normal" font-weight="normal" text-decoration="none" x="2737.87548828125" y="1541.5">-agency</text></g></g><g transform="translate(-1919,-1248) scale(1,1)"><g><path fill="none" stroke="none"/><text fill="#000000" stroke="none" font-family="Arial" font-size="13px" font-style="normal" font-weight="normal" text-decoration="none" x="2711.885009765625" y="1542.5">1</text></g></g><g transform="translate(-1919,-1248) scale(1,1)"><path fill="none" stroke="#000000" d="M 2730 1399 L 2730 1300 L 2600 1300" stroke-miterlimit="10"/></g><g transform="translate(-1919,-1248) scale(1,1)"><path fill="#FFFFFF" stroke="none" d="M 2610.162674857624 1295.7904822439841 L 2600 1300 L 2610.162674857624 1304.2095177560159 L 2622 1300"/></g><g transform="translate(-1919,-1248) scale(1,1)"><path fill="none" stroke="#000000" d="M 2610.162674857624 1295.7904822439841 L 2600 1300 L 2610.162674857624 1304.2095177560159 L 2622 1300 L 2610.162674857624 1295.7904822439841" stroke-miterlimit="10"/></g><g transform="translate(-1919,-1248) scale(1,1)"><g><path fill="none" stroke="none"/><text fill="#000000" stroke="none" font-family="Arial" font-size="13px" font-style="normal" font-weight="normal" text-decoration="none" x="2740.13134765625" y="1381.5">-destinationAgency</text></g></g><g transform="translate(-1919,-1248) scale(1,1)"><g><path fill="none" stroke="none"/><text fill="#000000" stroke="none" font-family="Arial" font-size="13px" font-style="normal" font-weight="normal" text-decoration="none" x="2708.885009765625" y="1382.5">1</text></g></g><g transform="translate(-1919,-1248) scale(1,1)"><path fill="none" stroke="#000000" d="M 2700 1777 L 2700 1920 L 2471 1920" stroke-miterlimit="10"/></g><g transform="translate(-1919,-1248) scale(1,1)"><g><path fill="none" stroke="none"/><text fill="#000000" stroke="none" font-family="Arial" font-size="13px" font-style="normal" font-weight="normal" text-decoration="none" x="2709.680908203125" y="1800.5">#owner</text></g></g><g transform="translate(-1919,-1248) scale(1,1)"><g><path fill="none" stroke="none"/><text fill="#000000" stroke="none" font-family="Arial" font-size="13px" font-style="normal" font-weight="normal" text-decoration="none" x="2682.885009765625" y="1801.5">1</text></g></g><g transform="translate(-1919,-1248) scale(1,1)"><g><path fill="none" stroke="none"/><text fill="#000000" stroke="none" font-family="Arial" font-size="13px" font-style="normal" font-weight="normal" text-decoration="none" x="2479.2958984375" y="1940.5">-roles</text></g></g><g transform="translate(-1919,-1248) scale(1,1)"><g><path fill="none" stroke="none"/><text fill="#000000" stroke="none" font-family="Arial" font-size="13px" font-style="normal" font-weight="normal" text-decoration="none" x="2480.658203125" y="1913.5">1..3</text></g></g><g transform="translate(-1919,-1248) scale(1,1)"><path fill="none" stroke="#000000" d="M 2639 1700 L 2470 1700" stroke-miterlimit="10"/></g><g transform="translate(-1919,-1248) scale(1,1)"><path fill="#FFFFFF" stroke="none" d="M 2480.162674857624 1695.7904822439841 L 2470 1700 L 2480.162674857624 1704.2095177560159 L 2492 1700"/></g><g transform="translate(-1919,-1248) scale(1,1)"><path fill="none" stroke="#000000" d="M 2480.162674857624 1695.7904822439841 L 2470 1700 L 2480.162674857624 1704.2095177560159 L 2492 1700 L 2480.162674857624 1695.7904822439841" stroke-miterlimit="10"/></g><g transform="translate(-1919,-1248) scale(1,1)"><g><path fill="none" stroke="none"/><text fill="#000000" stroke="none" font-family="Arial" font-size="13px" font-style="normal" font-weight="normal" text-decoration="none" x="2556.35546875" y="1720.5">-sender</text></g></g><g transform="translate(-1919,-1248) scale(1,1)"><g><path fill="none" stroke="none"/><text fill="#000000" stroke="none" font-family="Arial" font-size="13px" font-style="normal" font-weight="normal" text-decoration="none" x="2612.885009765625" y="1693.5">1</text></g></g><g transform="translate(-1919,-1248) scale(1,1)"><path fill="none" stroke="#000000" d="M 2639 1740 L 2470 1740" stroke-miterlimit="10"/></g><g transform="translate(-1919,-1248) scale(1,1)"><path fill="#FFFFFF" stroke="none" d="M 2480.162674857624 1735.7904822439841 L 2470 1740 L 2480.162674857624 1744.2095177560159 L 2492 1740"/></g><g transform="translate(-1919,-1248) scale(1,1)"><path fill="none" stroke="#000000" d="M 2480.162674857624 1735.7904822439841 L 2470 1740 L 2480.162674857624 1744.2095177560159 L 2492 1740 L 2480.162674857624 1735.7904822439841" stroke-miterlimit="10"/></g><g transform="translate(-1919,-1248) scale(1,1)"><g><path fill="none" stroke="none"/><text fill="#000000" stroke="none" font-family="Arial" font-size="13px" font-style="normal" font-weight="normal" text-decoration="none" x="2558.62548828125" y="1761.5">-operator</text></g></g><g transform="translate(-1919,-1248) scale(1,1)"><g><path fill="none" stroke="none"/><text fill="#000000" stroke="none" font-family="Arial" font-size="13px" font-style="normal" font-weight="normal" text-decoration="none" x="2612.885009765625" y="1733.5">1</text></g></g><g transform="translate(-1919,-1248) scale(1,1)"><path fill="none" stroke="#000000" d="M 2770 1777 L 2770 2059" stroke-miterlimit="10"/></g><g transform="translate(-1919,-1248) scale(1,1)"><path fill="#FFFFFF" stroke="none" d="M 2765.790482243984 2048.837325142376 L 2770 2059 L 2774.209517756016 2048.837325142376 L 2770 2037"/></g><g transform="translate(-1919,-1248) scale(1,1)"><path fill="none" stroke="#000000" d="M 2765.790482243984 2048.837325142376 L 2770 2059 L 2774.209517756016 2048.837325142376 L 2770 2037 L 2765.790482243984 2048.837325142376" stroke-miterlimit="10"/></g><g transform="translate(-1919,-1248) scale(1,1)"><g><path fill="none" stroke="none"/><text fill="#000000" stroke="none" font-family="Arial" font-size="13px" font-style="normal" font-weight="normal" text-decoration="none" x="2780.13134765625" y="1830.5">-operator</text></g></g><g transform="translate(-1919,-1248) scale(1,1)"><g><path fill="none" stroke="none"/><text fill="#000000" stroke="none" font-family="Arial" font-size="13px" font-style="normal" font-weight="normal" text-decoration="none" x="2752.885009765625" y="1831.5">1</text></g></g><g transform="translate(-1919,-1248) scale(1,1)"><path fill="none" stroke="#000000" d="M 2020 1399 L 2020 1310 L 2150 1310" stroke-miterlimit="10"/></g><g transform="translate(-1919,-1248) scale(1,1)"><path fill="#FFFFFF" stroke="none" d="M 2139.837325142376 1314.2095177560159 L 2150 1310 L 2139.837325142376 1305.7904822439841 L 2128 1310"/></g><g transform="translate(-1919,-1248) scale(1,1)"><path fill="none" stroke="#000000" d="M 2139.837325142376 1314.2095177560159 L 2150 1310 L 2139.837325142376 1305.7904822439841 L 2128 1310 L 2139.837325142376 1314.2095177560159" stroke-miterlimit="10"/></g><g transform="translate(-1919,-1248) scale(1,1)"><g><path fill="none" stroke="none"/><text fill="#000000" stroke="none" font-family="Arial" font-size="13px" font-style="normal" font-weight="normal" text-decoration="none" x="1970.13134765625" y="1391.5">-items</text></g></g><g transform="translate(-1919,-1248) scale(1,1)"><g><path fill="none" stroke="none"/><text fill="#000000" stroke="none" font-family="Arial" font-size="13px" font-style="normal" font-weight="normal" text-decoration="none" x="2028.970458984375" y="1392.5">*</text></g></g><g transform="translate(-1919,-1248) scale(1,1)"><path fill="none" stroke="#000000" d="M 2730 2059 L 2730 2030 L 2380 2030 L 2380 1980" stroke-miterlimit="10"/></g><g transform="translate(-1919,-1248) scale(1,1)"><path fill="none" stroke="#000000" d="M 2380 1980 L 2380 2030 L 2020 2030 L 2020 2059" stroke-miterlimit="10"/></g><g transform="translate(-1919,-1248) scale(1,1)"><path fill="none" stroke="#000000" d="M 2381 2059 L 2381 1980" stroke-miterlimit="10"/></g><g transform="translate(-1919,-1248) scale(1,1)"><path fill="#FFFFFF" stroke="none" d="M 2389.4190355120318 2000.3253497152482 L 2381 1980 L 2372.5809644879682 2000.3253497152482"/></g><g transform="translate(-1919,-1248) scale(1,1)"><path fill="none" stroke="#000000" d="M 2389.4190355120318 2000.3253497152482 L 2381 1980 L 2372.5809644879682 2000.3253497152482 L 2389.4190355120318 2000.3253497152482" stroke-miterlimit="10"/></g></g></svg>