<svg version="1.1" xmlns="http://www.w3.org/2000/svg" xmlns:xlink="http://www.w3.org/1999/xlink" width="1216" height="953"><defs/><g><g transform="translate(-1970,-1390) scale(1,1)"><rect fill="#C0C0C0" stroke="none" x="1987" y="1677" width="189" height="89" opacity="0.2"/></g><g transform="translate(-1970,-1390) scale(1,1)"><rect fill="#ffffff" stroke="none" x="1980" y="1670" width="189" height="89"/></g><g transform="translate(-1970,-1390) scale(1,1)"><path fill="none" stroke="#000000" d="M 1980 1670 L 2169 1670 L 2169 1759 L 1980 1759 L 1980 1670 Z Z" stroke-miterlimit="10"/></g><g transform="translate(-1970,-1390) scale(1,1)"><g><path fill="none" stroke="none"/><text fill="#000000" stroke="none" font-family="Arial" font-size="13px" font-style="normal" font-weight="bold" text-decoration="none" x="2041.609619140625" y="1689.5">Login Page</text></g></g><g transform="translate(-1970,-1390) scale(1,1)"><rect fill="#C0C0C0" stroke="none" x="2674" y="1899" width="189" height="89" opacity="0.2"/></g><g transform="translate(-1970,-1390) scale(1,1)"><rect fill="#ffffff" stroke="none" x="2667" y="1892" width="189" height="89"/></g><g transform="translate(-1970,-1390) scale(1,1)"><path fill="none" stroke="#000000" d="M 2667 1892 L 2856 1892 L 2856 1981 L 2667 1981 L 2667 1892 Z Z" stroke-miterlimit="10"/></g><g transform="translate(-1970,-1390) scale(1,1)"><g><path fill="none" stroke="none"/><text fill="#000000" stroke="none" font-family="Arial" font-size="13px" font-style="normal" font-weight="bold" text-decoration="none" x="2713.089599609375" y="1911.5">Customers Page</text></g></g><g transform="translate(-1970,-1390) scale(1,1)"><rect fill="#C0C0C0" stroke="none" x="2497" y="1677" width="189" height="89" opacity="0.2"/></g><g transform="translate(-1970,-1390) scale(1,1)"><rect fill="#ffffff" stroke="none" x="2490" y="1670" width="189" height="89"/></g><g transform="translate(-1970,-1390) scale(1,1)"><path fill="none" stroke="#000000" d="M 2490 1670 L 2679 1670 L 2679 1759 L 2490 1759 L 2490 1670 Z Z" stroke-miterlimit="10"/></g><g transform="translate(-1970,-1390) scale(1,1)"><g><path fill="none" stroke="none"/><text fill="#000000" stroke="none" font-family="Arial" font-size="13px" font-style="normal" font-weight="bold" text-decoration="none" x="2550.175048828125" y="1689.5">Home Page</text></g></g><g transform="translate(-1970,-1390) scale(1,1)"><rect fill="#C0C0C0" stroke="none" x="2994" y="2076" width="189" height="89" opacity="0.2"/></g><g transform="translate(-1970,-1390) scale(1,1)"><rect fill="#ffffff" stroke="none" x="2987" y="2069" width="189" height="89"/></g><g transform="translate(-1970,-1390) scale(1,1)"><path fill="none" stroke="#000000" d="M 2987 2069 L 3176 2069 L 3176 2158 L 2987 2158 L 2987 2069 Z Z" stroke-miterlimit="10"/></g><g transform="translate(-1970,-1390) scale(1,1)"><g><path fill="none" stroke="none"/><text fill="#000000" stroke="none" font-family="Arial" font-size="13px" font-style="normal" font-weight="bold" text-decoration="none" x="3035.254150390625" y="2088.5">View Fare Page</text></g></g><g transform="translate(-1970,-1390) scale(1,1)"><rect fill="#C0C0C0" stroke="none" x="2327" y="1447" width="189" height="89" opacity="0.2"/></g><g transform="translate(-1970,-1390) scale(1,1)"><rect fill="#ffffff" stroke="none" x="2320" y="1440" width="189" height="89"/></g><g transform="translate(-1970,-1390) scale(1,1)"><path fill="none" stroke="#000000" d="M 2320 1440 L 2509 1440 L 2509 1529 L 2320 1529 L 2320 1440 Z Z" stroke-miterlimit="10"/></g><g transform="translate(-1970,-1390) scale(1,1)"><g><path fill="none" stroke="none"/><text fill="#000000" stroke="none" font-family="Arial" font-size="13px" font-style="normal" font-weight="bold" text-decoration="none" x="2354.16552734375" y="1459.5">Waybill Search Page</text></g></g><g transform="translate(-1970,-1390) scale(1,1)"><rect fill="#C0C0C0" stroke="none" x="2317" y="2251" width="189" height="89" opacity="0.2"/></g><g transform="translate(-1970,-1390) scale(1,1)"><rect fill="#ffffff" stroke="none" x="2310" y="2244" width="189" height="89"/></g><g transform="translate(-1970,-1390) scale(1,1)"><path fill="none" stroke="#000000" d="M 2310 2244 L 2499 2244 L 2499 2333 L 2310 2333 L 2310 2244 Z Z" stroke-miterlimit="10"/></g><g transform="translate(-1970,-1390) scale(1,1)"><g><path fill="none" stroke="none"/><text fill="#000000" stroke="none" font-family="Arial" font-size="13px" font-style="normal" font-weight="bold" text-decoration="none" x="2338.024169921875" y="2263.5">Waybill to Assign Page</text></g></g><g transform="translate(-1970,-1390) scale(1,1)"><rect fill="#C0C0C0" stroke="none" x="2317" y="2076" width="189" height="89" opacity="0.2"/></g><g transform="translate(-1970,-1390) scale(1,1)"><rect fill="#ffffff" stroke="none" x="2310" y="2069" width="189" height="89"/></g><g transform="translate(-1970,-1390) scale(1,1)"><path fill="none" stroke="#000000" d="M 2310 2069 L 2499 2069 L 2499 2158 L 2310 2158 L 2310 2069 Z Z" stroke-miterlimit="10"/></g><g transform="translate(-1970,-1390) scale(1,1)"><g><path fill="none" stroke="none"/><text fill="#000000" stroke="none" font-family="Arial" font-size="13px" font-style="normal" font-weight="bold" text-decoration="none" x="2344.16552734375" y="2088.5">Mission Assign Page</text></g></g><g transform="translate(-1970,-1390) scale(1,1)"><rect fill="#C0C0C0" stroke="none" x="2317" y="1899" width="189" height="89" opacity="0.2"/></g><g transform="translate(-1970,-1390) scale(1,1)"><rect fill="#ffffff" stroke="none" x="2310" y="1892" width="189" height="89"/></g><g transform="translate(-1970,-1390) scale(1,1)"><path fill="none" stroke="#000000" d="M 2310 1892 L 2499 1892 L 2499 1981 L 2310 1981 L 2310 1892 Z Z" stroke-miterlimit="10"/></g><g transform="translate(-1970,-1390) scale(1,1)"><g><path fill="none" stroke="none"/><text fill="#000000" stroke="none" font-family="Arial" font-size="13px" font-style="normal" font-weight="bold" text-decoration="none" x="2348.865966796875" y="1911.5">Assign Driver Page</text></g></g><g transform="translate(-1970,-1390) scale(1,1)"><rect fill="#C0C0C0" stroke="none" x="2674" y="2251" width="189" height="89" opacity="0.2"/></g><g transform="translate(-1970,-1390) scale(1,1)"><rect fill="#ffffff" stroke="none" x="2667" y="2244" width="189" height="89"/></g><g transform="translate(-1970,-1390) scale(1,1)"><path fill="none" stroke="#000000" d="M 2667 2244 L 2856 2244 L 2856 2333 L 2667 2333 L 2667 2244 Z Z" stroke-miterlimit="10"/></g><g transform="translate(-1970,-1390) scale(1,1)"><g><path fill="none" stroke="none"/><text fill="#000000" stroke="none" font-family="Arial" font-size="13px" font-style="normal" font-weight="bold" text-decoration="none" x="2703.333251953125" y="2263.5">Edit Customer Page</text></g></g><g transform="translate(-1970,-1390) scale(1,1)"><rect fill="#C0C0C0" stroke="none" x="2674" y="2076" width="189" height="89" opacity="0.2"/></g><g transform="translate(-1970,-1390) scale(1,1)"><rect fill="#ffffff" stroke="none" x="2667" y="2069" width="189" height="89"/></g><g transform="translate(-1970,-1390) scale(1,1)"><path fill="none" stroke="#000000" d="M 2667 2069 L 2856 2069 L 2856 2158 L 2667 2158 L 2667 2069 Z Z" stroke-miterlimit="10"/></g><g transform="translate(-1970,-1390) scale(1,1)"><g><path fill="none" stroke="none"/><text fill="#000000" stroke="none" font-family="Arial" font-size="13px" font-style="normal" font-weight="bold" text-decoration="none" x="2700.445068359375" y="2088.5">View Customer Page</text></g></g><g transform="translate(-1970,-1390) scale(1,1)"><rect fill="#C0C0C0" stroke="none" x="2994" y="2251" width="189" height="89" opacity="0.2"/></g><g transform="translate(-1970,-1390) scale(1,1)"><rect fill="#ffffff" stroke="none" x="2987" y="2244" width="189" height="89"/></g><g transform="translate(-1970,-1390) scale(1,1)"><path fill="none" stroke="#000000" d="M 2987 2244 L 3176 2244 L 3176 2333 L 2987 2333 L 2987 2244 Z Z" stroke-miterlimit="10"/></g><g transform="translate(-1970,-1390) scale(1,1)"><g><path fill="none" stroke="none"/><text fill="#000000" stroke="none" font-family="Arial" font-size="13px" font-style="normal" font-weight="bold" text-decoration="none" x="3038.142333984375" y="2263.5">Edit Fare Page</text></g></g><g transform="translate(-1970,-1390) scale(1,1)"><rect fill="#C0C0C0" stroke="none" x="2994" y="1447" width="189" height="89" opacity="0.2"/></g><g transform="translate(-1970,-1390) scale(1,1)"><rect fill="#ffffff" stroke="none" x="2987" y="1440" width="189" height="89"/></g><g transform="translate(-1970,-1390) scale(1,1)"><path fill="none" stroke="#000000" d="M 2987 1440 L 3176 1440 L 3176 1529 L 2987 1529 L 2987 1440 Z Z" stroke-miterlimit="10"/></g><g transform="translate(-1970,-1390) scale(1,1)"><g><path fill="none" stroke="none"/><text fill="#000000" stroke="none" font-family="Arial" font-size="13px" font-style="normal" font-weight="bold" text-decoration="none" x="3030.56005859375" y="1459.5">Edit Waybill Page</text></g></g><g transform="translate(-1970,-1390) scale(1,1)"><rect fill="#C0C0C0" stroke="none" x="2674" y="1447" width="189" height="89" opacity="0.2"/></g><g transform="translate(-1970,-1390) scale(1,1)"><rect fill="#ffffff" stroke="none" x="2667" y="1440" width="189" height="89"/></g><g transform="translate(-1970,-1390) scale(1,1)"><path fill="none" stroke="#000000" d="M 2667 1440 L 2856 1440 L 2856 1529 L 2667 1529 L 2667 1440 Z Z" stroke-miterlimit="10"/></g><g transform="translate(-1970,-1390) scale(1,1)"><g><path fill="none" stroke="none"/><text fill="#000000" stroke="none" font-family="Arial" font-size="13px" font-style="normal" font-weight="bold" text-decoration="none" x="2707.671875" y="1459.5">View Waybill Page</text></g></g><g transform="translate(-1970,-1390) scale(1,1)"><path fill="none" stroke="#000000" d="M 2170 1714 L 2489 1714" stroke-miterlimit="10"/></g><g transform="translate(-1970,-1390) scale(1,1)"><path fill="none" stroke="#000000" d="M 2478.837325142376 1718.2095177560159 L 2489 1714 L 2478.837325142376 1709.7904822439841" stroke-miterlimit="10"/></g><g transform="translate(-1970,-1390) scale(1,1)"><g><path fill="none" stroke="none"/><text fill="#000000" stroke="none" font-family="Arial" font-size="13px" font-style="normal" font-weight="normal" text-decoration="none" x="2315.2958984375" y="1705.5">login</text></g></g><g transform="translate(-1970,-1390) scale(1,1)"><path fill="none" stroke="#000000" d="M 2590 1759 L 2590 1800 L 2410 1800 L 2410 1892" stroke-miterlimit="10"/></g><g transform="translate(-1970,-1390) scale(1,1)"><path fill="none" stroke="#000000" d="M 2405.790482243984 1881.837325142376 L 2410 1892 L 2414.209517756016 1881.837325142376" stroke-miterlimit="10"/></g><g transform="translate(-1970,-1390) scale(1,1)"><g><path fill="none" stroke="none"/><text fill="#000000" stroke="none" font-family="Arial" font-size="13px" font-style="normal" font-weight="normal" text-decoration="none" x="2430.47998046875" y="1791.5">assignDriver</text></g></g><g transform="translate(-1970,-1390) scale(1,1)"><path fill="none" stroke="#000000" d="M 2590 1759 L 2590 1800 L 2760 1800 L 2760 1892" stroke-miterlimit="10"/></g><g transform="translate(-1970,-1390) scale(1,1)"><path fill="none" stroke="#000000" d="M 2755.790482243984 1881.837325142376 L 2760 1892 L 2764.209517756016 1881.837325142376" stroke-miterlimit="10"/></g><g transform="translate(-1970,-1390) scale(1,1)"><g><path fill="none" stroke="none"/><text fill="#000000" stroke="none" font-family="Arial" font-size="13px" font-style="normal" font-weight="normal" text-decoration="none" x="2654.022705078125" y="1791.5">viewCustomers</text></g></g><g transform="translate(-1970,-1390) scale(1,1)"><path fill="none" stroke="#000000" d="M 2590 1670 L 2590 1630 L 2420 1630 L 2420 1529" stroke-miterlimit="10"/></g><g transform="translate(-1970,-1390) scale(1,1)"><path fill="none" stroke="#000000" d="M 2424.209517756016 1539.162674857624 L 2420 1529 L 2415.790482243984 1539.162674857624" stroke-miterlimit="10"/></g><g transform="translate(-1970,-1390) scale(1,1)"><g><path fill="none" stroke="none"/><text fill="#000000" stroke="none" font-family="Arial" font-size="13px" font-style="normal" font-weight="normal" text-decoration="none" x="2442.2958984375" y="1591.5">searchWaybill</text></g></g><g transform="translate(-1970,-1390) scale(1,1)"><path fill="none" stroke="#000000" d="M 2590 1670 L 2590 1630 L 2770 1630 L 2770 1529" stroke-miterlimit="10"/></g><g transform="translate(-1970,-1390) scale(1,1)"><path fill="none" stroke="#000000" d="M 2774.209517756016 1539.162674857624 L 2770 1529 L 2765.790482243984 1539.162674857624" stroke-miterlimit="10"/></g><g transform="translate(-1970,-1390) scale(1,1)"><g><path fill="none" stroke="none"/><text fill="#000000" stroke="none" font-family="Arial" font-size="13px" font-style="normal" font-weight="normal" text-decoration="none" x="2673.2958984375" y="1592.5">selectWaybill</text></g></g><g transform="translate(-1970,-1390) scale(1,1)"><path fill="none" stroke="#000000" d="M 2590 1670 L 2590 1630 L 3090 1630 L 3090 1529" stroke-miterlimit="10"/></g><g transform="translate(-1970,-1390) scale(1,1)"><path fill="none" stroke="#000000" d="M 3094.209517756016 1539.162674857624 L 3090 1529 L 3085.790482243984 1539.162674857624" stroke-miterlimit="10"/></g><g transform="translate(-1970,-1390) scale(1,1)"><g><path fill="none" stroke="none"/><text fill="#000000" stroke="none" font-family="Arial" font-size="13px" font-style="normal" font-weight="normal" text-decoration="none" x="2993.2958984375" y="1592.5">createWaybill</text></g></g><g transform="translate(-1970,-1390) scale(1,1)"><path fill="none" stroke="#000000" d="M 2404 1982 L 2404 2068" stroke-miterlimit="10"/></g><g transform="translate(-1970,-1390) scale(1,1)"><path fill="none" stroke="#000000" d="M 2399.790482243984 2057.837325142376 L 2404 2068 L 2408.209517756016 2057.837325142376" stroke-miterlimit="10"/></g><g transform="translate(-1970,-1390) scale(1,1)"><g><path fill="none" stroke="none"/><text fill="#000000" stroke="none" font-family="Arial" font-size="13px" font-style="normal" font-weight="normal" text-decoration="none" x="2411.2958984375" y="2032.5">selectDriver</text></g></g><g transform="translate(-1970,-1390) scale(1,1)"><path fill="none" stroke="#000000" d="M 2420 2158 L 2420 2244" stroke-miterlimit="10"/></g><g transform="translate(-1970,-1390) scale(1,1)"><path fill="none" stroke="#000000" d="M 2415.790482243984 2233.837325142376 L 2420 2244 L 2424.209517756016 2233.837325142376" stroke-miterlimit="10"/></g><g transform="translate(-1970,-1390) scale(1,1)"><g><path fill="none" stroke="none"/><text fill="#000000" stroke="none" font-family="Arial" font-size="13px" font-style="normal" font-weight="normal" text-decoration="none" x="2433.2958984375" y="2206.5">save</text></g></g><g transform="translate(-1970,-1390) scale(1,1)"><path fill="none" stroke="#000000" d="M 2390 2244 L 2390 2158" stroke-miterlimit="10"/></g><g transform="translate(-1970,-1390) scale(1,1)"><path fill="none" stroke="#000000" d="M 2394.209517756016 2168.162674857624 L 2390 2158 L 2385.790482243984 2168.162674857624" stroke-miterlimit="10"/></g><g transform="translate(-1970,-1390) scale(1,1)"><g><path fill="none" stroke="none"/><text fill="#000000" stroke="none" font-family="Arial" font-size="13px" font-style="normal" font-weight="normal" text-decoration="none" x="2318.5" y="2206.5">addWaybill</text></g></g><g transform="translate(-1970,-1390) scale(1,1)"><path fill="none" stroke="#000000" d="M 2761 1982 L 2761 2068" stroke-miterlimit="10"/></g><g transform="translate(-1970,-1390) scale(1,1)"><path fill="none" stroke="#000000" d="M 2756.790482243984 2057.837325142376 L 2761 2068 L 2765.209517756016 2057.837325142376" stroke-miterlimit="10"/></g><g transform="translate(-1970,-1390) scale(1,1)"><g><path fill="none" stroke="none"/><text fill="#000000" stroke="none" font-family="Arial" font-size="13px" font-style="normal" font-weight="normal" text-decoration="none" x="2782.2958984375" y="2032.5">selectCustomer</text></g></g><g transform="translate(-1970,-1390) scale(1,1)"><path fill="none" stroke="#000000" d="M 2667 1924 L 2610 1924 L 2610 2320 L 2667 2320" stroke-miterlimit="10"/></g><g transform="translate(-1970,-1390) scale(1,1)"><path fill="none" stroke="#000000" d="M 2656.837325142376 2324.209517756016 L 2667 2320 L 2656.837325142376 2315.790482243984" stroke-miterlimit="10"/></g><g transform="translate(-1970,-1390) scale(1,1)"><g><path fill="none" stroke="none"/><text fill="#000000" stroke="none" font-family="Arial" font-size="13px" font-style="normal" font-weight="normal" text-decoration="none" x="2561.2958984375" y="1911.5">createCustomer</text></g></g><g transform="translate(-1970,-1390) scale(1,1)"><path fill="none" stroke="#000000" d="M 2740 2158 L 2740 2244" stroke-miterlimit="10"/></g><g transform="translate(-1970,-1390) scale(1,1)"><path fill="none" stroke="#000000" d="M 2735.790482243984 2233.837325142376 L 2740 2244 L 2744.209517756016 2233.837325142376" stroke-miterlimit="10"/></g><g transform="translate(-1970,-1390) scale(1,1)"><g><path fill="none" stroke="none"/><text fill="#000000" stroke="none" font-family="Arial" font-size="13px" font-style="normal" font-weight="normal" text-decoration="none" x="2693.2958984375" y="2204.5">modify</text></g></g><g transform="translate(-1970,-1390) scale(1,1)"><path fill="none" stroke="#000000" d="M 2780 2244 L 2780 2158" stroke-miterlimit="10"/></g><g transform="translate(-1970,-1390) scale(1,1)"><path fill="none" stroke="#000000" d="M 2784.209517756016 2168.162674857624 L 2780 2158 L 2775.790482243984 2168.162674857624" stroke-miterlimit="10"/></g><g transform="translate(-1970,-1390) scale(1,1)"><g><path fill="none" stroke="none"/><text fill="#000000" stroke="none" font-family="Arial" font-size="13px" font-style="normal" font-weight="normal" text-decoration="none" x="2792.2958984375" y="2204.5">save</text></g></g><g transform="translate(-1970,-1390) scale(1,1)"><path fill="none" stroke="#000000" d="M 3070 2158 L 3070 2244" stroke-miterlimit="10"/></g><g transform="translate(-1970,-1390) scale(1,1)"><path fill="none" stroke="#000000" d="M 3065.790482243984 2233.837325142376 L 3070 2244 L 3074.209517756016 2233.837325142376" stroke-miterlimit="10"/></g><g transform="translate(-1970,-1390) scale(1,1)"><g><path fill="none" stroke="none"/><text fill="#000000" stroke="none" font-family="Arial" font-size="13px" font-style="normal" font-weight="normal" text-decoration="none" x="3013.2958984375" y="2199.5">modify</text></g></g><g transform="translate(-1970,-1390) scale(1,1)"><path fill="none" stroke="#000000" d="M 2856 2104 L 2987 2104" stroke-miterlimit="10"/></g><g transform="translate(-1970,-1390) scale(1,1)"><path fill="none" stroke="#000000" d="M 2976.837325142376 2108.209517756016 L 2987 2104 L 2976.837325142376 2099.790482243984" stroke-miterlimit="10"/></g><g transform="translate(-1970,-1390) scale(1,1)"><g><path fill="none" stroke="none"/><text fill="#000000" stroke="none" font-family="Arial" font-size="13px" font-style="normal" font-weight="normal" text-decoration="none" x="2894.2958984375" y="2095.5">viewFare</text></g></g><g transform="translate(-1970,-1390) scale(1,1)"><path fill="none" stroke="#000000" d="M 2856 2130 L 2920 2130 L 2920 2290 L 2987 2290" stroke-miterlimit="10"/></g><g transform="translate(-1970,-1390) scale(1,1)"><path fill="none" stroke="#000000" d="M 2976.837325142376 2294.209517756016 L 2987 2290 L 2976.837325142376 2285.790482243984" stroke-miterlimit="10"/></g><g transform="translate(-1970,-1390) scale(1,1)"><g><path fill="none" stroke="none"/><text fill="#000000" stroke="none" font-family="Arial" font-size="13px" font-style="normal" font-weight="normal" text-decoration="none" x="2901.2958984375" y="2312.5">createFare</text></g></g><g transform="translate(-1970,-1390) scale(1,1)"><path fill="none" stroke="#000000" d="M 3100 2244 L 3100 2158" stroke-miterlimit="10"/></g><g transform="translate(-1970,-1390) scale(1,1)"><path fill="none" stroke="#000000" d="M 3104.209517756016 2168.162674857624 L 3100 2158 L 3095.790482243984 2168.162674857624" stroke-miterlimit="10"/></g><g transform="translate(-1970,-1390) scale(1,1)"><g><path fill="none" stroke="none"/><text fill="#000000" stroke="none" font-family="Arial" font-size="13px" font-style="normal" font-weight="normal" text-decoration="none" x="3112.2958984375" y="2201.5">save</text></g></g><g transform="translate(-1970,-1390) scale(1,1)"><path fill="none" stroke="#000000" d="M 2414 1440 L 2414 1420 L 2260 1420 L 2260 1490 L 2320 1490" stroke-miterlimit="10"/></g><g transform="translate(-1970,-1390) scale(1,1)"><path fill="none" stroke="#000000" d="M 2309.837325142376 1494.2095177560159 L 2320 1490 L 2309.837325142376 1485.7904822439841" stroke-miterlimit="10"/></g><g transform="translate(-1970,-1390) scale(1,1)"><g><path fill="none" stroke="none"/><text fill="#000000" stroke="none" font-family="Arial" font-size="13px" font-style="normal" font-weight="normal" text-decoration="none" x="2311.2958984375" y="1412.5">search</text></g></g><g transform="translate(-1970,-1390) scale(1,1)"><path fill="none" stroke="#000000" d="M 2856 1470 L 2987 1470" stroke-miterlimit="10"/></g><g transform="translate(-1970,-1390) scale(1,1)"><path fill="none" stroke="#000000" d="M 2976.837325142376 1474.2095177560159 L 2987 1470 L 2976.837325142376 1465.7904822439841" stroke-miterlimit="10"/></g><g transform="translate(-1970,-1390) scale(1,1)"><g><path fill="none" stroke="none"/><text fill="#000000" stroke="none" font-family="Arial" font-size="13px" font-style="normal" font-weight="normal" text-decoration="none" x="2902.2958984375" y="1461.5">modify</text></g></g><g transform="translate(-1970,-1390) scale(1,1)"><path fill="none" stroke="#000000" d="M 2987 1500 L 2856 1500" stroke-miterlimit="10"/></g><g transform="translate(-1970,-1390) scale(1,1)"><path fill="none" stroke="#000000" d="M 2866.162674857624 1495.7904822439841 L 2856 1500 L 2866.162674857624 1504.2095177560159" stroke-miterlimit="10"/></g><g transform="translate(-1970,-1390) scale(1,1)"><g><path fill="none" stroke="none"/><text fill="#000000" stroke="none" font-family="Arial" font-size="13px" font-style="normal" font-weight="normal" text-decoration="none" x="2906.2958984375" y="1521.5">save</text></g></g><g transform="translate(-1970,-1390) scale(1,1)"><path fill="none" stroke="#000000" d="M 2509 1484 L 2667 1484" stroke-miterlimit="10"/></g><g transform="translate(-1970,-1390) scale(1,1)"><path fill="none" stroke="#000000" d="M 2656.837325142376 1488.2095177560159 L 2667 1484 L 2656.837325142376 1479.7904822439841" stroke-miterlimit="10"/></g><g transform="translate(-1970,-1390) scale(1,1)"><g><path fill="none" stroke="none"/><text fill="#000000" stroke="none" font-family="Arial" font-size="13px" font-style="normal" font-weight="normal" text-decoration="none" x="2550.2958984375" y="1475.5">selectWaybill</text></g></g></g></svg>