<svg version="1.1" xmlns="http://www.w3.org/2000/svg" xmlns:xlink="http://www.w3.org/1999/xlink" width="1044" height="894"><defs/><g><g transform="translate(-1990,-1510) scale(1,1)"><path fill="#ffffff" stroke="none" d="M 2076.1055321377844 1748.9099999999999 C 2076.1055321377844 1742.332288032 2081.358615280766 1737 2087.838623046875 1737 C 2094.318630812984 1737 2099.5717139559656 1742.332288032 2099.5717139559656 1748.9099999999999 C 2099.5717139559656 1755.4877119679998 2094.318630812984 1760.82 2087.838623046875 1760.82 C 2081.358615280766 1760.82 2076.1055321377844 1755.4877119679998 2076.1055321377844 1748.9099999999999 Z"/></g><g transform="translate(-1990,-1510) scale(1,1)"><path fill="none" stroke="#000000" d="M 2076.1055321377844 1748.9099999999999 C 2076.1055321377844 1742.332288032 2081.358615280766 1737 2087.838623046875 1737 C 2094.318630812984 1737 2099.5717139559656 1742.332288032 2099.5717139559656 1748.9099999999999 C 2099.5717139559656 1755.4877119679998 2094.318630812984 1760.82 2087.838623046875 1760.82 C 2081.358615280766 1760.82 2076.1055321377844 1755.4877119679998 2076.1055321377844 1748.9099999999999 Z" stroke-miterlimit="10"/></g><g transform="translate(-1990,-1510) scale(1,1)"><path fill="none" stroke="#000000" d="M 2087.838623046875 1760.82 L 2087.838623046875 1784.18" stroke-miterlimit="10"/></g><g transform="translate(-1990,-1510) scale(1,1)"><path fill="none" stroke="#000000" d="M 2075.4153503196026 1769.58 L 2100.2618957741474 1769.58" stroke-miterlimit="10"/></g><g transform="translate(-1990,-1510) scale(1,1)"><path fill="none" stroke="#000000" d="M 2087.838623046875 1784.18 L 2070.58407759233 1808" stroke-miterlimit="10"/></g><g transform="translate(-1990,-1510) scale(1,1)"><path fill="none" stroke="#000000" d="M 2087.838623046875 1784.18 L 2105.09316850142 1808" stroke-miterlimit="10"/></g><g transform="translate(-1990,-1510) scale(1,1)"><g><path fill="none" stroke="none"/><text fill="#000000" stroke="none" font-family="Arial" font-size="13px" font-style="normal" font-weight="bold" text-decoration="none" x="2059.66455078125" y="1828.5">Customer</text></g></g><g transform="translate(-1990,-1510) scale(1,1)"><path fill="#ffffff" stroke="none" d="M 2076.1055321377844 2180.91 C 2076.1055321377844 2174.3322880319997 2081.358615280766 2169 2087.838623046875 2169 C 2094.318630812984 2169 2099.5717139559656 2174.3322880319997 2099.5717139559656 2180.91 C 2099.5717139559656 2187.487711968 2094.318630812984 2192.82 2087.838623046875 2192.82 C 2081.358615280766 2192.82 2076.1055321377844 2187.487711968 2076.1055321377844 2180.91 Z"/></g><g transform="translate(-1990,-1510) scale(1,1)"><path fill="none" stroke="#000000" d="M 2076.1055321377844 2180.91 C 2076.1055321377844 2174.3322880319997 2081.358615280766 2169 2087.838623046875 2169 C 2094.318630812984 2169 2099.5717139559656 2174.3322880319997 2099.5717139559656 2180.91 C 2099.5717139559656 2187.487711968 2094.318630812984 2192.82 2087.838623046875 2192.82 C 2081.358615280766 2192.82 2076.1055321377844 2187.487711968 2076.1055321377844 2180.91 Z" stroke-miterlimit="10"/></g><g transform="translate(-1990,-1510) scale(1,1)"><path fill="none" stroke="#000000" d="M 2087.838623046875 2192.82 L 2087.838623046875 2216.18" stroke-miterlimit="10"/></g><g transform="translate(-1990,-1510) scale(1,1)"><path fill="none" stroke="#000000" d="M 2075.4153503196026 2201.58 L 2100.2618957741474 2201.58" stroke-miterlimit="10"/></g><g transform="translate(-1990,-1510) scale(1,1)"><path fill="none" stroke="#000000" d="M 2087.838623046875 2216.18 L 2070.58407759233 2240" stroke-miterlimit="10"/></g><g transform="translate(-1990,-1510) scale(1,1)"><path fill="none" stroke="#000000" d="M 2087.838623046875 2216.18 L 2105.09316850142 2240" stroke-miterlimit="10"/></g><g transform="translate(-1990,-1510) scale(1,1)"><g><path fill="none" stroke="none"/><text fill="#000000" stroke="none" font-family="Arial" font-size="13px" font-style="normal" font-weight="bold" text-decoration="none" x="2062.187744140625" y="2260.5">Operator</text></g></g><g transform="translate(-1990,-1510) scale(1,1)"><path fill="#ffffff" stroke="none" d="M 2076.1055321377844 1964.9099999999999 C 2076.1055321377844 1958.332288032 2081.358615280766 1953 2087.838623046875 1953 C 2094.318630812984 1953 2099.5717139559656 1958.332288032 2099.5717139559656 1964.9099999999999 C 2099.5717139559656 1971.4877119679998 2094.318630812984 1976.82 2087.838623046875 1976.82 C 2081.358615280766 1976.82 2076.1055321377844 1971.4877119679998 2076.1055321377844 1964.9099999999999 Z"/></g><g transform="translate(-1990,-1510) scale(1,1)"><path fill="none" stroke="#000000" d="M 2076.1055321377844 1964.9099999999999 C 2076.1055321377844 1958.332288032 2081.358615280766 1953 2087.838623046875 1953 C 2094.318630812984 1953 2099.5717139559656 1958.332288032 2099.5717139559656 1964.9099999999999 C 2099.5717139559656 1971.4877119679998 2094.318630812984 1976.82 2087.838623046875 1976.82 C 2081.358615280766 1976.82 2076.1055321377844 1971.4877119679998 2076.1055321377844 1964.9099999999999 Z" stroke-miterlimit="10"/></g><g transform="translate(-1990,-1510) scale(1,1)"><path fill="none" stroke="#000000" d="M 2087.838623046875 1976.82 L 2087.838623046875 2000.18" stroke-miterlimit="10"/></g><g transform="translate(-1990,-1510) scale(1,1)"><path fill="none" stroke="#000000" d="M 2075.4153503196026 1985.58 L 2100.2618957741474 1985.58" stroke-miterlimit="10"/></g><g transform="translate(-1990,-1510) scale(1,1)"><path fill="none" stroke="#000000" d="M 2087.838623046875 2000.18 L 2070.58407759233 2024" stroke-miterlimit="10"/></g><g transform="translate(-1990,-1510) scale(1,1)"><path fill="none" stroke="#000000" d="M 2087.838623046875 2000.18 L 2105.09316850142 2024" stroke-miterlimit="10"/></g><g transform="translate(-1990,-1510) scale(1,1)"><g><path fill="none" stroke="none"/><text fill="#000000" stroke="none" font-family="Arial" font-size="13px" font-style="normal" font-weight="bold" text-decoration="none" x="2070.50634765625" y="2044.5">Driver</text></g></g><g transform="translate(-1990,-1510) scale(1,1)"><path fill="#ffffff" stroke="none" d="M 2076.1055321377844 1532.9099999999999 C 2076.1055321377844 1526.332288032 2081.358615280766 1521 2087.838623046875 1521 C 2094.318630812984 1521 2099.5717139559656 1526.332288032 2099.5717139559656 1532.9099999999999 C 2099.5717139559656 1539.4877119679998 2094.318630812984 1544.82 2087.838623046875 1544.82 C 2081.358615280766 1544.82 2076.1055321377844 1539.4877119679998 2076.1055321377844 1532.9099999999999 Z"/></g><g transform="translate(-1990,-1510) scale(1,1)"><path fill="none" stroke="#000000" d="M 2076.1055321377844 1532.9099999999999 C 2076.1055321377844 1526.332288032 2081.358615280766 1521 2087.838623046875 1521 C 2094.318630812984 1521 2099.5717139559656 1526.332288032 2099.5717139559656 1532.9099999999999 C 2099.5717139559656 1539.4877119679998 2094.318630812984 1544.82 2087.838623046875 1544.82 C 2081.358615280766 1544.82 2076.1055321377844 1539.4877119679998 2076.1055321377844 1532.9099999999999 Z" stroke-miterlimit="10"/></g><g transform="translate(-1990,-1510) scale(1,1)"><path fill="none" stroke="#000000" d="M 2087.838623046875 1544.82 L 2087.838623046875 1568.18" stroke-miterlimit="10"/></g><g transform="translate(-1990,-1510) scale(1,1)"><path fill="none" stroke="#000000" d="M 2075.4153503196026 1553.58 L 2100.2618957741474 1553.58" stroke-miterlimit="10"/></g><g transform="translate(-1990,-1510) scale(1,1)"><path fill="none" stroke="#000000" d="M 2087.838623046875 1568.18 L 2070.58407759233 1592" stroke-miterlimit="10"/></g><g transform="translate(-1990,-1510) scale(1,1)"><path fill="none" stroke="#000000" d="M 2087.838623046875 1568.18 L 2105.09316850142 1592" stroke-miterlimit="10"/></g><g transform="translate(-1990,-1510) scale(1,1)"><g><path fill="none" stroke="none"/><text fill="#000000" stroke="none" font-family="Arial" font-size="13px" font-style="normal" font-weight="bold" text-decoration="none" x="2074.114990234375" y="1612.5">User</text></g></g><g transform="translate(-1990,-1510) scale(1,1)"><path fill="#C0C0C0" stroke="none" d="M 2497 1564 C 2497 1554.6111584 2534.6080768 1547 2581 1547 C 2627.3919232 1547 2665 1554.6111584 2665 1564 C 2665 1573.3888416 2627.3919232 1581 2581 1581 C 2534.6080768 1581 2497 1573.3888416 2497 1564 Z" opacity="0.2"/></g><g transform="translate(-1990,-1510) scale(1,1)"><path fill="#ffffff" stroke="none" d="M 2490 1557 C 2490 1547.6111584 2527.6080768 1540 2574 1540 C 2620.3919232 1540 2658 1547.6111584 2658 1557 C 2658 1566.3888416 2620.3919232 1574 2574 1574 C 2527.6080768 1574 2490 1566.3888416 2490 1557 Z"/></g><g transform="translate(-1990,-1510) scale(1,1)"><path fill="none" stroke="#000000" d="M 2490 1557 C 2490 1547.6111584 2527.6080768 1540 2574 1540 C 2620.3919232 1540 2658 1547.6111584 2658 1557 C 2658 1566.3888416 2620.3919232 1574 2574 1574 C 2527.6080768 1574 2490 1566.3888416 2490 1557 Z" stroke-miterlimit="10"/></g><g transform="translate(-1990,-1510) scale(1,1)"><g><path fill="none" stroke="none"/><text fill="#000000" stroke="none" font-family="Arial" font-size="13px" font-style="normal" font-weight="bold" text-decoration="none" x="2523.41552734375" y="1564">Login nel sistema</text></g></g><g transform="translate(-1990,-1510) scale(1,1)"><path fill="none" stroke="#000000" d="M 2124 1568 L 2489 1559" stroke-miterlimit="10"/></g><g transform="translate(-1990,-1510) scale(1,1)"><path fill="none" stroke="#000000" d="M 2478.9441779458098 1563.458749019003 L 2489 1559 L 2478.736648368131 1555.0422717020228" stroke-miterlimit="10"/></g><g transform="translate(-1990,-1510) scale(1,1)"><path fill="#C0C0C0" stroke="none" d="M 2237 1674 C 2237 1664.6111584 2273.0410736 1657 2317.5 1657 C 2361.9589264 1657 2398 1664.6111584 2398 1674 C 2398 1683.3888416 2361.9589264 1691 2317.5 1691 C 2273.0410736 1691 2237 1683.3888416 2237 1674 Z" opacity="0.2"/></g><g transform="translate(-1990,-1510) scale(1,1)"><path fill="#ffffff" stroke="none" d="M 2230 1667 C 2230 1657.6111584 2266.0410736 1650 2310.5 1650 C 2354.9589264 1650 2391 1657.6111584 2391 1667 C 2391 1676.3888416 2354.9589264 1684 2310.5 1684 C 2266.0410736 1684 2230 1676.3888416 2230 1667 Z"/></g><g transform="translate(-1990,-1510) scale(1,1)"><path fill="none" stroke="#000000" d="M 2230 1667 C 2230 1657.6111584 2266.0410736 1650 2310.5 1650 C 2354.9589264 1650 2391 1657.6111584 2391 1667 C 2391 1676.3888416 2354.9589264 1684 2310.5 1684 C 2266.0410736 1684 2230 1676.3888416 2230 1667 Z" stroke-miterlimit="10"/></g><g transform="translate(-1990,-1510) scale(1,1)"><g><path fill="none" stroke="none"/><text fill="#000000" stroke="none" font-family="Arial" font-size="13px" font-style="normal" font-weight="bold" text-decoration="none" x="2261.00732421875" y="1674">Crea una Waybill</text></g></g><g transform="translate(-1990,-1510) scale(1,1)"><path fill="#C0C0C0" stroke="none" d="M 2427 1694 C 2427 1684.6111584 2500.2014352 1677 2590.5 1677 C 2680.7985648 1677 2754 1684.6111584 2754 1694 C 2754 1703.3888416 2680.7985648 1711 2590.5 1711 C 2500.2014352 1711 2427 1703.3888416 2427 1694 Z" opacity="0.2"/></g><g transform="translate(-1990,-1510) scale(1,1)"><path fill="#ffffff" stroke="none" d="M 2420 1687 C 2420 1677.6111584 2493.2014352 1670 2583.5 1670 C 2673.7985648 1670 2747 1677.6111584 2747 1687 C 2747 1696.3888416 2673.7985648 1704 2583.5 1704 C 2493.2014352 1704 2420 1696.3888416 2420 1687 Z"/></g><g transform="translate(-1990,-1510) scale(1,1)"><path fill="none" stroke="#000000" d="M 2420 1687 C 2420 1677.6111584 2493.2014352 1670 2583.5 1670 C 2673.7985648 1670 2747 1677.6111584 2747 1687 C 2747 1696.3888416 2673.7985648 1704 2583.5 1704 C 2493.2014352 1704 2420 1696.3888416 2420 1687 Z" stroke-miterlimit="10"/></g><g transform="translate(-1990,-1510) scale(1,1)"><g><path fill="none" stroke="none"/><text fill="#000000" stroke="none" font-family="Arial" font-size="13px" font-style="normal" font-weight="bold" text-decoration="none" x="2480.541015625" y="1694">Visualizza lista delle proprie Waybill</text></g></g><g transform="translate(-1990,-1510) scale(1,1)"><path fill="#C0C0C0" stroke="none" d="M 2411 1774 C 2411 1764.6111584 2491.1410208 1757 2590 1757 C 2688.8589792 1757 2769 1764.6111584 2769 1774 C 2769 1783.3888416 2688.8589792 1791 2590 1791 C 2491.1410208 1791 2411 1783.3888416 2411 1774 Z" opacity="0.2"/></g><g transform="translate(-1990,-1510) scale(1,1)"><path fill="#ffffff" stroke="none" d="M 2404 1767 C 2404 1757.6111584 2484.1410208 1750 2583 1750 C 2681.8589792 1750 2762 1757.6111584 2762 1767 C 2762 1776.3888416 2681.8589792 1784 2583 1784 C 2484.1410208 1784 2404 1776.3888416 2404 1767 Z"/></g><g transform="translate(-1990,-1510) scale(1,1)"><path fill="none" stroke="#000000" d="M 2404 1767 C 2404 1757.6111584 2484.1410208 1750 2583 1750 C 2681.8589792 1750 2762 1757.6111584 2762 1767 C 2762 1776.3888416 2681.8589792 1784 2583 1784 C 2484.1410208 1784 2404 1776.3888416 2404 1767 Z" stroke-miterlimit="10"/></g><g transform="translate(-1990,-1510) scale(1,1)"><g><path fill="none" stroke="none"/><text fill="#000000" stroke="none" font-family="Arial" font-size="13px" font-style="normal" font-weight="bold" text-decoration="none" x="2470.2783203125" y="1774">Modifica le proprie Waybill non validate</text></g></g><g transform="translate(-1990,-1510) scale(1,1)"><path fill="#C0C0C0" stroke="none" d="M 2402 1844 C 2402 1834.6111584 2486.3943152 1827 2590.5 1827 C 2694.6056848 1827 2779 1834.6111584 2779 1844 C 2779 1853.3888416 2694.6056848 1861 2590.5 1861 C 2486.3943152 1861 2402 1853.3888416 2402 1844 Z" opacity="0.2"/></g><g transform="translate(-1990,-1510) scale(1,1)"><path fill="#ffffff" stroke="none" d="M 2395 1837 C 2395 1827.6111584 2479.3943152 1820 2583.5 1820 C 2687.6056848 1820 2772 1827.6111584 2772 1837 C 2772 1846.3888416 2687.6056848 1854 2583.5 1854 C 2479.3943152 1854 2395 1846.3888416 2395 1837 Z"/></g><g transform="translate(-1990,-1510) scale(1,1)"><path fill="none" stroke="#000000" d="M 2395 1837 C 2395 1827.6111584 2479.3943152 1820 2583.5 1820 C 2687.6056848 1820 2772 1827.6111584 2772 1837 C 2772 1846.3888416 2687.6056848 1854 2583.5 1854 C 2479.3943152 1854 2395 1846.3888416 2395 1837 Z" stroke-miterlimit="10"/></g><g transform="translate(-1990,-1510) scale(1,1)"><g><path fill="none" stroke="none"/><text fill="#000000" stroke="none" font-family="Arial" font-size="13px" font-style="normal" font-weight="bold" text-decoration="none" x="2464.646484375" y="1844">Visualizza il tracking delle proprie Waybill</text></g></g><g transform="translate(-1990,-1510) scale(1,1)"><path fill="none" stroke="#000000" d="M 2124 1766 L 2276 1685" stroke-miterlimit="10"/></g><g transform="translate(-1990,-1510) scale(1,1)"><path fill="none" stroke="#000000" d="M 2269.010982005264 1693.4943291359152 L 2276 1685 L 2265.0516202484514 1686.0644157157235" stroke-miterlimit="10"/></g><g transform="translate(-1990,-1510) scale(1,1)"><path fill="none" stroke="#000000" d="M 2124 1778 L 2492 1705" stroke-miterlimit="10"/></g><g transform="translate(-1990,-1510) scale(1,1)"><path fill="none" stroke="#000000" d="M 2482.850644222592 1711.1064956282971 L 2492 1705 L 2481.2124840182514 1702.8483729543616" stroke-miterlimit="10"/></g><g transform="translate(-1990,-1510) scale(1,1)"><path fill="none" stroke="#000000" d="M 2124 1784 L 2403 1774" stroke-miterlimit="10"/></g><g transform="translate(-1990,-1510) scale(1,1)"><path fill="none" stroke="#000000" d="M 2392.994628652605 1778.5708362692983 L 2403 1774 L 2392.6930647502536 1770.1572033936818" stroke-miterlimit="10"/></g><g transform="translate(-1990,-1510) scale(1,1)"><path fill="none" stroke="#000000" d="M 2124 1789 L 2411 1819" stroke-miterlimit="10"/></g><g transform="translate(-1990,-1510) scale(1,1)"><path fill="none" stroke="#000000" d="M 2400.4547603163774 1822.1301629374439 L 2411 1819 L 2401.3300300711876 1813.756748949758" stroke-miterlimit="10"/></g><g transform="translate(-1990,-1510) scale(1,1)"><path fill="#C0C0C0" stroke="none" d="M 2197 1954 C 2197 1944.6111584 2261.4709888 1937 2341 1937 C 2420.5290112 1937 2485 1944.6111584 2485 1954 C 2485 1963.3888416 2420.5290112 1971 2341 1971 C 2261.4709888 1971 2197 1963.3888416 2197 1954 Z" opacity="0.2"/></g><g transform="translate(-1990,-1510) scale(1,1)"><path fill="#ffffff" stroke="none" d="M 2190 1947 C 2190 1937.6111584 2254.4709888 1930 2334 1930 C 2413.5290112 1930 2478 1937.6111584 2478 1947 C 2478 1956.3888416 2413.5290112 1964 2334 1964 C 2254.4709888 1964 2190 1956.3888416 2190 1947 Z"/></g><g transform="translate(-1990,-1510) scale(1,1)"><path fill="none" stroke="#000000" d="M 2190 1947 C 2190 1937.6111584 2254.4709888 1930 2334 1930 C 2413.5290112 1930 2478 1937.6111584 2478 1947 C 2478 1956.3888416 2413.5290112 1964 2334 1964 C 2254.4709888 1964 2190 1956.3888416 2190 1947 Z" stroke-miterlimit="10"/></g><g transform="translate(-1990,-1510) scale(1,1)"><g><path fill="none" stroke="none"/><text fill="#000000" stroke="none" font-family="Arial" font-size="13px" font-style="normal" font-weight="bold" text-decoration="none" x="2243.67919921875" y="1954">Visualizza la Mission del giorno</text></g></g><g transform="translate(-1990,-1510) scale(1,1)"><path fill="#C0C0C0" stroke="none" d="M 2267 2034 C 2267 2024.6111584 2352.7374608 2017 2458.5 2017 C 2564.2625392 2017 2650 2024.6111584 2650 2034 C 2650 2043.3888416 2564.2625392 2051 2458.5 2051 C 2352.7374608 2051 2267 2043.3888416 2267 2034 Z" opacity="0.2"/></g><g transform="translate(-1990,-1510) scale(1,1)"><path fill="#ffffff" stroke="none" d="M 2260 2027 C 2260 2017.6111584 2345.7374608 2010 2451.5 2010 C 2557.2625392 2010 2643 2017.6111584 2643 2027 C 2643 2036.3888416 2557.2625392 2044 2451.5 2044 C 2345.7374608 2044 2260 2036.3888416 2260 2027 Z"/></g><g transform="translate(-1990,-1510) scale(1,1)"><path fill="none" stroke="#000000" d="M 2260 2027 C 2260 2017.6111584 2345.7374608 2010 2451.5 2010 C 2557.2625392 2010 2643 2017.6111584 2643 2027 C 2643 2036.3888416 2557.2625392 2044 2451.5 2044 C 2345.7374608 2044 2260 2036.3888416 2260 2027 Z" stroke-miterlimit="10"/></g><g transform="translate(-1990,-1510) scale(1,1)"><g><path fill="none" stroke="none"/><text fill="#000000" stroke="none" font-family="Arial" font-size="13px" font-style="normal" font-weight="bold" text-decoration="none" x="2329.748779296875" y="2034">Visualizza Waybill contenute nella Mission</text></g></g><g transform="translate(-1990,-1510) scale(1,1)"><path fill="#C0C0C0" stroke="none" d="M 2527 1954 C 2527 1944.6111584 2567.9659407999998 1937 2618.5 1937 C 2669.0340592000002 1937 2710 1944.6111584 2710 1954 C 2710 1963.3888416 2669.0340592000002 1971 2618.5 1971 C 2567.9659407999998 1971 2527 1963.3888416 2527 1954 Z" opacity="0.2"/></g><g transform="translate(-1990,-1510) scale(1,1)"><path fill="#ffffff" stroke="none" d="M 2520 1947 C 2520 1937.6111584 2560.9659407999998 1930 2611.5 1930 C 2662.0340592000002 1930 2703 1937.6111584 2703 1947 C 2703 1956.3888416 2662.0340592000002 1964 2611.5 1964 C 2560.9659407999998 1964 2520 1956.3888416 2520 1947 Z"/></g><g transform="translate(-1990,-1510) scale(1,1)"><path fill="none" stroke="#000000" d="M 2520 1947 C 2520 1937.6111584 2560.9659407999998 1930 2611.5 1930 C 2662.0340592000002 1930 2703 1937.6111584 2703 1947 C 2703 1956.3888416 2662.0340592000002 1964 2611.5 1964 C 2560.9659407999998 1964 2520 1956.3888416 2520 1947 Z" stroke-miterlimit="10"/></g><g transform="translate(-1990,-1510) scale(1,1)"><g><path fill="none" stroke="none"/><text fill="#000000" stroke="none" font-family="Arial" font-size="13px" font-style="normal" font-weight="bold" text-decoration="none" x="2555.86279296875" y="1954">Aggiorna la Waybill</text></g></g><g transform="translate(-1990,-1510) scale(1,1)"><path fill="none" stroke="#000000" d="M 2360 1965 L 2425 2009" stroke-miterlimit="10" stroke-dasharray="3"/></g><g transform="translate(-1990,-1510) scale(1,1)"><path fill="none" stroke="#000000" d="M 2414.2244784238133 2006.7890873465612 L 2425 2009 L 2418.943906952514 1999.8172042927988" stroke-miterlimit="10"/></g><g transform="translate(-1990,-1510) scale(1,1)"><g><path fill="none" stroke="none"/><text fill="#000000" stroke="none" font-family="Arial" font-size="13px" font-style="normal" font-weight="normal" text-decoration="none" x="2401.75" y="1984.5">«precede»</text></g></g><g transform="translate(-1990,-1510) scale(1,1)"><path fill="none" stroke="#000000" d="M 2487 2009 L 2575 1965" stroke-miterlimit="10" stroke-dasharray="3"/></g><g transform="translate(-1990,-1510) scale(1,1)"><path fill="none" stroke="#000000" d="M 2567.7927808450386 1973.3099935049527 L 2575 1965 L 2564.027673703061 1965.7797792209974" stroke-miterlimit="10"/></g><g transform="translate(-1990,-1510) scale(1,1)"><g><path fill="none" stroke="none"/><text fill="#000000" stroke="none" font-family="Arial" font-size="13px" font-style="normal" font-weight="normal" text-decoration="none" x="2557.75" y="1990.5">«precede»</text></g></g><g transform="translate(-1990,-1510) scale(1,1)"><path fill="#C0C0C0" stroke="none" d="M 2745 2034 C 2745 2024.6111584 2809.0232736 2017 2888 2017 C 2966.9767264 2017 3031 2024.6111584 3031 2034 C 3031 2043.3888416 2966.9767264 2051 2888 2051 C 2809.0232736 2051 2745 2043.3888416 2745 2034 Z" opacity="0.2"/></g><g transform="translate(-1990,-1510) scale(1,1)"><path fill="#ffffff" stroke="none" d="M 2738 2027 C 2738 2017.6111584 2802.0232736 2010 2881 2010 C 2959.9767264 2010 3024 2017.6111584 3024 2027 C 3024 2036.3888416 2959.9767264 2044 2881 2044 C 2802.0232736 2044 2738 2036.3888416 2738 2027 Z"/></g><g transform="translate(-1990,-1510) scale(1,1)"><path fill="none" stroke="#000000" d="M 2738 2027 C 2738 2017.6111584 2802.0232736 2010 2881 2010 C 2959.9767264 2010 3024 2017.6111584 3024 2027 C 3024 2036.3888416 2959.9767264 2044 2881 2044 C 2802.0232736 2044 2738 2036.3888416 2738 2027 Z" stroke-miterlimit="10"/></g><g transform="translate(-1990,-1510) scale(1,1)"><g><path fill="none" stroke="none"/><text fill="#000000" stroke="none" font-family="Arial" font-size="13px" font-style="normal" font-weight="bold" text-decoration="none" x="2790.3173828125" y="2034">Aggiunge la Firma del Receiver</text></g></g><g transform="translate(-1990,-1510) scale(1,1)"><path fill="#C0C0C0" stroke="none" d="M 2793 1934 C 2793 1924.6111584 2835.532944 1917 2888 1917 C 2940.467056 1917 2983 1924.6111584 2983 1934 C 2983 1943.3888416 2940.467056 1951 2888 1951 C 2835.532944 1951 2793 1943.3888416 2793 1934 Z" opacity="0.2"/></g><g transform="translate(-1990,-1510) scale(1,1)"><path fill="#ffffff" stroke="none" d="M 2786 1927 C 2786 1917.6111584 2828.532944 1910 2881 1910 C 2933.467056 1910 2976 1917.6111584 2976 1927 C 2976 1936.3888416 2933.467056 1944 2881 1944 C 2828.532944 1944 2786 1936.3888416 2786 1927 Z"/></g><g transform="translate(-1990,-1510) scale(1,1)"><path fill="none" stroke="#000000" d="M 2786 1927 C 2786 1917.6111584 2828.532944 1910 2881 1910 C 2933.467056 1910 2976 1917.6111584 2976 1927 C 2976 1936.3888416 2933.467056 1944 2881 1944 C 2828.532944 1944 2786 1936.3888416 2786 1927 Z" stroke-miterlimit="10"/></g><g transform="translate(-1990,-1510) scale(1,1)"><g><path fill="none" stroke="none"/><text fill="#000000" stroke="none" font-family="Arial" font-size="13px" font-style="normal" font-weight="bold" text-decoration="none" x="2823.556884765625" y="1934">Aggiorna il Tracking</text></g></g><g transform="translate(-1990,-1510) scale(1,1)"><path fill="none" stroke="#000000" d="M 2704 1940 L 2785 1934" stroke-miterlimit="10" stroke-dasharray="3"/></g><g transform="translate(-1990,-1510) scale(1,1)"><path fill="none" stroke="#000000" d="M 2775.176056237307 1938.9487502409645 L 2785 1934 L 2774.55412789362 1930.552717601189" stroke-miterlimit="10"/></g><g transform="translate(-1990,-1510) scale(1,1)"><g><path fill="none" stroke="none"/><text fill="#000000" stroke="none" font-family="Arial" font-size="13px" font-style="normal" font-weight="normal" text-decoration="none" x="2718.75" y="1961.5">«include»</text></g></g><g transform="translate(-1990,-1510) scale(1,1)"><path fill="none" stroke="#000000" d="M 2124 1993 L 2252 1965" stroke-miterlimit="10"/></g><g transform="translate(-1990,-1510) scale(1,1)"><path fill="none" stroke="#000000" d="M 2242.971643560531 1971.2840098664706 L 2252 1965 L 2241.1725219490577 1963.0594539283068" stroke-miterlimit="10"/></g><g transform="translate(-1990,-1510) scale(1,1)"><path fill="none" stroke="#000000" d="M 2672 1965 L 2820 2009" stroke-miterlimit="10" stroke-dasharray="3"/></g><g transform="translate(-1990,-1510) scale(1,1)"><path fill="none" stroke="#000000" d="M 2809.0591192684924 2010.1389156329265 L 2820 2009 L 2811.458294075356 2002.0689640098394" stroke-miterlimit="10"/></g><g transform="translate(-1990,-1510) scale(1,1)"><g><path fill="none" stroke="none"/><text fill="#000000" stroke="none" font-family="Arial" font-size="13px" font-style="normal" font-weight="normal" text-decoration="none" x="2699.75" y="2001.5">«include»</text></g></g><g transform="translate(-1990,-1510) scale(1,1)"><path fill="#C0C0C0" stroke="none" d="M 2237 2384 C 2237 2374.6111584 2267.220776 2367 2304.5 2367 C 2341.779224 2367 2372 2374.6111584 2372 2384 C 2372 2393.3888416 2341.779224 2401 2304.5 2401 C 2267.220776 2401 2237 2393.3888416 2237 2384 Z" opacity="0.2"/></g><g transform="translate(-1990,-1510) scale(1,1)"><path fill="#ffffff" stroke="none" d="M 2230 2377 C 2230 2367.6111584 2260.220776 2360 2297.5 2360 C 2334.779224 2360 2365 2367.6111584 2365 2377 C 2365 2386.3888416 2334.779224 2394 2297.5 2394 C 2260.220776 2394 2230 2386.3888416 2230 2377 Z"/></g><g transform="translate(-1990,-1510) scale(1,1)"><path fill="none" stroke="#000000" d="M 2230 2377 C 2230 2367.6111584 2260.220776 2360 2297.5 2360 C 2334.779224 2360 2365 2367.6111584 2365 2377 C 2365 2386.3888416 2334.779224 2394 2297.5 2394 C 2260.220776 2394 2230 2386.3888416 2230 2377 Z" stroke-miterlimit="10"/></g><g transform="translate(-1990,-1510) scale(1,1)"><g><path fill="none" stroke="none"/><text fill="#000000" stroke="none" font-family="Arial" font-size="13px" font-style="normal" font-weight="bold" text-decoration="none" x="2255.970458984375" y="2384">CRUD Waybill</text></g></g><g transform="translate(-1990,-1510) scale(1,1)"><path fill="#C0C0C0" stroke="none" d="M 2257 2154 C 2257 2144.6111584 2292.1456432 2137 2335.5 2137 C 2378.8543568 2137 2414 2144.6111584 2414 2154 C 2414 2163.3888416 2378.8543568 2171 2335.5 2171 C 2292.1456432 2171 2257 2163.3888416 2257 2154 Z" opacity="0.2"/></g><g transform="translate(-1990,-1510) scale(1,1)"><path fill="#ffffff" stroke="none" d="M 2250 2147 C 2250 2137.6111584 2285.1456432 2130 2328.5 2130 C 2371.8543568 2130 2407 2137.6111584 2407 2147 C 2407 2156.3888416 2371.8543568 2164 2328.5 2164 C 2285.1456432 2164 2250 2156.3888416 2250 2147 Z"/></g><g transform="translate(-1990,-1510) scale(1,1)"><path fill="none" stroke="#000000" d="M 2250 2147 C 2250 2137.6111584 2285.1456432 2130 2328.5 2130 C 2371.8543568 2130 2407 2137.6111584 2407 2147 C 2407 2156.3888416 2371.8543568 2164 2328.5 2164 C 2285.1456432 2164 2250 2156.3888416 2250 2147 Z" stroke-miterlimit="10"/></g><g transform="translate(-1990,-1510) scale(1,1)"><g><path fill="none" stroke="none"/><text fill="#000000" stroke="none" font-family="Arial" font-size="13px" font-style="normal" font-weight="bold" text-decoration="none" x="2279.74365234375" y="2154">CRUD Customer</text></g></g><g transform="translate(-1990,-1510) scale(1,1)"><path fill="#C0C0C0" stroke="none" d="M 2257 2264 C 2257 2254.6111584 2314.9791184 2247 2386.5 2247 C 2458.0208816 2247 2516 2254.6111584 2516 2264 C 2516 2273.3888416 2458.0208816 2281 2386.5 2281 C 2314.9791184 2281 2257 2273.3888416 2257 2264 Z" opacity="0.2"/></g><g transform="translate(-1990,-1510) scale(1,1)"><path fill="#ffffff" stroke="none" d="M 2250 2257 C 2250 2247.6111584 2307.9791184 2240 2379.5 2240 C 2451.0208816 2240 2509 2247.6111584 2509 2257 C 2509 2266.3888416 2451.0208816 2274 2379.5 2274 C 2307.9791184 2274 2250 2266.3888416 2250 2257 Z"/></g><g transform="translate(-1990,-1510) scale(1,1)"><path fill="none" stroke="#000000" d="M 2250 2257 C 2250 2247.6111584 2307.9791184 2240 2379.5 2240 C 2451.0208816 2240 2509 2247.6111584 2509 2257 C 2509 2266.3888416 2451.0208816 2274 2379.5 2274 C 2307.9791184 2274 2250 2266.3888416 2250 2257 Z" stroke-miterlimit="10"/></g><g transform="translate(-1990,-1510) scale(1,1)"><g><path fill="none" stroke="none"/><text fill="#000000" stroke="none" font-family="Arial" font-size="13px" font-style="normal" font-weight="bold" text-decoration="none" x="2297.510498046875" y="2264">CRUD Mission per un Driver</text></g></g><g transform="translate(-1990,-1510) scale(1,1)"><path fill="#C0C0C0" stroke="none" d="M 2602 2144 C 2602 2134.6111584 2626.624336 2127 2657 2127 C 2687.375664 2127 2712 2134.6111584 2712 2144 C 2712 2153.3888416 2687.375664 2161 2657 2161 C 2626.624336 2161 2602 2153.3888416 2602 2144 Z" opacity="0.2"/></g><g transform="translate(-1990,-1510) scale(1,1)"><path fill="#ffffff" stroke="none" d="M 2595 2137 C 2595 2127.6111584 2619.624336 2120 2650 2120 C 2680.375664 2120 2705 2127.6111584 2705 2137 C 2705 2146.3888416 2680.375664 2154 2650 2154 C 2619.624336 2154 2595 2146.3888416 2595 2137 Z"/></g><g transform="translate(-1990,-1510) scale(1,1)"><path fill="none" stroke="#000000" d="M 2595 2137 C 2595 2127.6111584 2619.624336 2120 2650 2120 C 2680.375664 2120 2705 2127.6111584 2705 2137 C 2705 2146.3888416 2680.375664 2154 2650 2154 C 2619.624336 2154 2595 2146.3888416 2595 2137 Z" stroke-miterlimit="10"/></g><g transform="translate(-1990,-1510) scale(1,1)"><g><path fill="none" stroke="none"/><text fill="#000000" stroke="none" font-family="Arial" font-size="13px" font-style="normal" font-weight="bold" text-decoration="none" x="2616.052734375" y="2144">CRUD Fare</text></g></g><g transform="translate(-1990,-1510) scale(1,1)"><path fill="#C0C0C0" stroke="none" d="M 2575 2194 C 2575 2184.6111584 2611.7126464 2177 2657 2177 C 2702.2873536 2177 2739 2184.6111584 2739 2194 C 2739 2203.3888416 2702.2873536 2211 2657 2211 C 2611.7126464 2211 2575 2203.3888416 2575 2194 Z" opacity="0.2"/></g><g transform="translate(-1990,-1510) scale(1,1)"><path fill="#ffffff" stroke="none" d="M 2568 2187 C 2568 2177.6111584 2604.7126464 2170 2650 2170 C 2695.2873536 2170 2732 2177.6111584 2732 2187 C 2732 2196.3888416 2695.2873536 2204 2650 2204 C 2604.7126464 2204 2568 2196.3888416 2568 2187 Z"/></g><g transform="translate(-1990,-1510) scale(1,1)"><path fill="none" stroke="#000000" d="M 2568 2187 C 2568 2177.6111584 2604.7126464 2170 2650 2170 C 2695.2873536 2170 2732 2177.6111584 2732 2187 C 2732 2196.3888416 2695.2873536 2204 2650 2204 C 2604.7126464 2204 2568 2196.3888416 2568 2187 Z" stroke-miterlimit="10"/></g><g transform="translate(-1990,-1510) scale(1,1)"><g><path fill="none" stroke="none"/><text fill="#000000" stroke="none" font-family="Arial" font-size="13px" font-style="normal" font-weight="bold" text-decoration="none" x="2600.510498046875" y="2194">Blocca Customer</text></g></g><g transform="translate(-1990,-1510) scale(1,1)"><path fill="none" stroke="#000000" d="M 2567 2177 L 2408 2157" stroke-miterlimit="10" stroke-dasharray="3"/></g><g transform="translate(-1990,-1510) scale(1,1)"><path fill="none" stroke="#000000" d="M 2418.6085780120675 2154.091723437863 L 2408 2157 L 2417.5578595297325 2162.4449353724262" stroke-miterlimit="10"/></g><g transform="translate(-1990,-1510) scale(1,1)"><g><path fill="none" stroke="none"/><text fill="#000000" stroke="none" font-family="Arial" font-size="13px" font-style="normal" font-weight="normal" text-decoration="none" x="2455.5" y="2182.5">«extend»</text></g></g><g transform="translate(-1990,-1510) scale(1,1)"><path fill="none" stroke="#000000" d="M 2594 2139 L 2408 2145" stroke-miterlimit="10" stroke-dasharray="3"/></g><g transform="translate(-1990,-1510) scale(1,1)"><path fill="none" stroke="#000000" d="M 2418.021671129079 2140.46501292388 L 2408 2145 L 2418.2931117283115 2148.8796715000753" stroke-miterlimit="10"/></g><g transform="translate(-1990,-1510) scale(1,1)"><g><path fill="none" stroke="none"/><text fill="#000000" stroke="none" font-family="Arial" font-size="13px" font-style="normal" font-weight="normal" text-decoration="none" x="2477.5" y="2133.5">«extend»</text></g></g><g transform="translate(-1990,-1510) scale(1,1)"><path fill="#C0C0C0" stroke="none" d="M 2805 2244 C 2805 2234.6111584 2842.3842192 2227 2888.5 2227 C 2934.6157808 2227 2972 2234.6111584 2972 2244 C 2972 2253.3888416 2934.6157808 2261 2888.5 2261 C 2842.3842192 2261 2805 2253.3888416 2805 2244 Z" opacity="0.2"/></g><g transform="translate(-1990,-1510) scale(1,1)"><path fill="#ffffff" stroke="none" d="M 2798 2237 C 2798 2227.6111584 2835.3842192 2220 2881.5 2220 C 2927.6157808 2220 2965 2227.6111584 2965 2237 C 2965 2246.3888416 2927.6157808 2254 2881.5 2254 C 2835.3842192 2254 2798 2246.3888416 2798 2237 Z"/></g><g transform="translate(-1990,-1510) scale(1,1)"><path fill="none" stroke="#000000" d="M 2798 2237 C 2798 2227.6111584 2835.3842192 2220 2881.5 2220 C 2927.6157808 2220 2965 2227.6111584 2965 2237 C 2965 2246.3888416 2927.6157808 2254 2881.5 2254 C 2835.3842192 2254 2798 2246.3888416 2798 2237 Z" stroke-miterlimit="10"/></g><g transform="translate(-1990,-1510) scale(1,1)"><g><path fill="none" stroke="none"/><text fill="#000000" stroke="none" font-family="Arial" font-size="13px" font-style="normal" font-weight="bold" text-decoration="none" x="2831.27734375" y="2244">Aggiunge Waybill</text></g></g><g transform="translate(-1990,-1510) scale(1,1)"><path fill="#C0C0C0" stroke="none" d="M 2808 2314 C 2808 2304.6111584 2843.817216 2297 2888 2297 C 2932.182784 2297 2968 2304.6111584 2968 2314 C 2968 2323.3888416 2932.182784 2331 2888 2331 C 2843.817216 2331 2808 2323.3888416 2808 2314 Z" opacity="0.2"/></g><g transform="translate(-1990,-1510) scale(1,1)"><path fill="#ffffff" stroke="none" d="M 2801 2307 C 2801 2297.6111584 2836.817216 2290 2881 2290 C 2925.182784 2290 2961 2297.6111584 2961 2307 C 2961 2316.3888416 2925.182784 2324 2881 2324 C 2836.817216 2324 2801 2316.3888416 2801 2307 Z"/></g><g transform="translate(-1990,-1510) scale(1,1)"><path fill="none" stroke="#000000" d="M 2801 2307 C 2801 2297.6111584 2836.817216 2290 2881 2290 C 2925.182784 2290 2961 2297.6111584 2961 2307 C 2961 2316.3888416 2925.182784 2324 2881 2324 C 2836.817216 2324 2801 2316.3888416 2801 2307 Z" stroke-miterlimit="10"/></g><g transform="translate(-1990,-1510) scale(1,1)"><g><path fill="none" stroke="none"/><text fill="#000000" stroke="none" font-family="Arial" font-size="13px" font-style="normal" font-weight="bold" text-decoration="none" x="2832.59912109375" y="2314">Rimuove Waybill</text></g></g><g transform="translate(-1990,-1510) scale(1,1)"><path fill="none" stroke="#000000" d="M 2800 2299 L 2510 2270" stroke-miterlimit="10" stroke-dasharray="3"/></g><g transform="translate(-1990,-1510) scale(1,1)"><path fill="none" stroke="#000000" d="M 2520.5311021073567 2266.8225972234495 L 2510 2270 L 2519.6933767633395 2275.19985066362" stroke-miterlimit="10"/></g><g transform="translate(-1990,-1510) scale(1,1)"><g><path fill="none" stroke="none"/><text fill="#000000" stroke="none" font-family="Arial" font-size="13px" font-style="normal" font-weight="normal" text-decoration="none" x="2624.5" y="2304.5">«extend»</text></g></g><g transform="translate(-1990,-1510) scale(1,1)"><path fill="none" stroke="#000000" d="M 2797 2240 L 2510 2252" stroke-miterlimit="10" stroke-dasharray="3"/></g><g transform="translate(-1990,-1510) scale(1,1)"><path fill="none" stroke="#000000" d="M 2519.9779490776355 2247.3696077699497 L 2510 2252 L 2520.3296572005524 2255.781293709708" stroke-miterlimit="10"/></g><g transform="translate(-1990,-1510) scale(1,1)"><g><path fill="none" stroke="none"/><text fill="#000000" stroke="none" font-family="Arial" font-size="13px" font-style="normal" font-weight="normal" text-decoration="none" x="2636.5" y="2266.5">«extend»</text></g></g><g transform="translate(-1990,-1510) scale(1,1)"><path fill="#C0C0C0" stroke="none" d="M 2487 2384 C 2487 2374.6111584 2563.3354416 2367 2657.5 2367 C 2751.6645584 2367 2828 2374.6111584 2828 2384 C 2828 2393.3888416 2751.6645584 2401 2657.5 2401 C 2563.3354416 2401 2487 2393.3888416 2487 2384 Z" opacity="0.2"/></g><g transform="translate(-1990,-1510) scale(1,1)"><path fill="#ffffff" stroke="none" d="M 2480 2377 C 2480 2367.6111584 2556.3354416 2360 2650.5 2360 C 2744.6645584 2360 2821 2367.6111584 2821 2377 C 2821 2386.3888416 2744.6645584 2394 2650.5 2394 C 2556.3354416 2394 2480 2386.3888416 2480 2377 Z"/></g><g transform="translate(-1990,-1510) scale(1,1)"><path fill="none" stroke="#000000" d="M 2480 2377 C 2480 2367.6111584 2556.3354416 2360 2650.5 2360 C 2744.6645584 2360 2821 2367.6111584 2821 2377 C 2821 2386.3888416 2744.6645584 2394 2650.5 2394 C 2556.3354416 2394 2480 2386.3888416 2480 2377 Z" stroke-miterlimit="10"/></g><g transform="translate(-1990,-1510) scale(1,1)"><g><path fill="none" stroke="none"/><text fill="#000000" stroke="none" font-family="Arial" font-size="13px" font-style="normal" font-weight="bold" text-decoration="none" x="2541.755126953125" y="2384">Valida Waybill create da un Customer</text></g></g><g transform="translate(-1990,-1510) scale(1,1)"><path fill="none" stroke="#000000" d="M 2479 2377 L 2366 2377" stroke-miterlimit="10" stroke-dasharray="3"/></g><g transform="translate(-1990,-1510) scale(1,1)"><path fill="none" stroke="#000000" d="M 2376.162674857624 2372.790482243984 L 2366 2377 L 2376.162674857624 2381.209517756016" stroke-miterlimit="10"/></g><g transform="translate(-1990,-1510) scale(1,1)"><g><path fill="none" stroke="none"/><text fill="#000000" stroke="none" font-family="Arial" font-size="13px" font-style="normal" font-weight="normal" text-decoration="none" x="2394.5" y="2392.5">«extend»</text></g></g><g transform="translate(-1990,-1510) scale(1,1)"><path fill="none" stroke="#000000" d="M 2124 2206 L 2266 2165" stroke-miterlimit="10"/></g><g transform="translate(-1990,-1510) scale(1,1)"><path fill="none" stroke="#000000" d="M 2257.403890737745 2171.8634470604334 L 2266 2165 L 2255.068442890092 2163.774822807586" stroke-miterlimit="10"/></g><g transform="translate(-1990,-1510) scale(1,1)"><path fill="none" stroke="#000000" d="M 2124 2245 L 2273 2359" stroke-miterlimit="10"/></g><g transform="translate(-1990,-1510) scale(1,1)"><path fill="none" stroke="#000000" d="M 2262.3708326597466 2356.167898015097 L 2273 2359 L 2267.486642213877 2349.4814451768034" stroke-miterlimit="10"/></g><g transform="translate(-1990,-1510) scale(1,1)"><path fill="none" stroke="#000000" d="M 2053 1770 L 2000 1770 L 2000 1680 L 2090 1680 L 2090 1618" stroke-miterlimit="10"/></g><g transform="translate(-1990,-1510) scale(1,1)"><path fill="#FFFFFF" stroke="none" d="M 2098.4190355120318 1638.3253497152482 L 2090 1618 L 2081.5809644879682 1638.3253497152482"/></g><g transform="translate(-1990,-1510) scale(1,1)"><path fill="none" stroke="#000000" d="M 2098.4190355120318 1638.3253497152482 L 2090 1618 L 2081.5809644879682 1638.3253497152482 L 2098.4190355120318 1638.3253497152482" stroke-miterlimit="10"/></g><g transform="translate(-1990,-1510) scale(1,1)"><path fill="none" stroke="#000000" d="M 2053 1990 L 2000 1990 L 2000 1680 L 2090 1680 L 2090 1618" stroke-miterlimit="10"/></g><g transform="translate(-1990,-1510) scale(1,1)"><path fill="#FFFFFF" stroke="none" d="M 2098.4190355120318 1638.3253497152482 L 2090 1618 L 2081.5809644879682 1638.3253497152482"/></g><g transform="translate(-1990,-1510) scale(1,1)"><path fill="none" stroke="#000000" d="M 2098.4190355120318 1638.3253497152482 L 2090 1618 L 2081.5809644879682 1638.3253497152482 L 2098.4190355120318 1638.3253497152482" stroke-miterlimit="10"/></g><g transform="translate(-1990,-1510) scale(1,1)"><path fill="none" stroke="#000000" d="M 2053 2210 L 2000 2210 L 2000 1680 L 2090 1680 L 2090 1618" stroke-miterlimit="10"/></g><g transform="translate(-1990,-1510) scale(1,1)"><path fill="#FFFFFF" stroke="none" d="M 2098.4190355120318 1638.3253497152482 L 2090 1618 L 2081.5809644879682 1638.3253497152482"/></g><g transform="translate(-1990,-1510) scale(1,1)"><path fill="none" stroke="#000000" d="M 2098.4190355120318 1638.3253497152482 L 2090 1618 L 2081.5809644879682 1638.3253497152482 L 2098.4190355120318 1638.3253497152482" stroke-miterlimit="10"/></g><g transform="translate(-1990,-1510) scale(1,1)"><path fill="none" stroke="#000000" d="M 2124 2222 L 2249 2239" stroke-miterlimit="10"/></g><g transform="translate(-1990,-1510) scale(1,1)"><path fill="none" stroke="#000000" d="M 2238.362753266111 2241.80160345559 L 2249 2239 L 2239.4972978996693 2233.459363502956" stroke-miterlimit="10"/></g></g></svg>