<svg version="1.1" xmlns="http://www.w3.org/2000/svg" xmlns:xlink="http://www.w3.org/1999/xlink" width="984" height="1059"><defs/><g><g transform="translate(-2099,-1270) scale(1,1)"><rect fill="#C0C0C0" stroke="none" x="2392" y="1782" width="170" height="79" opacity="0.2"/></g><g transform="translate(-2099,-1270) scale(1,1)"><rect fill="#ffffff" stroke="none" x="2385" y="1775" width="170" height="79"/></g><g transform="translate(-2099,-1270) scale(1,1)"><path fill="none" stroke="#000000" d="M 2385 1775 L 2555 1775 L 2555 1854 L 2385 1854 L 2385 1775 Z Z" stroke-miterlimit="10"/></g><g transform="translate(-2099,-1270) scale(1,1)"><g><path fill="none" stroke="none"/><text fill="#000000" stroke="none" font-family="Arial" font-size="16px" font-style="normal" font-weight="bold" text-decoration="none" x="2444.21875" y="1797.5">Waybill</text></g></g><g transform="translate(-2099,-1270) scale(1,1)"><rect fill="#C0C0C0" stroke="none" x="2910" y="1552" width="170" height="79" opacity="0.2"/></g><g transform="translate(-2099,-1270) scale(1,1)"><rect fill="#ffffff" stroke="none" x="2903" y="1545" width="170" height="79"/></g><g transform="translate(-2099,-1270) scale(1,1)"><path fill="none" stroke="#000000" d="M 2903 1545 L 3073 1545 L 3073 1624 L 2903 1624 L 2903 1545 Z Z" stroke-miterlimit="10"/></g><g transform="translate(-2099,-1270) scale(1,1)"><g><path fill="none" stroke="none"/><text fill="#000000" stroke="none" font-family="Arial" font-size="16px" font-style="normal" font-weight="bold" text-decoration="none" x="2961.31640625" y="1567.5">Agency</text></g></g><g transform="translate(-2099,-1270) scale(1,1)"><rect fill="#C0C0C0" stroke="none" x="2910" y="1919" width="170" height="79" opacity="0.2"/></g><g transform="translate(-2099,-1270) scale(1,1)"><rect fill="#ffffff" stroke="none" x="2903" y="1912" width="170" height="79"/></g><g transform="translate(-2099,-1270) scale(1,1)"><path fill="none" stroke="#000000" d="M 2903 1912 L 3073 1912 L 3073 1991 L 2903 1991 L 2903 1912 Z Z" stroke-miterlimit="10"/></g><g transform="translate(-2099,-1270) scale(1,1)"><g><path fill="none" stroke="none"/><text fill="#000000" stroke="none" font-family="Arial" font-size="13px" font-style="normal" font-weight="bold" text-decoration="none" x="2955.85546875" y="1931.5">Timestamp</text></g></g><g transform="translate(-2099,-1270) scale(1,1)"><rect fill="#C0C0C0" stroke="none" x="2651" y="1552" width="170" height="79" opacity="0.2"/></g><g transform="translate(-2099,-1270) scale(1,1)"><rect fill="#ffffff" stroke="none" x="2644" y="1545" width="170" height="79"/></g><g transform="translate(-2099,-1270) scale(1,1)"><path fill="none" stroke="#000000" d="M 2644 1545 L 2814 1545 L 2814 1624 L 2644 1624 L 2644 1545 Z Z" stroke-miterlimit="10"/></g><g transform="translate(-2099,-1270) scale(1,1)"><g><path fill="none" stroke="none"/><text fill="#000000" stroke="none" font-family="Arial" font-size="16px" font-style="normal" font-weight="bold" text-decoration="none" x="2694.32421875" y="1567.5">Customer</text></g></g><g transform="translate(-2099,-1270) scale(1,1)"><rect fill="#C0C0C0" stroke="none" x="2118" y="1377" width="170" height="79" opacity="0.2"/></g><g transform="translate(-2099,-1270) scale(1,1)"><rect fill="#ffffff" stroke="none" x="2111" y="1370" width="170" height="79"/></g><g transform="translate(-2099,-1270) scale(1,1)"><path fill="none" stroke="#000000" d="M 2111 1370 L 2281 1370 L 2281 1449 L 2111 1449 L 2111 1370 Z Z" stroke-miterlimit="10"/></g><g transform="translate(-2099,-1270) scale(1,1)"><g><path fill="none" stroke="none"/><text fill="#000000" stroke="none" font-family="Arial" font-size="16px" font-style="normal" font-weight="bold" text-decoration="none" x="2176" y="1392.5">Truck</text></g></g><g transform="translate(-2099,-1270) scale(1,1)"><rect fill="#C0C0C0" stroke="none" x="2392" y="1552" width="170" height="79" opacity="0.2"/></g><g transform="translate(-2099,-1270) scale(1,1)"><rect fill="#ffffff" stroke="none" x="2385" y="1545" width="170" height="79"/></g><g transform="translate(-2099,-1270) scale(1,1)"><path fill="none" stroke="#000000" d="M 2385 1545 L 2555 1545 L 2555 1624 L 2385 1624 L 2385 1545 Z Z" stroke-miterlimit="10"/></g><g transform="translate(-2099,-1270) scale(1,1)"><g><path fill="none" stroke="none"/><text fill="#000000" stroke="none" font-family="Arial" font-size="16px" font-style="normal" font-weight="bold" text-decoration="none" x="2438.4296875" y="1567.5">Operator</text></g></g><g transform="translate(-2099,-1270) scale(1,1)"><rect fill="#C0C0C0" stroke="none" x="2118" y="1782" width="170" height="79" opacity="0.2"/></g><g transform="translate(-2099,-1270) scale(1,1)"><rect fill="#ffffff" stroke="none" x="2111" y="1775" width="170" height="79"/></g><g transform="translate(-2099,-1270) scale(1,1)"><path fill="none" stroke="#000000" d="M 2111 1775 L 2281 1775 L 2281 1854 L 2111 1854 L 2111 1775 Z Z" stroke-miterlimit="10"/></g><g transform="translate(-2099,-1270) scale(1,1)"><g><path fill="none" stroke="none"/><text fill="#000000" stroke="none" font-family="Arial" font-size="16px" font-style="normal" font-weight="bold" text-decoration="none" x="2168.8828125" y="1797.5">Mission</text></g></g><g transform="translate(-2099,-1270) scale(1,1)"><rect fill="#C0C0C0" stroke="none" x="2118" y="1552" width="170" height="79" opacity="0.2"/></g><g transform="translate(-2099,-1270) scale(1,1)"><rect fill="#ffffff" stroke="none" x="2111" y="1545" width="170" height="79"/></g><g transform="translate(-2099,-1270) scale(1,1)"><path fill="none" stroke="#000000" d="M 2111 1545 L 2281 1545 L 2281 1624 L 2111 1624 L 2111 1545 Z Z" stroke-miterlimit="10"/></g><g transform="translate(-2099,-1270) scale(1,1)"><g><path fill="none" stroke="none"/><text fill="#000000" stroke="none" font-family="Arial" font-size="16px" font-style="normal" font-weight="bold" text-decoration="none" x="2174.66796875" y="1567.5">Driver</text></g></g><g transform="translate(-2099,-1270) scale(1,1)"><rect fill="#C0C0C0" stroke="none" x="2593" y="2247" width="170" height="79" opacity="0.2"/></g><g transform="translate(-2099,-1270) scale(1,1)"><rect fill="#ffffff" stroke="none" x="2586" y="2240" width="170" height="79"/></g><g transform="translate(-2099,-1270) scale(1,1)"><path fill="none" stroke="#000000" d="M 2586 2240 L 2756 2240 L 2756 2319 L 2586 2319 L 2586 2240 Z Z" stroke-miterlimit="10"/></g><g transform="translate(-2099,-1270) scale(1,1)"><g><path fill="none" stroke="none"/><text fill="#000000" stroke="none" font-family="Arial" font-size="13px" font-style="normal" font-weight="bold" text-decoration="none" x="2643.8955078125" y="2259.5">Validated</text></g></g><g transform="translate(-2099,-1270) scale(1,1)"><rect fill="#C0C0C0" stroke="none" x="2650" y="1377" width="170" height="79" opacity="0.2"/></g><g transform="translate(-2099,-1270) scale(1,1)"><rect fill="#ffffff" stroke="none" x="2643" y="1370" width="170" height="79"/></g><g transform="translate(-2099,-1270) scale(1,1)"><path fill="none" stroke="#000000" d="M 2643 1370 L 2813 1370 L 2813 1449 L 2643 1449 L 2643 1370 Z Z" stroke-miterlimit="10"/></g><g transform="translate(-2099,-1270) scale(1,1)"><g><path fill="none" stroke="none"/><text fill="#000000" stroke="none" font-family="Arial" font-size="16px" font-style="normal" font-weight="bold" text-decoration="none" x="2711.55078125" y="1392.5">Fare</text></g></g><g transform="translate(-2099,-1270) scale(1,1)"><rect fill="#C0C0C0" stroke="none" x="2651" y="1782" width="170" height="79" opacity="0.2"/></g><g transform="translate(-2099,-1270) scale(1,1)"><rect fill="#ffffff" stroke="none" x="2644" y="1775" width="170" height="79"/></g><g transform="translate(-2099,-1270) scale(1,1)"><path fill="none" stroke="#000000" d="M 2644 1775 L 2814 1775 L 2814 1854 L 2644 1854 L 2644 1775 Z Z" stroke-miterlimit="10"/></g><g transform="translate(-2099,-1270) scale(1,1)"><g><path fill="none" stroke="none"/><text fill="#000000" stroke="none" font-family="Arial" font-size="16px" font-style="normal" font-weight="bold" text-decoration="none" x="2711.203125" y="1797.5">Load</text></g></g><g transform="translate(-2099,-1270) scale(1,1)"><rect fill="#C0C0C0" stroke="none" x="2277" y="2051" width="170" height="79" opacity="0.2"/></g><g transform="translate(-2099,-1270) scale(1,1)"><rect fill="#ffffff" stroke="none" x="2270" y="2044" width="170" height="79"/></g><g transform="translate(-2099,-1270) scale(1,1)"><path fill="none" stroke="#000000" d="M 2270 2044 L 2440 2044 L 2440 2123 L 2270 2123 L 2270 2044 Z Z" stroke-miterlimit="10"/></g><g transform="translate(-2099,-1270) scale(1,1)"><g><path fill="none" stroke="none"/><text fill="#000000" stroke="none" font-family="Arial" font-size="13px" font-style="normal" font-weight="bold" text-decoration="none" x="2331.155029296875" y="2063.5">Address</text></g></g><g transform="translate(-2099,-1270) scale(1,1)"><rect fill="#C0C0C0" stroke="none" x="2593" y="2051" width="170" height="79" opacity="0.2"/></g><g transform="translate(-2099,-1270) scale(1,1)"><rect fill="#ffffff" stroke="none" x="2586" y="2044" width="170" height="79"/></g><g transform="translate(-2099,-1270) scale(1,1)"><path fill="none" stroke="#000000" d="M 2586 2044 L 2756 2044 L 2756 2123 L 2586 2123 L 2586 2044 Z Z" stroke-miterlimit="10"/></g><g transform="translate(-2099,-1270) scale(1,1)"><g><path fill="none" stroke="none"/><text fill="#000000" stroke="none" font-family="Arial" font-size="13px" font-style="normal" font-weight="bold" text-decoration="none" x="2655.82275390625" y="2063.5">State</text></g></g><g transform="translate(-2099,-1270) scale(1,1)"><rect fill="#C0C0C0" stroke="none" x="2787" y="2247" width="170" height="79" opacity="0.2"/></g><g transform="translate(-2099,-1270) scale(1,1)"><rect fill="#ffffff" stroke="none" x="2780" y="2240" width="170" height="79"/></g><g transform="translate(-2099,-1270) scale(1,1)"><path fill="none" stroke="#000000" d="M 2780 2240 L 2950 2240 L 2950 2319 L 2780 2319 L 2780 2240 Z Z" stroke-miterlimit="10"/></g><g transform="translate(-2099,-1270) scale(1,1)"><g><path fill="none" stroke="none"/><text fill="#000000" stroke="none" font-family="Arial" font-size="13px" font-style="normal" font-weight="bold" text-decoration="none" x="2837.175048828125" y="2259.5">Proposed</text></g></g><g transform="translate(-2099,-1270) scale(1,1)"><rect fill="#C0C0C0" stroke="none" x="2910" y="1782" width="170" height="79" opacity="0.2"/></g><g transform="translate(-2099,-1270) scale(1,1)"><rect fill="#ffffff" stroke="none" x="2903" y="1775" width="170" height="79"/></g><g transform="translate(-2099,-1270) scale(1,1)"><path fill="none" stroke="#000000" d="M 2903 1775 L 3073 1775 L 3073 1854 L 2903 1854 L 2903 1775 Z Z" stroke-miterlimit="10"/></g><g transform="translate(-2099,-1270) scale(1,1)"><g><path fill="none" stroke="none"/><text fill="#000000" stroke="none" font-family="Arial" font-size="16px" font-style="normal" font-weight="bold" text-decoration="none" x="2972.44140625" y="1797.5">Item</text></g></g><g transform="translate(-2099,-1270) scale(1,1)"><rect fill="#C0C0C0" stroke="none" x="2392" y="1287" width="170" height="79" opacity="0.2"/></g><g transform="translate(-2099,-1270) scale(1,1)"><rect fill="#ffffff" stroke="none" x="2385" y="1280" width="170" height="79"/></g><g transform="translate(-2099,-1270) scale(1,1)"><path fill="none" stroke="#000000" d="M 2385 1280 L 2555 1280 L 2555 1359 L 2385 1359 L 2385 1280 Z Z" stroke-miterlimit="10"/></g><g transform="translate(-2099,-1270) scale(1,1)"><g><path fill="none" stroke="none"/><text fill="#000000" stroke="none" font-family="Arial" font-size="16px" font-style="normal" font-weight="bold" text-decoration="none" x="2453.109375" y="1302.5">User</text></g></g><g transform="translate(-2099,-1270) scale(1,1)"><rect fill="#C0C0C0" stroke="none" x="2118" y="2247" width="170" height="79" opacity="0.2"/></g><g transform="translate(-2099,-1270) scale(1,1)"><rect fill="#ffffff" stroke="none" x="2111" y="2240" width="170" height="79"/></g><g transform="translate(-2099,-1270) scale(1,1)"><path fill="none" stroke="#000000" d="M 2111 2240 L 2281 2240 L 2281 2319 L 2111 2319 L 2111 2240 Z Z" stroke-miterlimit="10"/></g><g transform="translate(-2099,-1270) scale(1,1)"><g><path fill="none" stroke="none"/><text fill="#000000" stroke="none" font-family="Arial" font-size="13px" font-style="normal" font-weight="bold" text-decoration="none" x="2182.27001953125" y="2259.5">Date</text></g></g><g transform="translate(-2099,-1270) scale(1,1)"><rect fill="#C0C0C0" stroke="none" x="2397" y="2247" width="170" height="79" opacity="0.2"/></g><g transform="translate(-2099,-1270) scale(1,1)"><rect fill="#ffffff" stroke="none" x="2390" y="2240" width="170" height="79"/></g><g transform="translate(-2099,-1270) scale(1,1)"><path fill="none" stroke="#000000" d="M 2390 2240 L 2560 2240 L 2560 2319 L 2390 2319 L 2390 2240 Z Z" stroke-miterlimit="10"/></g><g transform="translate(-2099,-1270) scale(1,1)"><g><path fill="none" stroke="none"/><text fill="#000000" stroke="none" font-family="Arial" font-size="13px" font-style="normal" font-weight="bold" text-decoration="none" x="2447.543212890625" y="2259.5">Delivered</text></g></g><g transform="translate(-2099,-1270) scale(1,1)"><rect fill="#C0C0C0" stroke="none" x="2907" y="2051" width="170" height="79" opacity="0.2"/></g><g transform="translate(-2099,-1270) scale(1,1)"><rect fill="#ffffff" stroke="none" x="2900" y="2044" width="170" height="79"/></g><g transform="translate(-2099,-1270) scale(1,1)"><path fill="none" stroke="#000000" d="M 2900 2044 L 3070 2044 L 3070 2123 L 2900 2123 L 2900 2044 Z Z" stroke-miterlimit="10"/></g><g transform="translate(-2099,-1270) scale(1,1)"><g><path fill="none" stroke="none"/><text fill="#000000" stroke="none" font-family="Arial" font-size="16px" font-style="normal" font-weight="bold" text-decoration="none" x="2953.43359375" y="2066.5">Receiver</text></g></g><g transform="translate(-2099,-1270) scale(1,1)"><path fill="none" stroke="#000000" d="M 2200 1545 L 2200 1490 L 2470 1490 L 2470 1359" stroke-miterlimit="10"/></g><g transform="translate(-2099,-1270) scale(1,1)"><path fill="#FFFFFF" stroke="none" d="M 2478.4190355120318 1379.3253497152482 L 2470 1359 L 2461.5809644879682 1379.3253497152482"/></g><g transform="translate(-2099,-1270) scale(1,1)"><path fill="none" stroke="#000000" d="M 2478.4190355120318 1379.3253497152482 L 2470 1359 L 2461.5809644879682 1379.3253497152482 L 2478.4190355120318 1379.3253497152482" stroke-miterlimit="10"/></g><g transform="translate(-2099,-1270) scale(1,1)"><path fill="none" stroke="#000000" d="M 2470 1545 L 2470 1359" stroke-miterlimit="10"/></g><g transform="translate(-2099,-1270) scale(1,1)"><path fill="#FFFFFF" stroke="none" d="M 2478.4190355120318 1379.3253497152482 L 2470 1359 L 2461.5809644879682 1379.3253497152482"/></g><g transform="translate(-2099,-1270) scale(1,1)"><path fill="none" stroke="#000000" d="M 2478.4190355120318 1379.3253497152482 L 2470 1359 L 2461.5809644879682 1379.3253497152482 L 2478.4190355120318 1379.3253497152482" stroke-miterlimit="10"/></g><g transform="translate(-2099,-1270) scale(1,1)"><path fill="none" stroke="#000000" d="M 2730 1545 L 2730 1490 L 2470 1490 L 2470 1359" stroke-miterlimit="10"/></g><g transform="translate(-2099,-1270) scale(1,1)"><path fill="#FFFFFF" stroke="none" d="M 2478.4190355120318 1379.3253497152482 L 2470 1359 L 2461.5809644879682 1379.3253497152482"/></g><g transform="translate(-2099,-1270) scale(1,1)"><path fill="none" stroke="#000000" d="M 2478.4190355120318 1379.3253497152482 L 2470 1359 L 2461.5809644879682 1379.3253497152482 L 2478.4190355120318 1379.3253497152482" stroke-miterlimit="10"/></g><g transform="translate(-2099,-1270) scale(1,1)"><path fill="none" stroke="#000000" d="M 2384 1814 L 2282 1814" stroke-miterlimit="10"/></g><g transform="translate(-2099,-1270) scale(1,1)"><path fill="#FFFFFF" stroke="none" d="M 2292.162674857624 1809.7904822439841 L 2282 1814 L 2292.162674857624 1818.2095177560159 L 2304 1814"/></g><g transform="translate(-2099,-1270) scale(1,1)"><path fill="none" stroke="#000000" d="M 2292.162674857624 1809.7904822439841 L 2282 1814 L 2292.162674857624 1818.2095177560159 L 2304 1814 L 2292.162674857624 1809.7904822439841" stroke-miterlimit="10"/></g><g transform="translate(-2099,-1270) scale(1,1)"><g><path fill="none" stroke="none"/><text fill="#000000" stroke="none" font-family="Arial" font-size="13px" font-style="normal" font-weight="normal" text-decoration="none" x="2359.5" y="1807.5">*</text></g></g><g transform="translate(-2099,-1270) scale(1,1)"><path fill="none" stroke="#000000" d="M 2196 2239 L 2196 1855" stroke-miterlimit="10"/></g><g transform="translate(-2099,-1270) scale(1,1)"><path fill="#FFFFFF" stroke="none" d="M 2200.209517756016 1865.162674857624 L 2196 1855 L 2191.790482243984 1865.162674857624 L 2196 1877"/></g><g transform="translate(-2099,-1270) scale(1,1)"><path fill="none" stroke="#000000" d="M 2200.209517756016 1865.162674857624 L 2196 1855 L 2191.790482243984 1865.162674857624 L 2196 1877 L 2200.209517756016 1865.162674857624" stroke-miterlimit="10"/></g><g transform="translate(-2099,-1270) scale(1,1)"><g><path fill="none" stroke="none"/><text fill="#000000" stroke="none" font-family="Arial" font-size="13px" font-style="normal" font-weight="normal" text-decoration="none" x="2112.2958984375" y="2212.5">deliveryDate</text></g></g><g transform="translate(-2099,-1270) scale(1,1)"><g><path fill="none" stroke="none"/><text fill="#000000" stroke="none" font-family="Arial" font-size="13px" font-style="normal" font-weight="normal" text-decoration="none" x="2204.5" y="2223.5">1</text></g></g><g transform="translate(-2099,-1270) scale(1,1)"><path fill="none" stroke="#000000" d="M 2196 1625 L 2196 1774" stroke-miterlimit="10"/></g><g transform="translate(-2099,-1270) scale(1,1)"><path fill="#FFFFFF" stroke="none" d="M 2191.790482243984 1763.837325142376 L 2196 1774 L 2200.209517756016 1763.837325142376 L 2196 1752"/></g><g transform="translate(-2099,-1270) scale(1,1)"><path fill="none" stroke="#000000" d="M 2191.790482243984 1763.837325142376 L 2196 1774 L 2200.209517756016 1763.837325142376 L 2196 1752 L 2191.790482243984 1763.837325142376" stroke-miterlimit="10"/></g><g transform="translate(-2099,-1270) scale(1,1)"><g><path fill="none" stroke="none"/><text fill="#000000" stroke="none" font-family="Arial" font-size="13px" font-style="normal" font-weight="normal" text-decoration="none" x="2179.5" y="1652.5">1</text></g></g><g transform="translate(-2099,-1270) scale(1,1)"><path fill="none" stroke="#000000" d="M 2643 1814 L 2556 1814" stroke-miterlimit="10"/></g><g transform="translate(-2099,-1270) scale(1,1)"><path fill="#FFFFFF" stroke="none" d="M 2566.162674857624 1809.7904822439841 L 2556 1814 L 2566.162674857624 1818.2095177560159 L 2578 1814"/></g><g transform="translate(-2099,-1270) scale(1,1)"><path fill="none" stroke="#000000" d="M 2566.162674857624 1809.7904822439841 L 2556 1814 L 2566.162674857624 1818.2095177560159 L 2578 1814 L 2566.162674857624 1809.7904822439841" stroke-miterlimit="10"/></g><g transform="translate(-2099,-1270) scale(1,1)"><g><path fill="none" stroke="none"/><text fill="#000000" stroke="none" font-family="Arial" font-size="13px" font-style="normal" font-weight="normal" text-decoration="none" x="2617.5" y="1807.5">1</text></g></g><g transform="translate(-2099,-1270) scale(1,1)"><path fill="none" stroke="#000000" d="M 2902 1814 L 2815 1814" stroke-miterlimit="10"/></g><g transform="translate(-2099,-1270) scale(1,1)"><path fill="#FFFFFF" stroke="none" d="M 2825.162674857624 1809.7904822439841 L 2815 1814 L 2825.162674857624 1818.2095177560159 L 2837 1814"/></g><g transform="translate(-2099,-1270) scale(1,1)"><path fill="none" stroke="#000000" d="M 2825.162674857624 1809.7904822439841 L 2815 1814 L 2825.162674857624 1818.2095177560159 L 2837 1814 L 2825.162674857624 1809.7904822439841" stroke-miterlimit="10"/></g><g transform="translate(-2099,-1270) scale(1,1)"><g><path fill="none" stroke="none"/><text fill="#000000" stroke="none" font-family="Arial" font-size="13px" font-style="normal" font-weight="normal" text-decoration="none" x="2877.5" y="1807.5">*</text></g></g><g transform="translate(-2099,-1270) scale(1,1)"><path fill="none" stroke="#000000" d="M 2150 1449 L 2150 1545" stroke-miterlimit="10"/></g><g transform="translate(-2099,-1270) scale(1,1)"><path fill="#000000" stroke="none" d="M 2145.790482243984 1534.837325142376 L 2150 1545 L 2154.209517756016 1534.837325142376 L 2150 1523"/></g><g transform="translate(-2099,-1270) scale(1,1)"><path fill="none" stroke="#000000" d="M 2145.790482243984 1534.837325142376 L 2150 1545 L 2154.209517756016 1534.837325142376 L 2150 1523 L 2145.790482243984 1534.837325142376" stroke-miterlimit="10"/></g><g transform="translate(-2099,-1270) scale(1,1)"><g><path fill="none" stroke="none"/><text fill="#000000" stroke="none" font-family="Arial" font-size="13px" font-style="normal" font-weight="normal" text-decoration="none" x="2133.5" y="1476.5">1</text></g></g><g transform="translate(-2099,-1270) scale(1,1)"><path fill="none" stroke="#000000" d="M 2780 1449 L 2780 1545" stroke-miterlimit="10"/></g><g transform="translate(-2099,-1270) scale(1,1)"><path fill="#FFFFFF" stroke="none" d="M 2775.790482243984 1534.837325142376 L 2780 1545 L 2784.209517756016 1534.837325142376 L 2780 1523"/></g><g transform="translate(-2099,-1270) scale(1,1)"><path fill="none" stroke="#000000" d="M 2775.790482243984 1534.837325142376 L 2780 1545 L 2784.209517756016 1534.837325142376 L 2780 1523 L 2775.790482243984 1534.837325142376" stroke-miterlimit="10"/></g><g transform="translate(-2099,-1270) scale(1,1)"><g><path fill="none" stroke="none"/><text fill="#000000" stroke="none" font-family="Arial" font-size="13px" font-style="normal" font-weight="normal" text-decoration="none" x="2764.5" y="1476.5">*</text></g></g><g transform="translate(-2099,-1270) scale(1,1)"><path fill="none" stroke="#000000" d="M 2990 1545 L 2990 1310 L 2555 1310" stroke-miterlimit="10"/></g><g transform="translate(-2099,-1270) scale(1,1)"><path fill="#FFFFFF" stroke="none" d="M 2565.162674857624 1305.7904822439841 L 2555 1310 L 2565.162674857624 1314.2095177560159 L 2577 1310"/></g><g transform="translate(-2099,-1270) scale(1,1)"><path fill="none" stroke="#000000" d="M 2565.162674857624 1305.7904822439841 L 2555 1310 L 2565.162674857624 1314.2095177560159 L 2577 1310 L 2565.162674857624 1305.7904822439841" stroke-miterlimit="10"/></g><g transform="translate(-2099,-1270) scale(1,1)"><g><path fill="none" stroke="none"/><text fill="#000000" stroke="none" font-family="Arial" font-size="13px" font-style="normal" font-weight="normal" text-decoration="none" x="2998.5" y="1529.5">1</text></g></g><g transform="translate(-2099,-1270) scale(1,1)"><path fill="none" stroke="#000000" d="M 2990 1624 L 2990 1710 L 2510 1710 L 2510 1775" stroke-miterlimit="10"/></g><g transform="translate(-2099,-1270) scale(1,1)"><path fill="#FFFFFF" stroke="none" d="M 2505.790482243984 1764.837325142376 L 2510 1775 L 2514.209517756016 1764.837325142376 L 2510 1753"/></g><g transform="translate(-2099,-1270) scale(1,1)"><path fill="none" stroke="#000000" d="M 2505.790482243984 1764.837325142376 L 2510 1775 L 2514.209517756016 1764.837325142376 L 2510 1753 L 2505.790482243984 1764.837325142376" stroke-miterlimit="10"/></g><g transform="translate(-2099,-1270) scale(1,1)"><g><path fill="none" stroke="none"/><text fill="#000000" stroke="none" font-family="Arial" font-size="13px" font-style="normal" font-weight="normal" text-decoration="none" x="2999.5" y="1643.5">2</text></g></g><g transform="translate(-2099,-1270) scale(1,1)"><path fill="none" stroke="#000000" d="M 2586 2090 L 2500 2090 L 2500 1854" stroke-miterlimit="10"/></g><g transform="translate(-2099,-1270) scale(1,1)"><path fill="#FFFFFF" stroke="none" d="M 2504.209517756016 1864.162674857624 L 2500 1854 L 2495.790482243984 1864.162674857624 L 2500 1876"/></g><g transform="translate(-2099,-1270) scale(1,1)"><path fill="none" stroke="#000000" d="M 2504.209517756016 1864.162674857624 L 2500 1854 L 2495.790482243984 1864.162674857624 L 2500 1876 L 2504.209517756016 1864.162674857624" stroke-miterlimit="10"/></g><g transform="translate(-2099,-1270) scale(1,1)"><g><path fill="none" stroke="none"/><text fill="#000000" stroke="none" font-family="Arial" font-size="13px" font-style="normal" font-weight="normal" text-decoration="none" x="2560.5" y="2083.5">1</text></g></g><g transform="translate(-2099,-1270) scale(1,1)"><path fill="none" stroke="#000000" d="M 2903 1945 L 2540 1945 L 2540 1854" stroke-miterlimit="10"/></g><g transform="translate(-2099,-1270) scale(1,1)"><path fill="#FFFFFF" stroke="none" d="M 2544.209517756016 1864.162674857624 L 2540 1854 L 2535.790482243984 1864.162674857624 L 2540 1876"/></g><g transform="translate(-2099,-1270) scale(1,1)"><path fill="none" stroke="#000000" d="M 2544.209517756016 1864.162674857624 L 2540 1854 L 2535.790482243984 1864.162674857624 L 2540 1876 L 2544.209517756016 1864.162674857624" stroke-miterlimit="10"/></g><g transform="translate(-2099,-1270) scale(1,1)"><g><path fill="none" stroke="none"/><text fill="#000000" stroke="none" font-family="Arial" font-size="13px" font-style="normal" font-weight="normal" text-decoration="none" x="2877.5" y="1938.5">2</text></g></g><g transform="translate(-2099,-1270) scale(1,1)"><path fill="none" stroke="#000000" d="M 2670 2240 L 2670 2123" stroke-miterlimit="10"/></g><g transform="translate(-2099,-1270) scale(1,1)"><path fill="#FFFFFF" stroke="none" d="M 2678.4190355120318 2143.325349715248 L 2670 2123 L 2661.5809644879682 2143.325349715248"/></g><g transform="translate(-2099,-1270) scale(1,1)"><path fill="none" stroke="#000000" d="M 2678.4190355120318 2143.325349715248 L 2670 2123 L 2661.5809644879682 2143.325349715248 L 2678.4190355120318 2143.325349715248" stroke-miterlimit="10"/></g><g transform="translate(-2099,-1270) scale(1,1)"><path fill="none" stroke="#000000" d="M 2860 2240 L 2860 2200 L 2670 2200 L 2670 2123" stroke-miterlimit="10"/></g><g transform="translate(-2099,-1270) scale(1,1)"><path fill="#FFFFFF" stroke="none" d="M 2678.4190355120318 2143.325349715248 L 2670 2123 L 2661.5809644879682 2143.325349715248"/></g><g transform="translate(-2099,-1270) scale(1,1)"><path fill="none" stroke="#000000" d="M 2678.4190355120318 2143.325349715248 L 2670 2123 L 2661.5809644879682 2143.325349715248 L 2678.4190355120318 2143.325349715248" stroke-miterlimit="10"/></g><g transform="translate(-2099,-1270) scale(1,1)"><path fill="none" stroke="#000000" d="M 2490 2240 L 2490 2200 L 2670 2200 L 2670 2123" stroke-miterlimit="10"/></g><g transform="translate(-2099,-1270) scale(1,1)"><path fill="#FFFFFF" stroke="none" d="M 2678.4190355120318 2143.325349715248 L 2670 2123 L 2661.5809644879682 2143.325349715248"/></g><g transform="translate(-2099,-1270) scale(1,1)"><path fill="none" stroke="#000000" d="M 2678.4190355120318 2143.325349715248 L 2670 2123 L 2661.5809644879682 2143.325349715248 L 2678.4190355120318 2143.325349715248" stroke-miterlimit="10"/></g><g transform="translate(-2099,-1270) scale(1,1)"><path fill="none" stroke="#000000" d="M 2900 2099 L 2850 2099 L 2850 1970 L 2520 1970 L 2520 1854" stroke-miterlimit="10"/></g><g transform="translate(-2099,-1270) scale(1,1)"><path fill="#FFFFFF" stroke="none" d="M 2524.209517756016 1864.162674857624 L 2520 1854 L 2515.790482243984 1864.162674857624 L 2520 1876"/></g><g transform="translate(-2099,-1270) scale(1,1)"><path fill="none" stroke="#000000" d="M 2524.209517756016 1864.162674857624 L 2520 1854 L 2515.790482243984 1864.162674857624 L 2520 1876 L 2524.209517756016 1864.162674857624" stroke-miterlimit="10"/></g><g transform="translate(-2099,-1270) scale(1,1)"><g><path fill="none" stroke="none"/><text fill="#000000" stroke="none" font-family="Arial" font-size="13px" font-style="normal" font-weight="normal" text-decoration="none" x="2874.5" y="2092.5">1</text></g></g><g transform="translate(-2099,-1270) scale(1,1)"><path fill="none" stroke="#000000" d="M 2330 2044 L 2330 1990 L 2440 1990 L 2440 1854" stroke-miterlimit="10"/></g><g transform="translate(-2099,-1270) scale(1,1)"><path fill="#FFFFFF" stroke="none" d="M 2444.209517756016 1864.162674857624 L 2440 1854 L 2435.790482243984 1864.162674857624 L 2440 1876"/></g><g transform="translate(-2099,-1270) scale(1,1)"><path fill="none" stroke="#000000" d="M 2444.209517756016 1864.162674857624 L 2440 1854 L 2435.790482243984 1864.162674857624 L 2440 1876 L 2444.209517756016 1864.162674857624" stroke-miterlimit="10"/></g><g transform="translate(-2099,-1270) scale(1,1)"><g><path fill="none" stroke="none"/><text fill="#000000" stroke="none" font-family="Arial" font-size="13px" font-style="normal" font-weight="normal" text-decoration="none" x="2343.2958984375" y="1982.5">senderAddress</text></g></g><g transform="translate(-2099,-1270) scale(1,1)"><path fill="none" stroke="#000000" d="M 2729 1624 L 2729 1690 L 2490 1690 L 2490 1775" stroke-miterlimit="10"/></g><g transform="translate(-2099,-1270) scale(1,1)"><path fill="#FFFFFF" stroke="none" d="M 2485.790482243984 1764.837325142376 L 2490 1775 L 2494.209517756016 1764.837325142376 L 2490 1753"/></g><g transform="translate(-2099,-1270) scale(1,1)"><path fill="none" stroke="#000000" d="M 2485.790482243984 1764.837325142376 L 2490 1775 L 2494.209517756016 1764.837325142376 L 2490 1753 L 2485.790482243984 1764.837325142376" stroke-miterlimit="10"/></g><g transform="translate(-2099,-1270) scale(1,1)"><g><path fill="none" stroke="none"/><text fill="#000000" stroke="none" font-family="Arial" font-size="13px" font-style="normal" font-weight="normal" text-decoration="none" x="2663.2958984375" y="1652.5">sender</text></g></g><g transform="translate(-2099,-1270) scale(1,1)"><g><path fill="none" stroke="none"/><text fill="#000000" stroke="none" font-family="Arial" font-size="13px" font-style="normal" font-weight="normal" text-decoration="none" x="2740.5" y="1655.5">1</text></g></g><g transform="translate(-2099,-1270) scale(1,1)"><path fill="none" stroke="#000000" d="M 2460 1624 L 2460 1775" stroke-miterlimit="10"/></g><g transform="translate(-2099,-1270) scale(1,1)"><g><path fill="none" stroke="none"/><text fill="#000000" stroke="none" font-family="Arial" font-size="13px" font-style="normal" font-weight="normal" text-decoration="none" x="2443.5" y="1651.5">1</text></g></g><g transform="translate(-2099,-1270) scale(1,1)"><g><path fill="none" stroke="none"/><text fill="#000000" stroke="none" font-family="Arial" font-size="13px" font-style="normal" font-weight="normal" text-decoration="none" x="2444.5" y="1759.5">*</text></g></g><g transform="translate(-2099,-1270) scale(1,1)"><path fill="none" stroke="#000000" d="M 2300 2044 L 2300 1960 L 2410 1960 L 2410 1854" stroke-miterlimit="10"/></g><g transform="translate(-2099,-1270) scale(1,1)"><path fill="#FFFFFF" stroke="none" d="M 2414.209517756016 1864.162674857624 L 2410 1854 L 2405.790482243984 1864.162674857624 L 2410 1876"/></g><g transform="translate(-2099,-1270) scale(1,1)"><path fill="none" stroke="#000000" d="M 2414.209517756016 1864.162674857624 L 2410 1854 L 2405.790482243984 1864.162674857624 L 2410 1876 L 2414.209517756016 1864.162674857624" stroke-miterlimit="10"/></g><g transform="translate(-2099,-1270) scale(1,1)"><g><path fill="none" stroke="none"/><text fill="#000000" stroke="none" font-family="Arial" font-size="13px" font-style="normal" font-weight="normal" text-decoration="none" x="2286.2958984375" y="1951.5">receiverAddress</text></g></g></g></svg>