<svg version="1.1" xmlns="http://www.w3.org/2000/svg" xmlns:xlink="http://www.w3.org/1999/xlink" width="992" height="894"><defs/><g><g transform="translate(-2043,-1510) scale(1,1)"><path fill="#ffffff" stroke="none" d="M 2076.1055321377844 1748.9099999999999 C 2076.1055321377844 1742.332288032 2081.358615280766 1737 2087.838623046875 1737 C 2094.318630812984 1737 2099.5717139559656 1742.332288032 2099.5717139559656 1748.9099999999999 C 2099.5717139559656 1755.4877119679998 2094.318630812984 1760.82 2087.838623046875 1760.82 C 2081.358615280766 1760.82 2076.1055321377844 1755.4877119679998 2076.1055321377844 1748.9099999999999 Z"/></g><g transform="translate(-2043,-1510) scale(1,1)"><path fill="none" stroke="#000000" d="M 2076.1055321377844 1748.9099999999999 C 2076.1055321377844 1742.332288032 2081.358615280766 1737 2087.838623046875 1737 C 2094.318630812984 1737 2099.5717139559656 1742.332288032 2099.5717139559656 1748.9099999999999 C 2099.5717139559656 1755.4877119679998 2094.318630812984 1760.82 2087.838623046875 1760.82 C 2081.358615280766 1760.82 2076.1055321377844 1755.4877119679998 2076.1055321377844 1748.9099999999999 Z" stroke-miterlimit="10"/></g><g transform="translate(-2043,-1510) scale(1,1)"><path fill="none" stroke="#000000" d="M 2087.838623046875 1760.82 L 2087.838623046875 1784.18" stroke-miterlimit="10"/></g><g transform="translate(-2043,-1510) scale(1,1)"><path fill="none" stroke="#000000" d="M 2075.4153503196026 1769.58 L 2100.2618957741474 1769.58" stroke-miterlimit="10"/></g><g transform="translate(-2043,-1510) scale(1,1)"><path fill="none" stroke="#000000" d="M 2087.838623046875 1784.18 L 2070.58407759233 1808" stroke-miterlimit="10"/></g><g transform="translate(-2043,-1510) scale(1,1)"><path fill="none" stroke="#000000" d="M 2087.838623046875 1784.18 L 2105.09316850142 1808" stroke-miterlimit="10"/></g><g transform="translate(-2043,-1510) scale(1,1)"><g><path fill="none" stroke="none"/><text fill="#000000" stroke="none" font-family="Arial" font-size="13px" font-style="normal" font-weight="bold" text-decoration="none" x="2059.66455078125" y="1828.5">Customer</text></g></g><g transform="translate(-2043,-1510) scale(1,1)"><path fill="#ffffff" stroke="none" d="M 2076.1055321377844 2180.91 C 2076.1055321377844 2174.3322880319997 2081.358615280766 2169 2087.838623046875 2169 C 2094.318630812984 2169 2099.5717139559656 2174.3322880319997 2099.5717139559656 2180.91 C 2099.5717139559656 2187.487711968 2094.318630812984 2192.82 2087.838623046875 2192.82 C 2081.358615280766 2192.82 2076.1055321377844 2187.487711968 2076.1055321377844 2180.91 Z"/></g><g transform="translate(-2043,-1510) scale(1,1)"><path fill="none" stroke="#000000" d="M 2076.1055321377844 2180.91 C 2076.1055321377844 2174.3322880319997 2081.358615280766 2169 2087.838623046875 2169 C 2094.318630812984 2169 2099.5717139559656 2174.3322880319997 2099.5717139559656 2180.91 C 2099.5717139559656 2187.487711968 2094.318630812984 2192.82 2087.838623046875 2192.82 C 2081.358615280766 2192.82 2076.1055321377844 2187.487711968 2076.1055321377844 2180.91 Z" stroke-miterlimit="10"/></g><g transform="translate(-2043,-1510) scale(1,1)"><path fill="none" stroke="#000000" d="M 2087.838623046875 2192.82 L 2087.838623046875 2216.18" stroke-miterlimit="10"/></g><g transform="translate(-2043,-1510) scale(1,1)"><path fill="none" stroke="#000000" d="M 2075.4153503196026 2201.58 L 2100.2618957741474 2201.58" stroke-miterlimit="10"/></g><g transform="translate(-2043,-1510) scale(1,1)"><path fill="none" stroke="#000000" d="M 2087.838623046875 2216.18 L 2070.58407759233 2240" stroke-miterlimit="10"/></g><g transform="translate(-2043,-1510) scale(1,1)"><path fill="none" stroke="#000000" d="M 2087.838623046875 2216.18 L 2105.09316850142 2240" stroke-miterlimit="10"/></g><g transform="translate(-2043,-1510) scale(1,1)"><g><path fill="none" stroke="none"/><text fill="#000000" stroke="none" font-family="Arial" font-size="13px" font-style="normal" font-weight="bold" text-decoration="none" x="2062.187744140625" y="2260.5">Operator</text></g></g><g transform="translate(-2043,-1510) scale(1,1)"><path fill="#ffffff" stroke="none" d="M 2076.1055321377844 1964.9099999999999 C 2076.1055321377844 1958.332288032 2081.358615280766 1953 2087.838623046875 1953 C 2094.318630812984 1953 2099.5717139559656 1958.332288032 2099.5717139559656 1964.9099999999999 C 2099.5717139559656 1971.4877119679998 2094.318630812984 1976.82 2087.838623046875 1976.82 C 2081.358615280766 1976.82 2076.1055321377844 1971.4877119679998 2076.1055321377844 1964.9099999999999 Z"/></g><g transform="translate(-2043,-1510) scale(1,1)"><path fill="none" stroke="#000000" d="M 2076.1055321377844 1964.9099999999999 C 2076.1055321377844 1958.332288032 2081.358615280766 1953 2087.838623046875 1953 C 2094.318630812984 1953 2099.5717139559656 1958.332288032 2099.5717139559656 1964.9099999999999 C 2099.5717139559656 1971.4877119679998 2094.318630812984 1976.82 2087.838623046875 1976.82 C 2081.358615280766 1976.82 2076.1055321377844 1971.4877119679998 2076.1055321377844 1964.9099999999999 Z" stroke-miterlimit="10"/></g><g transform="translate(-2043,-1510) scale(1,1)"><path fill="none" stroke="#000000" d="M 2087.838623046875 1976.82 L 2087.838623046875 2000.18" stroke-miterlimit="10"/></g><g transform="translate(-2043,-1510) scale(1,1)"><path fill="none" stroke="#000000" d="M 2075.4153503196026 1985.58 L 2100.2618957741474 1985.58" stroke-miterlimit="10"/></g><g transform="translate(-2043,-1510) scale(1,1)"><path fill="none" stroke="#000000" d="M 2087.838623046875 2000.18 L 2070.58407759233 2024" stroke-miterlimit="10"/></g><g transform="translate(-2043,-1510) scale(1,1)"><path fill="none" stroke="#000000" d="M 2087.838623046875 2000.18 L 2105.09316850142 2024" stroke-miterlimit="10"/></g><g transform="translate(-2043,-1510) scale(1,1)"><g><path fill="none" stroke="none"/><text fill="#000000" stroke="none" font-family="Arial" font-size="13px" font-style="normal" font-weight="bold" text-decoration="none" x="2070.50634765625" y="2044.5">Driver</text></g></g><g transform="translate(-2043,-1510) scale(1,1)"><path fill="#ffffff" stroke="none" d="M 2076.1055321377844 1532.9099999999999 C 2076.1055321377844 1526.332288032 2081.358615280766 1521 2087.838623046875 1521 C 2094.318630812984 1521 2099.5717139559656 1526.332288032 2099.5717139559656 1532.9099999999999 C 2099.5717139559656 1539.4877119679998 2094.318630812984 1544.82 2087.838623046875 1544.82 C 2081.358615280766 1544.82 2076.1055321377844 1539.4877119679998 2076.1055321377844 1532.9099999999999 Z"/></g><g transform="translate(-2043,-1510) scale(1,1)"><path fill="none" stroke="#000000" d="M 2076.1055321377844 1532.9099999999999 C 2076.1055321377844 1526.332288032 2081.358615280766 1521 2087.838623046875 1521 C 2094.318630812984 1521 2099.5717139559656 1526.332288032 2099.5717139559656 1532.9099999999999 C 2099.5717139559656 1539.4877119679998 2094.318630812984 1544.82 2087.838623046875 1544.82 C 2081.358615280766 1544.82 2076.1055321377844 1539.4877119679998 2076.1055321377844 1532.9099999999999 Z" stroke-miterlimit="10"/></g><g transform="translate(-2043,-1510) scale(1,1)"><path fill="none" stroke="#000000" d="M 2087.838623046875 1544.82 L 2087.838623046875 1568.18" stroke-miterlimit="10"/></g><g transform="translate(-2043,-1510) scale(1,1)"><path fill="none" stroke="#000000" d="M 2075.4153503196026 1553.58 L 2100.2618957741474 1553.58" stroke-miterlimit="10"/></g><g transform="translate(-2043,-1510) scale(1,1)"><path fill="none" stroke="#000000" d="M 2087.838623046875 1568.18 L 2070.58407759233 1592" stroke-miterlimit="10"/></g><g transform="translate(-2043,-1510) scale(1,1)"><path fill="none" stroke="#000000" d="M 2087.838623046875 1568.18 L 2105.09316850142 1592" stroke-miterlimit="10"/></g><g transform="translate(-2043,-1510) scale(1,1)"><g><path fill="none" stroke="none"/><text fill="#000000" stroke="none" font-family="Arial" font-size="13px" font-style="normal" font-weight="bold" text-decoration="none" x="2074.114990234375" y="1612.5">User</text></g></g><g transform="translate(-2043,-1510) scale(1,1)"><path fill="#C0C0C0" stroke="none" d="M 2497 1564 C 2497 1554.6111584 2534.6080768 1547 2581 1547 C 2627.3919232 1547 2665 1554.6111584 2665 1564 C 2665 1573.3888416 2627.3919232 1581 2581 1581 C 2534.6080768 1581 2497 1573.3888416 2497 1564 Z" opacity="0.2"/></g><g transform="translate(-2043,-1510) scale(1,1)"><path fill="#ffffff" stroke="none" d="M 2490 1557 C 2490 1547.6111584 2527.6080768 1540 2574 1540 C 2620.3919232 1540 2658 1547.6111584 2658 1557 C 2658 1566.3888416 2620.3919232 1574 2574 1574 C 2527.6080768 1574 2490 1566.3888416 2490 1557 Z"/></g><g transform="translate(-2043,-1510) scale(1,1)"><path fill="none" stroke="#000000" d="M 2490 1557 C 2490 1547.6111584 2527.6080768 1540 2574 1540 C 2620.3919232 1540 2658 1547.6111584 2658 1557 C 2658 1566.3888416 2620.3919232 1574 2574 1574 C 2527.6080768 1574 2490 1566.3888416 2490 1557 Z" stroke-miterlimit="10"/></g><g transform="translate(-2043,-1510) scale(1,1)"><g><path fill="none" stroke="none"/><text fill="#000000" stroke="none" font-family="Arial" font-size="13px" font-style="normal" font-weight="bold" text-decoration="none" x="2523.41552734375" y="1564">Login nel sistema</text></g></g><g transform="translate(-2043,-1510) scale(1,1)"><path fill="none" stroke="#000000" d="M 2124 1568 L 2489 1559" stroke-miterlimit="10"/></g><g transform="translate(-2043,-1510) scale(1,1)"><path fill="none" stroke="#000000" d="M 2478.9441779458098 1563.458749019003 L 2489 1559 L 2478.736648368131 1555.0422717020228" stroke-miterlimit="10"/></g><g transform="translate(-2043,-1510) scale(1,1)"><path fill="#C0C0C0" stroke="none" d="M 2257 1644 C 2257 1634.6111584 2293.0410736 1627 2337.5 1627 C 2381.9589264 1627 2418 1634.6111584 2418 1644 C 2418 1653.3888416 2381.9589264 1661 2337.5 1661 C 2293.0410736 1661 2257 1653.3888416 2257 1644 Z" opacity="0.2"/></g><g transform="translate(-2043,-1510) scale(1,1)"><path fill="#ffffff" stroke="none" d="M 2250 1637 C 2250 1627.6111584 2286.0410736 1620 2330.5 1620 C 2374.9589264 1620 2411 1627.6111584 2411 1637 C 2411 1646.3888416 2374.9589264 1654 2330.5 1654 C 2286.0410736 1654 2250 1646.3888416 2250 1637 Z"/></g><g transform="translate(-2043,-1510) scale(1,1)"><path fill="none" stroke="#000000" d="M 2250 1637 C 2250 1627.6111584 2286.0410736 1620 2330.5 1620 C 2374.9589264 1620 2411 1627.6111584 2411 1637 C 2411 1646.3888416 2374.9589264 1654 2330.5 1654 C 2286.0410736 1654 2250 1646.3888416 2250 1637 Z" stroke-miterlimit="10"/></g><g transform="translate(-2043,-1510) scale(1,1)"><g><path fill="none" stroke="none"/><text fill="#000000" stroke="none" font-family="Arial" font-size="13px" font-style="normal" font-weight="bold" text-decoration="none" x="2281.00732421875" y="1644">Crea una Waybill</text></g></g><g transform="translate(-2043,-1510) scale(1,1)"><path fill="#C0C0C0" stroke="none" d="M 2427 1694 C 2427 1684.6111584 2500.2014352 1677 2590.5 1677 C 2680.7985648 1677 2754 1684.6111584 2754 1694 C 2754 1703.3888416 2680.7985648 1711 2590.5 1711 C 2500.2014352 1711 2427 1703.3888416 2427 1694 Z" opacity="0.2"/></g><g transform="translate(-2043,-1510) scale(1,1)"><path fill="#ffffff" stroke="none" d="M 2420 1687 C 2420 1677.6111584 2493.2014352 1670 2583.5 1670 C 2673.7985648 1670 2747 1677.6111584 2747 1687 C 2747 1696.3888416 2673.7985648 1704 2583.5 1704 C 2493.2014352 1704 2420 1696.3888416 2420 1687 Z"/></g><g transform="translate(-2043,-1510) scale(1,1)"><path fill="none" stroke="#000000" d="M 2420 1687 C 2420 1677.6111584 2493.2014352 1670 2583.5 1670 C 2673.7985648 1670 2747 1677.6111584 2747 1687 C 2747 1696.3888416 2673.7985648 1704 2583.5 1704 C 2493.2014352 1704 2420 1696.3888416 2420 1687 Z" stroke-miterlimit="10"/></g><g transform="translate(-2043,-1510) scale(1,1)"><g><path fill="none" stroke="none"/><text fill="#000000" stroke="none" font-family="Arial" font-size="13px" font-style="normal" font-weight="bold" text-decoration="none" x="2480.541015625" y="1694">Visualizza lista delle proprie Waybill</text></g></g><g transform="translate(-2043,-1510) scale(1,1)"><path fill="#C0C0C0" stroke="none" d="M 2411 1774 C 2411 1764.6111584 2491.1410208 1757 2590 1757 C 2688.8589792 1757 2769 1764.6111584 2769 1774 C 2769 1783.3888416 2688.8589792 1791 2590 1791 C 2491.1410208 1791 2411 1783.3888416 2411 1774 Z" opacity="0.2"/></g><g transform="translate(-2043,-1510) scale(1,1)"><path fill="#ffffff" stroke="none" d="M 2404 1767 C 2404 1757.6111584 2484.1410208 1750 2583 1750 C 2681.8589792 1750 2762 1757.6111584 2762 1767 C 2762 1776.3888416 2681.8589792 1784 2583 1784 C 2484.1410208 1784 2404 1776.3888416 2404 1767 Z"/></g><g transform="translate(-2043,-1510) scale(1,1)"><path fill="none" stroke="#000000" d="M 2404 1767 C 2404 1757.6111584 2484.1410208 1750 2583 1750 C 2681.8589792 1750 2762 1757.6111584 2762 1767 C 2762 1776.3888416 2681.8589792 1784 2583 1784 C 2484.1410208 1784 2404 1776.3888416 2404 1767 Z" stroke-miterlimit="10"/></g><g transform="translate(-2043,-1510) scale(1,1)"><g><path fill="none" stroke="none"/><text fill="#000000" stroke="none" font-family="Arial" font-size="13px" font-style="normal" font-weight="bold" text-decoration="none" x="2470.2783203125" y="1774">Modifica le proprie Waybill non validate</text></g></g><g transform="translate(-2043,-1510) scale(1,1)"><path fill="#C0C0C0" stroke="none" d="M 2402 1844 C 2402 1834.6111584 2486.3943152 1827 2590.5 1827 C 2694.6056848 1827 2779 1834.6111584 2779 1844 C 2779 1853.3888416 2694.6056848 1861 2590.5 1861 C 2486.3943152 1861 2402 1853.3888416 2402 1844 Z" opacity="0.2"/></g><g transform="translate(-2043,-1510) scale(1,1)"><path fill="#ffffff" stroke="none" d="M 2395 1837 C 2395 1827.6111584 2479.3943152 1820 2583.5 1820 C 2687.6056848 1820 2772 1827.6111584 2772 1837 C 2772 1846.3888416 2687.6056848 1854 2583.5 1854 C 2479.3943152 1854 2395 1846.3888416 2395 1837 Z"/></g><g transform="translate(-2043,-1510) scale(1,1)"><path fill="none" stroke="#000000" d="M 2395 1837 C 2395 1827.6111584 2479.3943152 1820 2583.5 1820 C 2687.6056848 1820 2772 1827.6111584 2772 1837 C 2772 1846.3888416 2687.6056848 1854 2583.5 1854 C 2479.3943152 1854 2395 1846.3888416 2395 1837 Z" stroke-miterlimit="10"/></g><g transform="translate(-2043,-1510) scale(1,1)"><g><path fill="none" stroke="none"/><text fill="#000000" stroke="none" font-family="Arial" font-size="13px" font-style="normal" font-weight="bold" text-decoration="none" x="2464.646484375" y="1844">Visualizza il tracking delle proprie Waybill</text></g></g><g transform="translate(-2043,-1510) scale(1,1)"><path fill="none" stroke="#000000" d="M 2124 1763 L 2300 1655" stroke-miterlimit="10"/></g><g transform="translate(-2043,-1510) scale(1,1)"><path fill="none" stroke="#000000" d="M 2293.5397672991344 1663.9031114477282 L 2300 1655 L 2289.1364751708265 1656.727376127523" stroke-miterlimit="10"/></g><g transform="translate(-2043,-1510) scale(1,1)"><path fill="none" stroke="#000000" d="M 2124 1778 L 2492 1705" stroke-miterlimit="10"/></g><g transform="translate(-2043,-1510) scale(1,1)"><path fill="none" stroke="#000000" d="M 2482.850644222592 1711.1064956282971 L 2492 1705 L 2481.2124840182514 1702.8483729543616" stroke-miterlimit="10"/></g><g transform="translate(-2043,-1510) scale(1,1)"><path fill="none" stroke="#000000" d="M 2124 1784 L 2403 1774" stroke-miterlimit="10"/></g><g transform="translate(-2043,-1510) scale(1,1)"><path fill="none" stroke="#000000" d="M 2392.994628652605 1778.5708362692983 L 2403 1774 L 2392.6930647502536 1770.1572033936818" stroke-miterlimit="10"/></g><g transform="translate(-2043,-1510) scale(1,1)"><path fill="none" stroke="#000000" d="M 2124 1789 L 2411 1819" stroke-miterlimit="10"/></g><g transform="translate(-2043,-1510) scale(1,1)"><path fill="none" stroke="#000000" d="M 2400.4547603163774 1822.1301629374439 L 2411 1819 L 2401.3300300711876 1813.756748949758" stroke-miterlimit="10"/></g><g transform="translate(-2043,-1510) scale(1,1)"><path fill="#C0C0C0" stroke="none" d="M 2197 1954 C 2197 1944.6111584 2261.4709888 1937 2341 1937 C 2420.5290112 1937 2485 1944.6111584 2485 1954 C 2485 1963.3888416 2420.5290112 1971 2341 1971 C 2261.4709888 1971 2197 1963.3888416 2197 1954 Z" opacity="0.2"/></g><g transform="translate(-2043,-1510) scale(1,1)"><path fill="#ffffff" stroke="none" d="M 2190 1947 C 2190 1937.6111584 2254.4709888 1930 2334 1930 C 2413.5290112 1930 2478 1937.6111584 2478 1947 C 2478 1956.3888416 2413.5290112 1964 2334 1964 C 2254.4709888 1964 2190 1956.3888416 2190 1947 Z"/></g><g transform="translate(-2043,-1510) scale(1,1)"><path fill="none" stroke="#000000" d="M 2190 1947 C 2190 1937.6111584 2254.4709888 1930 2334 1930 C 2413.5290112 1930 2478 1937.6111584 2478 1947 C 2478 1956.3888416 2413.5290112 1964 2334 1964 C 2254.4709888 1964 2190 1956.3888416 2190 1947 Z" stroke-miterlimit="10"/></g><g transform="translate(-2043,-1510) scale(1,1)"><g><path fill="none" stroke="none"/><text fill="#000000" stroke="none" font-family="Arial" font-size="13px" font-style="normal" font-weight="bold" text-decoration="none" x="2243.67919921875" y="1954">Visualizza la Mission del giorno</text></g></g><g transform="translate(-2043,-1510) scale(1,1)"><path fill="#C0C0C0" stroke="none" d="M 2267 2034 C 2267 2024.6111584 2352.7374608 2017 2458.5 2017 C 2564.2625392 2017 2650 2024.6111584 2650 2034 C 2650 2043.3888416 2564.2625392 2051 2458.5 2051 C 2352.7374608 2051 2267 2043.3888416 2267 2034 Z" opacity="0.2"/></g><g transform="translate(-2043,-1510) scale(1,1)"><path fill="#ffffff" stroke="none" d="M 2260 2027 C 2260 2017.6111584 2345.7374608 2010 2451.5 2010 C 2557.2625392 2010 2643 2017.6111584 2643 2027 C 2643 2036.3888416 2557.2625392 2044 2451.5 2044 C 2345.7374608 2044 2260 2036.3888416 2260 2027 Z"/></g><g transform="translate(-2043,-1510) scale(1,1)"><path fill="none" stroke="#000000" d="M 2260 2027 C 2260 2017.6111584 2345.7374608 2010 2451.5 2010 C 2557.2625392 2010 2643 2017.6111584 2643 2027 C 2643 2036.3888416 2557.2625392 2044 2451.5 2044 C 2345.7374608 2044 2260 2036.3888416 2260 2027 Z" stroke-miterlimit="10"/></g><g transform="translate(-2043,-1510) scale(1,1)"><g><path fill="none" stroke="none"/><text fill="#000000" stroke="none" font-family="Arial" font-size="13px" font-style="normal" font-weight="bold" text-decoration="none" x="2329.748779296875" y="2034">Visualizza Waybill contenute nella Mission</text></g></g><g transform="translate(-2043,-1510) scale(1,1)"><path fill="#C0C0C0" stroke="none" d="M 2527 1954 C 2527 1944.6111584 2567.9659407999998 1937 2618.5 1937 C 2669.0340592000002 1937 2710 1944.6111584 2710 1954 C 2710 1963.3888416 2669.0340592000002 1971 2618.5 1971 C 2567.9659407999998 1971 2527 1963.3888416 2527 1954 Z" opacity="0.2"/></g><g transform="translate(-2043,-1510) scale(1,1)"><path fill="#ffffff" stroke="none" d="M 2520 1947 C 2520 1937.6111584 2560.9659407999998 1930 2611.5 1930 C 2662.0340592000002 1930 2703 1937.6111584 2703 1947 C 2703 1956.3888416 2662.0340592000002 1964 2611.5 1964 C 2560.9659407999998 1964 2520 1956.3888416 2520 1947 Z"/></g><g transform="translate(-2043,-1510) scale(1,1)"><path fill="none" stroke="#000000" d="M 2520 1947 C 2520 1937.6111584 2560.9659407999998 1930 2611.5 1930 C 2662.0340592000002 1930 2703 1937.6111584 2703 1947 C 2703 1956.3888416 2662.0340592000002 1964 2611.5 1964 C 2560.9659407999998 1964 2520 1956.3888416 2520 1947 Z" stroke-miterlimit="10"/></g><g transform="translate(-2043,-1510) scale(1,1)"><g><path fill="none" stroke="none"/><text fill="#000000" stroke="none" font-family="Arial" font-size="13px" font-style="normal" font-weight="bold" text-decoration="none" x="2555.86279296875" y="1954">Aggiorna la Waybill</text></g></g><g transform="translate(-2043,-1510) scale(1,1)"><path fill="none" stroke="#000000" d="M 2360 1965 L 2425 2009" stroke-miterlimit="10" stroke-dasharray="3"/></g><g transform="translate(-2043,-1510) scale(1,1)"><path fill="none" stroke="#000000" d="M 2414.2244784238133 2006.7890873465612 L 2425 2009 L 2418.943906952514 1999.8172042927988" stroke-miterlimit="10"/></g><g transform="translate(-2043,-1510) scale(1,1)"><g><path fill="none" stroke="none"/><text fill="#000000" stroke="none" font-family="Arial" font-size="13px" font-style="normal" font-weight="normal" text-decoration="none" x="2401.75" y="1984.5">«precede»</text></g></g><g transform="translate(-2043,-1510) scale(1,1)"><path fill="none" stroke="#000000" d="M 2487 2009 L 2575 1965" stroke-miterlimit="10" stroke-dasharray="3"/></g><g transform="translate(-2043,-1510) scale(1,1)"><path fill="none" stroke="#000000" d="M 2567.7927808450386 1973.3099935049527 L 2575 1965 L 2564.027673703061 1965.7797792209974" stroke-miterlimit="10"/></g><g transform="translate(-2043,-1510) scale(1,1)"><g><path fill="none" stroke="none"/><text fill="#000000" stroke="none" font-family="Arial" font-size="13px" font-style="normal" font-weight="normal" text-decoration="none" x="2557.75" y="1990.5">«precede»</text></g></g><g transform="translate(-2043,-1510) scale(1,1)"><path fill="#C0C0C0" stroke="none" d="M 2746 2034 C 2746 2024.6111584 2810.0232736 2017 2889 2017 C 2967.9767264 2017 3032 2024.6111584 3032 2034 C 3032 2043.3888416 2967.9767264 2051 2889 2051 C 2810.0232736 2051 2746 2043.3888416 2746 2034 Z" opacity="0.2"/></g><g transform="translate(-2043,-1510) scale(1,1)"><path fill="#ffffff" stroke="none" d="M 2739 2027 C 2739 2017.6111584 2803.0232736 2010 2882 2010 C 2960.9767264 2010 3025 2017.6111584 3025 2027 C 3025 2036.3888416 2960.9767264 2044 2882 2044 C 2803.0232736 2044 2739 2036.3888416 2739 2027 Z"/></g><g transform="translate(-2043,-1510) scale(1,1)"><path fill="none" stroke="#000000" d="M 2739 2027 C 2739 2017.6111584 2803.0232736 2010 2882 2010 C 2960.9767264 2010 3025 2017.6111584 3025 2027 C 3025 2036.3888416 2960.9767264 2044 2882 2044 C 2803.0232736 2044 2739 2036.3888416 2739 2027 Z" stroke-miterlimit="10"/></g><g transform="translate(-2043,-1510) scale(1,1)"><g><path fill="none" stroke="none"/><text fill="#000000" stroke="none" font-family="Arial" font-size="13px" font-style="normal" font-weight="bold" text-decoration="none" x="2791.3173828125" y="2034">Aggiunge la Firma del Receiver</text></g></g><g transform="translate(-2043,-1510) scale(1,1)"><path fill="#C0C0C0" stroke="none" d="M 2794 1934 C 2794 1924.6111584 2836.532944 1917 2889 1917 C 2941.467056 1917 2984 1924.6111584 2984 1934 C 2984 1943.3888416 2941.467056 1951 2889 1951 C 2836.532944 1951 2794 1943.3888416 2794 1934 Z" opacity="0.2"/></g><g transform="translate(-2043,-1510) scale(1,1)"><path fill="#ffffff" stroke="none" d="M 2787 1927 C 2787 1917.6111584 2829.532944 1910 2882 1910 C 2934.467056 1910 2977 1917.6111584 2977 1927 C 2977 1936.3888416 2934.467056 1944 2882 1944 C 2829.532944 1944 2787 1936.3888416 2787 1927 Z"/></g><g transform="translate(-2043,-1510) scale(1,1)"><path fill="none" stroke="#000000" d="M 2787 1927 C 2787 1917.6111584 2829.532944 1910 2882 1910 C 2934.467056 1910 2977 1917.6111584 2977 1927 C 2977 1936.3888416 2934.467056 1944 2882 1944 C 2829.532944 1944 2787 1936.3888416 2787 1927 Z" stroke-miterlimit="10"/></g><g transform="translate(-2043,-1510) scale(1,1)"><g><path fill="none" stroke="none"/><text fill="#000000" stroke="none" font-family="Arial" font-size="13px" font-style="normal" font-weight="bold" text-decoration="none" x="2824.556884765625" y="1934">Aggiorna il Tracking</text></g></g><g transform="translate(-2043,-1510) scale(1,1)"><path fill="none" stroke="#000000" d="M 2704 1940 L 2786 1934" stroke-miterlimit="10" stroke-dasharray="3"/></g><g transform="translate(-2043,-1510) scale(1,1)"><path fill="none" stroke="#000000" d="M 2776.1716138878246 1938.9399217028204 L 2786 1934 L 2775.557229397366 1930.543333666556" stroke-miterlimit="10"/></g><g transform="translate(-2043,-1510) scale(1,1)"><g><path fill="none" stroke="none"/><text fill="#000000" stroke="none" font-family="Arial" font-size="13px" font-style="normal" font-weight="normal" text-decoration="none" x="2719.75" y="1961.5">«include»</text></g></g><g transform="translate(-2043,-1510) scale(1,1)"><path fill="none" stroke="#000000" d="M 2124 1993 L 2252 1965" stroke-miterlimit="10"/></g><g transform="translate(-2043,-1510) scale(1,1)"><path fill="none" stroke="#000000" d="M 2242.971643560531 1971.2840098664706 L 2252 1965 L 2241.1725219490577 1963.0594539283068" stroke-miterlimit="10"/></g><g transform="translate(-2043,-1510) scale(1,1)"><path fill="none" stroke="#000000" d="M 2672 1965 L 2821 2009" stroke-miterlimit="10" stroke-dasharray="3"/></g><g transform="translate(-2043,-1510) scale(1,1)"><path fill="none" stroke="#000000" d="M 2810.061226726612 2010.1589819987441 L 2821 2009 L 2812.44559520994 2002.0846432711103" stroke-miterlimit="10"/></g><g transform="translate(-2043,-1510) scale(1,1)"><g><path fill="none" stroke="none"/><text fill="#000000" stroke="none" font-family="Arial" font-size="13px" font-style="normal" font-weight="normal" text-decoration="none" x="2700.75" y="2002.5">«include»</text></g></g><g transform="translate(-2043,-1510) scale(1,1)"><path fill="#C0C0C0" stroke="none" d="M 2237 2384 C 2237 2374.6111584 2267.220776 2367 2304.5 2367 C 2341.779224 2367 2372 2374.6111584 2372 2384 C 2372 2393.3888416 2341.779224 2401 2304.5 2401 C 2267.220776 2401 2237 2393.3888416 2237 2384 Z" opacity="0.2"/></g><g transform="translate(-2043,-1510) scale(1,1)"><path fill="#ffffff" stroke="none" d="M 2230 2377 C 2230 2367.6111584 2260.220776 2360 2297.5 2360 C 2334.779224 2360 2365 2367.6111584 2365 2377 C 2365 2386.3888416 2334.779224 2394 2297.5 2394 C 2260.220776 2394 2230 2386.3888416 2230 2377 Z"/></g><g transform="translate(-2043,-1510) scale(1,1)"><path fill="none" stroke="#000000" d="M 2230 2377 C 2230 2367.6111584 2260.220776 2360 2297.5 2360 C 2334.779224 2360 2365 2367.6111584 2365 2377 C 2365 2386.3888416 2334.779224 2394 2297.5 2394 C 2260.220776 2394 2230 2386.3888416 2230 2377 Z" stroke-miterlimit="10"/></g><g transform="translate(-2043,-1510) scale(1,1)"><g><path fill="none" stroke="none"/><text fill="#000000" stroke="none" font-family="Arial" font-size="13px" font-style="normal" font-weight="bold" text-decoration="none" x="2255.970458984375" y="2384">CRUD Waybill</text></g></g><g transform="translate(-2043,-1510) scale(1,1)"><path fill="#C0C0C0" stroke="none" d="M 2257 2154 C 2257 2144.6111584 2292.1456432 2137 2335.5 2137 C 2378.8543568 2137 2414 2144.6111584 2414 2154 C 2414 2163.3888416 2378.8543568 2171 2335.5 2171 C 2292.1456432 2171 2257 2163.3888416 2257 2154 Z" opacity="0.2"/></g><g transform="translate(-2043,-1510) scale(1,1)"><path fill="#ffffff" stroke="none" d="M 2250 2147 C 2250 2137.6111584 2285.1456432 2130 2328.5 2130 C 2371.8543568 2130 2407 2137.6111584 2407 2147 C 2407 2156.3888416 2371.8543568 2164 2328.5 2164 C 2285.1456432 2164 2250 2156.3888416 2250 2147 Z"/></g><g transform="translate(-2043,-1510) scale(1,1)"><path fill="none" stroke="#000000" d="M 2250 2147 C 2250 2137.6111584 2285.1456432 2130 2328.5 2130 C 2371.8543568 2130 2407 2137.6111584 2407 2147 C 2407 2156.3888416 2371.8543568 2164 2328.5 2164 C 2285.1456432 2164 2250 2156.3888416 2250 2147 Z" stroke-miterlimit="10"/></g><g transform="translate(-2043,-1510) scale(1,1)"><g><path fill="none" stroke="none"/><text fill="#000000" stroke="none" font-family="Arial" font-size="13px" font-style="normal" font-weight="bold" text-decoration="none" x="2279.74365234375" y="2154">CRUD Customer</text></g></g><g transform="translate(-2043,-1510) scale(1,1)"><path fill="#C0C0C0" stroke="none" d="M 2588 2274 C 2588 2264.6111584 2619.1162064 2257 2657.5 2257 C 2695.8837936 2257 2727 2264.6111584 2727 2274 C 2727 2283.3888416 2695.8837936 2291 2657.5 2291 C 2619.1162064 2291 2588 2283.3888416 2588 2274 Z" opacity="0.2"/></g><g transform="translate(-2043,-1510) scale(1,1)"><path fill="#ffffff" stroke="none" d="M 2581 2267 C 2581 2257.6111584 2612.1162064 2250 2650.5 2250 C 2688.8837936 2250 2720 2257.6111584 2720 2267 C 2720 2276.3888416 2688.8837936 2284 2650.5 2284 C 2612.1162064 2284 2581 2276.3888416 2581 2267 Z"/></g><g transform="translate(-2043,-1510) scale(1,1)"><path fill="none" stroke="#000000" d="M 2581 2267 C 2581 2257.6111584 2612.1162064 2250 2650.5 2250 C 2688.8837936 2250 2720 2257.6111584 2720 2267 C 2720 2276.3888416 2688.8837936 2284 2650.5 2284 C 2612.1162064 2284 2581 2276.3888416 2581 2267 Z" stroke-miterlimit="10"/></g><g transform="translate(-2043,-1510) scale(1,1)"><g><path fill="none" stroke="none"/><text fill="#000000" stroke="none" font-family="Arial" font-size="13px" font-style="normal" font-weight="bold" text-decoration="none" x="2607.885009765625" y="2274">CRUD Mission</text></g></g><g transform="translate(-2043,-1510) scale(1,1)"><path fill="#C0C0C0" stroke="none" d="M 2602 2144 C 2602 2134.6111584 2626.624336 2127 2657 2127 C 2687.375664 2127 2712 2134.6111584 2712 2144 C 2712 2153.3888416 2687.375664 2161 2657 2161 C 2626.624336 2161 2602 2153.3888416 2602 2144 Z" opacity="0.2"/></g><g transform="translate(-2043,-1510) scale(1,1)"><path fill="#ffffff" stroke="none" d="M 2595 2137 C 2595 2127.6111584 2619.624336 2120 2650 2120 C 2680.375664 2120 2705 2127.6111584 2705 2137 C 2705 2146.3888416 2680.375664 2154 2650 2154 C 2619.624336 2154 2595 2146.3888416 2595 2137 Z"/></g><g transform="translate(-2043,-1510) scale(1,1)"><path fill="none" stroke="#000000" d="M 2595 2137 C 2595 2127.6111584 2619.624336 2120 2650 2120 C 2680.375664 2120 2705 2127.6111584 2705 2137 C 2705 2146.3888416 2680.375664 2154 2650 2154 C 2619.624336 2154 2595 2146.3888416 2595 2137 Z" stroke-miterlimit="10"/></g><g transform="translate(-2043,-1510) scale(1,1)"><g><path fill="none" stroke="none"/><text fill="#000000" stroke="none" font-family="Arial" font-size="13px" font-style="normal" font-weight="bold" text-decoration="none" x="2616.052734375" y="2144">CRUD Fare</text></g></g><g transform="translate(-2043,-1510) scale(1,1)"><path fill="#C0C0C0" stroke="none" d="M 2575 2194 C 2575 2184.6111584 2611.7126464 2177 2657 2177 C 2702.2873536 2177 2739 2184.6111584 2739 2194 C 2739 2203.3888416 2702.2873536 2211 2657 2211 C 2611.7126464 2211 2575 2203.3888416 2575 2194 Z" opacity="0.2"/></g><g transform="translate(-2043,-1510) scale(1,1)"><path fill="#ffffff" stroke="none" d="M 2568 2187 C 2568 2177.6111584 2604.7126464 2170 2650 2170 C 2695.2873536 2170 2732 2177.6111584 2732 2187 C 2732 2196.3888416 2695.2873536 2204 2650 2204 C 2604.7126464 2204 2568 2196.3888416 2568 2187 Z"/></g><g transform="translate(-2043,-1510) scale(1,1)"><path fill="none" stroke="#000000" d="M 2568 2187 C 2568 2177.6111584 2604.7126464 2170 2650 2170 C 2695.2873536 2170 2732 2177.6111584 2732 2187 C 2732 2196.3888416 2695.2873536 2204 2650 2204 C 2604.7126464 2204 2568 2196.3888416 2568 2187 Z" stroke-miterlimit="10"/></g><g transform="translate(-2043,-1510) scale(1,1)"><g><path fill="none" stroke="none"/><text fill="#000000" stroke="none" font-family="Arial" font-size="13px" font-style="normal" font-weight="bold" text-decoration="none" x="2600.510498046875" y="2194">Blocca Customer</text></g></g><g transform="translate(-2043,-1510) scale(1,1)"><path fill="none" stroke="#000000" d="M 2567 2177 L 2408 2157" stroke-miterlimit="10" stroke-dasharray="3"/></g><g transform="translate(-2043,-1510) scale(1,1)"><path fill="none" stroke="#000000" d="M 2418.6085780120675 2154.091723437863 L 2408 2157 L 2417.5578595297325 2162.4449353724262" stroke-miterlimit="10"/></g><g transform="translate(-2043,-1510) scale(1,1)"><g><path fill="none" stroke="none"/><text fill="#000000" stroke="none" font-family="Arial" font-size="13px" font-style="normal" font-weight="normal" text-decoration="none" x="2455.5" y="2182.5">«extend»</text></g></g><g transform="translate(-2043,-1510) scale(1,1)"><path fill="none" stroke="#000000" d="M 2594 2139 L 2408 2145" stroke-miterlimit="10" stroke-dasharray="3"/></g><g transform="translate(-2043,-1510) scale(1,1)"><path fill="none" stroke="#000000" d="M 2418.021671129079 2140.46501292388 L 2408 2145 L 2418.2931117283115 2148.8796715000753" stroke-miterlimit="10"/></g><g transform="translate(-2043,-1510) scale(1,1)"><g><path fill="none" stroke="none"/><text fill="#000000" stroke="none" font-family="Arial" font-size="13px" font-style="normal" font-weight="normal" text-decoration="none" x="2477.5" y="2133.5">«extend»</text></g></g><g transform="translate(-2043,-1510) scale(1,1)"><path fill="#C0C0C0" stroke="none" d="M 2806 2234 C 2806 2224.6111584 2843.3842192 2217 2889.5 2217 C 2935.6157808 2217 2973 2224.6111584 2973 2234 C 2973 2243.3888416 2935.6157808 2251 2889.5 2251 C 2843.3842192 2251 2806 2243.3888416 2806 2234 Z" opacity="0.2"/></g><g transform="translate(-2043,-1510) scale(1,1)"><path fill="#ffffff" stroke="none" d="M 2799 2227 C 2799 2217.6111584 2836.3842192 2210 2882.5 2210 C 2928.6157808 2210 2966 2217.6111584 2966 2227 C 2966 2236.3888416 2928.6157808 2244 2882.5 2244 C 2836.3842192 2244 2799 2236.3888416 2799 2227 Z"/></g><g transform="translate(-2043,-1510) scale(1,1)"><path fill="none" stroke="#000000" d="M 2799 2227 C 2799 2217.6111584 2836.3842192 2210 2882.5 2210 C 2928.6157808 2210 2966 2217.6111584 2966 2227 C 2966 2236.3888416 2928.6157808 2244 2882.5 2244 C 2836.3842192 2244 2799 2236.3888416 2799 2227 Z" stroke-miterlimit="10"/></g><g transform="translate(-2043,-1510) scale(1,1)"><g><path fill="none" stroke="none"/><text fill="#000000" stroke="none" font-family="Arial" font-size="13px" font-style="normal" font-weight="bold" text-decoration="none" x="2832.27734375" y="2234">Aggiunge Waybill</text></g></g><g transform="translate(-2043,-1510) scale(1,1)"><path fill="#C0C0C0" stroke="none" d="M 2809 2304 C 2809 2294.6111584 2844.817216 2287 2889 2287 C 2933.182784 2287 2969 2294.6111584 2969 2304 C 2969 2313.3888416 2933.182784 2321 2889 2321 C 2844.817216 2321 2809 2313.3888416 2809 2304 Z" opacity="0.2"/></g><g transform="translate(-2043,-1510) scale(1,1)"><path fill="#ffffff" stroke="none" d="M 2802 2297 C 2802 2287.6111584 2837.817216 2280 2882 2280 C 2926.182784 2280 2962 2287.6111584 2962 2297 C 2962 2306.3888416 2926.182784 2314 2882 2314 C 2837.817216 2314 2802 2306.3888416 2802 2297 Z"/></g><g transform="translate(-2043,-1510) scale(1,1)"><path fill="none" stroke="#000000" d="M 2802 2297 C 2802 2287.6111584 2837.817216 2280 2882 2280 C 2926.182784 2280 2962 2287.6111584 2962 2297 C 2962 2306.3888416 2926.182784 2314 2882 2314 C 2837.817216 2314 2802 2306.3888416 2802 2297 Z" stroke-miterlimit="10"/></g><g transform="translate(-2043,-1510) scale(1,1)"><g><path fill="none" stroke="none"/><text fill="#000000" stroke="none" font-family="Arial" font-size="13px" font-style="normal" font-weight="bold" text-decoration="none" x="2833.59912109375" y="2304">Rimuove Waybill</text></g></g><g transform="translate(-2043,-1510) scale(1,1)"><path fill="none" stroke="#000000" d="M 2801 2287 L 2721 2276" stroke-miterlimit="10" stroke-dasharray="3"/></g><g transform="translate(-2043,-1510) scale(1,1)"><path fill="none" stroke="#000000" d="M 2731.6413604606164 2273.2140625370926 L 2721 2276 L 2730.494533414736 2281.5546228707685" stroke-miterlimit="10"/></g><g transform="translate(-2043,-1510) scale(1,1)"><g><path fill="none" stroke="none"/><text fill="#000000" stroke="none" font-family="Arial" font-size="13px" font-style="normal" font-weight="normal" text-decoration="none" x="2730.5" y="2301.5">«extend»</text></g></g><g transform="translate(-2043,-1510) scale(1,1)"><path fill="none" stroke="#000000" d="M 2798 2241 L 2721 2255" stroke-miterlimit="10" stroke-dasharray="3"/></g><g transform="translate(-2043,-1510) scale(1,1)"><path fill="none" stroke="#000000" d="M 2730.24572857015 2249.0404275986343 L 2721 2255 L 2731.7517714269406 2257.3236633109855" stroke-miterlimit="10"/></g><g transform="translate(-2043,-1510) scale(1,1)"><g><path fill="none" stroke="none"/><text fill="#000000" stroke="none" font-family="Arial" font-size="13px" font-style="normal" font-weight="normal" text-decoration="none" x="2744.5" y="2266.5">«extend»</text></g></g><g transform="translate(-2043,-1510) scale(1,1)"><path fill="#C0C0C0" stroke="none" d="M 2207 2274 C 2207 2264.6111584 2266.0984064 2257 2339 2257 C 2411.9015936 2257 2471 2264.6111584 2471 2274 C 2471 2283.3888416 2411.9015936 2291 2339 2291 C 2266.0984064 2291 2207 2283.3888416 2207 2274 Z" opacity="0.2"/></g><g transform="translate(-2043,-1510) scale(1,1)"><path fill="#ffffff" stroke="none" d="M 2200 2267 C 2200 2257.6111584 2259.0984064 2250 2332 2250 C 2404.9015936 2250 2464 2257.6111584 2464 2267 C 2464 2276.3888416 2404.9015936 2284 2332 2284 C 2259.0984064 2284 2200 2276.3888416 2200 2267 Z"/></g><g transform="translate(-2043,-1510) scale(1,1)"><path fill="none" stroke="#000000" d="M 2200 2267 C 2200 2257.6111584 2259.0984064 2250 2332 2250 C 2404.9015936 2250 2464 2257.6111584 2464 2267 C 2464 2276.3888416 2404.9015936 2284 2332 2284 C 2259.0984064 2284 2200 2276.3888416 2200 2267 Z" stroke-miterlimit="10"/></g><g transform="translate(-2043,-1510) scale(1,1)"><g><path fill="none" stroke="none"/><text fill="#000000" stroke="none" font-family="Arial" font-size="13px" font-style="normal" font-weight="bold" text-decoration="none" x="2249.27099609375" y="2274">Assegna Mission a un Driver</text></g></g><g transform="translate(-2043,-1510) scale(1,1)"><path fill="none" stroke="#000000" d="M 2465 2267 L 2580 2267" stroke-miterlimit="10" stroke-dasharray="3"/></g><g transform="translate(-2043,-1510) scale(1,1)"><path fill="none" stroke="#000000" d="M 2569.837325142376 2271.209517756016 L 2580 2267 L 2569.837325142376 2262.790482243984" stroke-miterlimit="10"/></g><g transform="translate(-2043,-1510) scale(1,1)"><g><path fill="none" stroke="none"/><text fill="#000000" stroke="none" font-family="Arial" font-size="13px" font-style="normal" font-weight="normal" text-decoration="none" x="2491.5" y="2255.5">«precede»</text></g></g><g transform="translate(-2043,-1510) scale(1,1)"><path fill="#C0C0C0" stroke="none" d="M 2487 2384 C 2487 2374.6111584 2563.3354416 2367 2657.5 2367 C 2751.6645584 2367 2828 2374.6111584 2828 2384 C 2828 2393.3888416 2751.6645584 2401 2657.5 2401 C 2563.3354416 2401 2487 2393.3888416 2487 2384 Z" opacity="0.2"/></g><g transform="translate(-2043,-1510) scale(1,1)"><path fill="#ffffff" stroke="none" d="M 2480 2377 C 2480 2367.6111584 2556.3354416 2360 2650.5 2360 C 2744.6645584 2360 2821 2367.6111584 2821 2377 C 2821 2386.3888416 2744.6645584 2394 2650.5 2394 C 2556.3354416 2394 2480 2386.3888416 2480 2377 Z"/></g><g transform="translate(-2043,-1510) scale(1,1)"><path fill="none" stroke="#000000" d="M 2480 2377 C 2480 2367.6111584 2556.3354416 2360 2650.5 2360 C 2744.6645584 2360 2821 2367.6111584 2821 2377 C 2821 2386.3888416 2744.6645584 2394 2650.5 2394 C 2556.3354416 2394 2480 2386.3888416 2480 2377 Z" stroke-miterlimit="10"/></g><g transform="translate(-2043,-1510) scale(1,1)"><g><path fill="none" stroke="none"/><text fill="#000000" stroke="none" font-family="Arial" font-size="13px" font-style="normal" font-weight="bold" text-decoration="none" x="2541.755126953125" y="2384">Valida Waybill create da un Customer</text></g></g><g transform="translate(-2043,-1510) scale(1,1)"><path fill="none" stroke="#000000" d="M 2479 2377 L 2366 2377" stroke-miterlimit="10" stroke-dasharray="3"/></g><g transform="translate(-2043,-1510) scale(1,1)"><path fill="none" stroke="#000000" d="M 2376.162674857624 2372.790482243984 L 2366 2377 L 2376.162674857624 2381.209517756016" stroke-miterlimit="10"/></g><g transform="translate(-2043,-1510) scale(1,1)"><g><path fill="none" stroke="none"/><text fill="#000000" stroke="none" font-family="Arial" font-size="13px" font-style="normal" font-weight="normal" text-decoration="none" x="2394.5" y="2392.5">«extend»</text></g></g><g transform="translate(-2043,-1510) scale(1,1)"><path fill="none" stroke="#000000" d="M 2124 2206 L 2266 2165" stroke-miterlimit="10"/></g><g transform="translate(-2043,-1510) scale(1,1)"><path fill="none" stroke="#000000" d="M 2257.403890737745 2171.8634470604334 L 2266 2165 L 2255.068442890092 2163.774822807586" stroke-miterlimit="10"/></g><g transform="translate(-2043,-1510) scale(1,1)"><path fill="none" stroke="#000000" d="M 2124 2224 L 2244 2249" stroke-miterlimit="10"/></g><g transform="translate(-2043,-1510) scale(1,1)"><path fill="none" stroke="#000000" d="M 2233.192391248127 2251.048314689308 L 2244 2249 L 2234.9094893563256 2242.806243769953" stroke-miterlimit="10"/></g><g transform="translate(-2043,-1510) scale(1,1)"><path fill="none" stroke="#000000" d="M 2124 2245 L 2273 2359" stroke-miterlimit="10"/></g><g transform="translate(-2043,-1510) scale(1,1)"><path fill="none" stroke="#000000" d="M 2262.3708326597466 2356.167898015097 L 2273 2359 L 2267.486642213877 2349.4814451768034" stroke-miterlimit="10"/></g></g></svg>