<svg version="1.1" xmlns="http://www.w3.org/2000/svg" xmlns:xlink="http://www.w3.org/1999/xlink" width="1669" height="726"><defs/><g><g transform="translate(-1390,-680) scale(1,1)"><rect fill="#C0C0C0" stroke="none" x="2637" y="847" width="167.5999999999999" height="15" opacity="0.2"/></g><g transform="translate(-1390,-680) scale(1,1)"><rect fill="#C0C0C0" stroke="none" x="2637" y="861" width="419" height="275" opacity="0.2"/></g><g transform="translate(-1390,-680) scale(1,1)"><rect fill="#ffffff" stroke="none" x="2630" y="855" width="419" height="274"/></g><g transform="translate(-1390,-680) scale(1,1)"><path fill="none" stroke="#000000" d="M 2630 855 L 3049 855 L 3049 1129 L 2630 1129 L 2630 855 Z Z" stroke-miterlimit="10"/></g><g transform="translate(-1390,-680) scale(1,1)"><rect fill="#ffffff" stroke="none" x="2630" y="840" width="167.5999999999999" height="15"/></g><g transform="translate(-1390,-680) scale(1,1)"><path fill="none" stroke="#000000" d="M 2630 840 L 2797.6 840 L 2797.6 855 L 2630 855 L 2630 840 Z Z" stroke-miterlimit="10"/></g><g transform="translate(-1390,-680) scale(1,1)"><rect fill="#ffffff" stroke="none" x="2630" y="854" width="419" height="275"/></g><g transform="translate(-1390,-680) scale(1,1)"><path fill="none" stroke="#000000" d="M 2630 854 L 3049 854 L 3049 1129 L 2630 1129 L 2630 854 Z Z" stroke-miterlimit="10"/></g><g transform="translate(-1390,-680) scale(1,1)"><g><path fill="none" stroke="none"/><text fill="#000000" stroke="none" font-family="Arial" font-size="20px" font-style="normal" font-weight="bold" text-decoration="none" x="2772.2392578125" y="881.5">Business Logic</text></g></g><g transform="translate(-1390,-680) scale(1,1)"><rect fill="#C0C0C0" stroke="none" x="2187" y="697" width="27.5966796875" height="15" opacity="0.2"/></g><g transform="translate(-1390,-680) scale(1,1)"><rect fill="#C0C0C0" stroke="none" x="2187" y="711" width="68.99169921875" height="32" opacity="0.2"/></g><g transform="translate(-1390,-680) scale(1,1)"><rect fill="#ffffff" stroke="none" x="2180" y="705" width="68.99169921875" height="31"/></g><g transform="translate(-1390,-680) scale(1,1)"><path fill="none" stroke="#000000" d="M 2180 705 L 2248.99169921875 705 L 2248.99169921875 736 L 2180 736 L 2180 705 Z Z" stroke-miterlimit="10"/></g><g transform="translate(-1390,-680) scale(1,1)"><rect fill="#ffffff" stroke="none" x="2180" y="690" width="27.5966796875" height="15"/></g><g transform="translate(-1390,-680) scale(1,1)"><path fill="none" stroke="#000000" d="M 2180 690 L 2207.5966796875 690 L 2207.5966796875 705 L 2180 705 L 2180 690 Z Z" stroke-miterlimit="10"/></g><g transform="translate(-1390,-680) scale(1,1)"><rect fill="#ffffff" stroke="none" x="2180" y="704" width="68.99169921875" height="32"/></g><g transform="translate(-1390,-680) scale(1,1)"><path fill="none" stroke="#000000" d="M 2180 704 L 2248.99169921875 704 L 2248.99169921875 736 L 2180 736 L 2180 704 Z Z" stroke-miterlimit="10"/></g><g transform="translate(-1390,-680) scale(1,1)"><g><path fill="none" stroke="none"/><text fill="#000000" stroke="none" font-family="Arial" font-size="20px" font-style="normal" font-weight="bold" text-decoration="none" x="2187.825927734375" y="731.5">DAOs</text></g></g><g transform="translate(-1390,-680) scale(1,1)"><rect fill="#C0C0C0" stroke="none" x="1407" y="1357" width="58.26796874999991" height="15" opacity="0.2"/></g><g transform="translate(-1390,-680) scale(1,1)"><rect fill="#C0C0C0" stroke="none" x="1407" y="1371" width="145.669921875" height="32" opacity="0.2"/></g><g transform="translate(-1390,-680) scale(1,1)"><rect fill="#ffffff" stroke="none" x="1400" y="1365" width="145.669921875" height="31"/></g><g transform="translate(-1390,-680) scale(1,1)"><path fill="none" stroke="#000000" d="M 1400 1365 L 1545.669921875 1365 L 1545.669921875 1396 L 1400 1396 L 1400 1365 Z Z" stroke-miterlimit="10"/></g><g transform="translate(-1390,-680) scale(1,1)"><rect fill="#ffffff" stroke="none" x="1400" y="1350" width="58.26796874999991" height="15"/></g><g transform="translate(-1390,-680) scale(1,1)"><path fill="none" stroke="#000000" d="M 1400 1350 L 1458.26796875 1350 L 1458.26796875 1365 L 1400 1365 L 1400 1350 Z Z" stroke-miterlimit="10"/></g><g transform="translate(-1390,-680) scale(1,1)"><rect fill="#ffffff" stroke="none" x="1400" y="1364" width="145.669921875" height="32"/></g><g transform="translate(-1390,-680) scale(1,1)"><path fill="none" stroke="#000000" d="M 1400 1364 L 1545.669921875 1364 L 1545.669921875 1396 L 1400 1396 L 1400 1364 Z Z" stroke-miterlimit="10"/></g><g transform="translate(-1390,-680) scale(1,1)"><g><path fill="none" stroke="none"/><text fill="#000000" stroke="none" font-family="Arial" font-size="20px" font-style="normal" font-weight="bold" text-decoration="none" x="1408.3623046875" y="1391.5">Domain Model</text></g></g></g></svg>